<svg xmlns="http://www.w3.org/2000/svg" xmlns:xlink="http://www.w3.org/1999/xlink" xmlns:lucid="lucid" width="1442" height="1474"><g transform="translate(3459.4569335411757 -1358.2802735850487)" lucid:page-tab-id="0_0"><path d="M-6000-1500h9500v4500h-9500z" fill="#f2f3f5"/><path d="M-3458.46 1371.28a12 12 0 0 1 12-12h1416a12 12 0 0 1 12 12v1448a12 12 0 0 1-12 12h-1416a12 12 0 0 1-12-12z" stroke="#979ea8" stroke-width="2" fill="#fff"/><path d="M-3458.46 1425.42h1440" stroke="#979ea8" stroke-width="2" fill="none"/><use xlink:href="#a" transform="matrix(1,0,0,1,-3434.456933538462,1375.2802735878233) translate(589.8226996527778 30.13888888888889)"/><use xlink:href="#b" transform="matrix(1,0,0,1,-3434.456933538462,1375.2802735878233) translate(663.529296875 30.13888888888889)"/><use xlink:href="#c" transform="matrix(1,0,0,1,-3434.456933538462,1375.2802735878233) translate(720.9359809027778 30.13888888888889)"/><path d="M-3268 1639.08a1.83 1.83 0 0 1 1.82 1.83v10.04m0 10.03v20.05m0 10.03v20.05m0 10.03v20.06m0 10v20.07m0 10.02v20.05m0 10.03v20.05m0 10.03v20.05m0 10.04v20.05m0 10.02v20.06m0 10.02v20.06m0 10.02v20.06m0 10.03v20.05m0 10.03V2042m0 10.03v20.05m0 10.03v20.06m0 10.03v20.05m0 10.02v20.06m0 10.02v20.06m0 10.03v20.06m0 10.02v20.05m0 10.03v20.05m0 10.03v20.05m0 10.03v20.05m0 10.04v20.06m0 10.02v20.06m0 10.03v20.06m0 10.03v10M-3268 1639.08h-3.5M-3266.18 2453.1v.5M-2954.55 1634v10.02m0 10v20.03m0 10v20.03m0 10v20.03m0 10.02v20.02m0 10v20.03m0 10v20.03m0 10v20.04m0 10v20.03m0 10v20.03m0 10v20.03m0 10v20.03m0 10v20.03m0 10v20.02m0 10v20.03m0 10v20.03m0 10v20.03m0 10.03v20.02m0 10v20.03m0 10v20.03m0 10.02v20.02m0 10v20.03m0 10v20.03m0 10v20.03m0 10v20.03m0 10v20.03m0 10v20.02m0 10v10.02" stroke="#333" fill="none"/><path d="M-2954.08 1634.02h-.95v-.5h.95z" stroke="#333" stroke-width=".05" fill="#333"/><path d="M-2954.55 2444.83v.5M-2593.72 1634v9.77m0 9.76v19.53m0 9.76v19.53m0 9.76v19.53m0 9.76v19.52m0 9.76v19.53m0 9.77v19.52m0 9.76v19.52m0 9.76v19.53m0 9.76v19.53m0 9.76v19.52m0 9.77v19.53m0 9.76v19.52m0 9.76v19.53m0 9.77v19.52m0 9.75v19.53m0 9.76v19.53m0 9.76v19.52m0 9.76v19.54m0 9.76v19.53m0 9.76v19.5m0 9.78v19.52m0 9.76v19.53m0 9.75v19.53m0 9.76v19.52m0 9.77v19.52m0 9.76v19.54m0 9.76v19.52m0 9.77v9.75" stroke="#333" fill="none"/><path d="M-2593.24 1634.02h-.95v-.5h.96z" stroke="#333" stroke-width=".05" fill="#333"/><path d="M-2593.72 2454.04v.5" stroke="#333" fill="none"/><path d="M-2613.72 1768.9a8 8 0 0 1 8-8h24a8 8 0 0 1 8 8v633.9a8 8 0 0 1-8 8h-24a8 8 0 0 1-8-8z" stroke="#b8f5ed" stroke-width="2" fill="#ced4db"/><path d="M-2249.08 1984.96v9.4m0 9.43v18.82m0 9.42v18.83m0 9.42v18.82m0 9.4v18.84m0 9.42v18.83m0 9.43v18.83m0 9.4v18.85m0 9.42v9.42a8.1 8.1 0 0 0 8.1 8.1 8.1 8.1 0 0 1 8.1 8.1v9.4m0 9.43v18.83m0 9.4v18.85m0 9.4v18.84m0 9.4v18.84m0 9.42v18.83m0 9.4v18.84m0 9.4v18.84m0 9.42v9.4" stroke="#333" fill="none"/><path d="M-2248.6 1984.97h-.95v-.5h.95z" stroke="#333" stroke-width=".05" fill="#333"/><path d="M-2232.88 2453.1v.5M-2232.88 1634v9.97m0 9.97v19.93m0 9.96v19.93m0 9.97v19.92m0 9.97v19.93m0 9.96v19.94m0 9.97v9.97" stroke="#333" fill="none"/><path d="M-2232.4 1634.02h-.96v-.5h.95zM-2232.4 1813.87h-.96v-.5h.95z" stroke="#333" stroke-width=".05" fill="#333"/><path d="M-2251.24 1771.4a8 8 0 0 1 8-8h24a8 8 0 0 1 8 8v624a8 8 0 0 1-8 8h-24a8 8 0 0 1-8-8z" stroke="#b8f5ed" stroke-width="2" fill="#ced4db"/><path d="M-2572.72 2141.5h304.1" stroke="#333" fill="none"/><path d="M-2572.7 2141.98h-.02v-.95h.02z" stroke="#333" stroke-width=".05" fill="#333"/><path d="M-2253.86 2141.5l-14.26 4.64v-9.27z" stroke="#333" fill="#333"/><path d="M-2973.48 1709.24a8 8 0 0 1 8-8h24a8 8 0 0 1 8 8v693.55a8 8 0 0 1-8 8h-24a8 8 0 0 1-8-8z" stroke="#b8f5ed" stroke-width="2" fill="#ced4db"/><path d="M-2688.75 1519.5a8 8 0 0 1 8-8h174.07a8 8 0 0 1 8 8v105a8 8 0 0 1-8 8h-174.07a8 8 0 0 1-8-8z" stroke="#febed9" stroke-width="2" fill="#6db1ff"/><use xlink:href="#d" transform="matrix(1,0,0,1,-2680.754479422124,1519.5090622024823) translate(30.864453124999997 58.51432291666667)"/><path d="M-2327.92 1519.5a8 8 0 0 1 8-8h174.08a8 8 0 0 1 8 8v105a8 8 0 0 1-8 8h-174.08a8 8 0 0 1-8-8z" stroke="#febed9" stroke-width="2" fill="#6db1ff"/><use xlink:href="#e" transform="matrix(1,0,0,1,-2319.9204810939045,1519.5090622024823) translate(50.538151041666666 58.51432291666667)"/><path d="M-3248.76 1563.1c0 10.9-8.85 19.75-19.75 19.75-10.92 0-19.76-8.85-19.76-19.75s8.84-19.75 19.75-19.75c10.9 0 19.74 8.84 19.74 19.75z" stroke="#333" fill="#fff"/><path d="M-3268.5 1582.85v47.3a27.6 27.6 0 0 0 4.26 14.76l35.73 56.45m-40-63.2l-40 63.2m0-98.75h80" stroke="#333" fill="none"/><path d="M-3308.5 1551.35a8 8 0 0 1 8-8h64a8 8 0 0 1 8 8v164a8 8 0 0 1-8 8h-64a8 8 0 0 1-8-8z" fill="none"/><use xlink:href="#f" transform="matrix(1,0,0,1,-3388.513860144604,1701.3460887107408) translate(101.55338541666666 17.014322916666668)"/><path d="M-3265.68 1787.17h275.32M-3265.67 1787.17h-.5" stroke="#333" fill="none"/><path d="M-2975.6 1787.17l-14.26 4.64v-9.26z" stroke="#333" fill="#333"/><path d="M-2252.74 2200.5h-4.85m-4.84 0h-9.7m-4.84 0h-9.7m-4.84 0h-9.7m-4.85 0h-9.7m-4.84 0h-9.7m-4.86 0h-9.7m-4.84 0h-9.7m-4.85 0h-9.7m-4.84 0h-9.7m-4.84 0h-9.7m-4.84 0H-2417.53m-4.8 0h-9.6m-4.82 0h-9.6m-4.8 0h-9.6m-4.82 0h-9.6m-4.8 0h-9.6m-4.82 0h-9.6m-4.8 0h-9.6m-4.8 0h-9.62m-4.8 0h-9.6m-4.8 0h-4.8" stroke="#333" fill="none"/><path d="M-2252.24 2200.98h-.5v-.95h.5z" stroke="#333" stroke-width=".05" fill="#333"/><path d="M-2571.6 2200.5l14.27-4.63v9.27z" stroke="#333" fill="#333"/><path d="M-3049.6 1519.5a8 8 0 0 1 8-8h174.1a8 8 0 0 1 8 8v105a8 8 0 0 1-8 8h-174.1a8 8 0 0 1-8-8z" stroke="#febed9" stroke-width="2" fill="#6db1ff"/><use xlink:href="#g" transform="matrix(1,0,0,1,-3041.5884777503447,1519.5090622024823) translate(79.12838541666666 58.51432291666667)"/><path d="M-2843.24 1760.86a6 6 0 0 1 6-6h147.7a6 6 0 0 1 6 6v16.83a6 6 0 0 1-6 6h-147.7a6 6 0 0 1-6-6z" fill="none"/><use xlink:href="#h" transform="matrix(1,0,0,1,-2838.2382207415685,1759.8578570528434) translate(0 15.158637152777779)"/><use xlink:href="#i" transform="matrix(1,0,0,1,-2838.2382207415685,1759.8578570528434) translate(46.31727430555556 15.158637152777779)"/><path d="M-2572.22 1802.1l303.6.7" stroke="#333" fill="none"/><path d="M-2572.2 1801.64v.95h-.52v-.96z" stroke="#333" stroke-width=".05" fill="#333"/><path d="M-2253.86 1802.84l-14.27 4.6.02-9.27z" stroke="#333" fill="#333"/><path d="M-2931.98 1792.28h300.88" stroke="#333" fill="none"/><path d="M-2931.97 1792.75h-.5v-.95h.5z" stroke="#333" stroke-width=".05" fill="#333"/><path d="M-2616.34 1792.28l-14.26 4.63v-9.26z" stroke="#333" fill="#333"/><path d="M-3215.7 1748.73a6 6 0 0 1 6-6h176.25a6 6 0 0 1 6 6v36.84a6 6 0 0 1-6 6h-176.25a6 6 0 0 1-6-6z" fill="none"/><use xlink:href="#j" transform="matrix(1,0,0,1,-3210.704467333678,1747.7313596570098) translate(9.428776041666666 25.514322916666668)"/><use xlink:href="#k" transform="matrix(1,0,0,1,-3210.704467333678,1747.7313596570098) translate(53.85403645833334 25.514322916666668)"/><use xlink:href="#l" transform="matrix(1,0,0,1,-3210.704467333678,1747.7313596570098) translate(108.89518229166667 25.514322916666668)"/><use xlink:href="#m" transform="matrix(1,0,0,1,-3210.704467333678,1747.7313596570098) translate(148.85611979166669 25.514322916666668)"/><path d="M-2487.22 1768.74a6 6 0 0 1 6-6h147.3a6 6 0 0 1 6 6v16.83a6 6 0 0 1-6 6h-147.3a6 6 0 0 1-6-6z" fill="none"/><use xlink:href="#n" transform="matrix(1,0,0,1,-2482.2197606077934,1767.73604715701) translate(0 15.158637152777779)"/><use xlink:href="#o" transform="matrix(1,0,0,1,-2482.2197606077934,1767.73604715701) translate(52.31770833333333 15.158637152777779)"/><use xlink:href="#p" transform="matrix(1,0,0,1,-2482.2197606077934,1767.73604715701) translate(66.40733506944444 15.158637152777779)"/><use xlink:href="#q" transform="matrix(1,0,0,1,-2482.2197606077934,1767.73604715701) translate(104.08854166666667 15.158637152777779)"/><path d="M-2572.22 1867.75l303.6.7" stroke="#333" fill="none"/><path d="M-2572.2 1867.27v.95h-.52v-.95z" stroke="#333" stroke-width=".05" fill="#333"/><path d="M-2253.86 1868.47l-14.27 4.6.02-9.26z" stroke="#333" fill="#333"/><path d="M-2256.92 1819.87a6 6 0 0 1 6-6h36.07a6 6 0 0 1 6 6v24.9a6 6 0 0 1-6 6h-36.07a6 6 0 0 1-6-6z" fill="none"/><use xlink:href="#r" transform="matrix(1,0,0,1,-2251.9199800845367,1818.872535694899) translate(0 21.58376736111111)"/><path d="M-2519 1840.86a6 6 0 0 1 6-6h197.2a6 6 0 0 1 6 6v16.83a6 6 0 0 1-6 6H-2513a6 6 0 0 1-6-6z" fill="none"/><use xlink:href="#n" transform="matrix(1,0,0,1,-2514.010743224224,1839.862581968012) translate(0 15.158637152777779)"/><use xlink:href="#s" transform="matrix(1,0,0,1,-2514.010743224224,1839.862581968012) translate(52.31770833333333 15.158637152777779)"/><use xlink:href="#t" transform="matrix(1,0,0,1,-2514.010743224224,1839.862581968012) translate(130.72591145833331 15.158637152777779)"/><path d="M-2556.33 1934.2l5.06.03m5.06 0l10.1.03m5.07 0l10.12.04m5.05 0l10.12.03m5.06 0l10.12.03m5.06.02l10.13.02m5.05 0l10.13.03m5.06 0l10.13.04m5.05 0l10.1.03m5.07.02l10.12.02m5.06 0l10.12.03m5.06 0l10.12.04m5.06.02l10.12.02m5.06 0l10.12.04m5.06 0l10.12.03m5.06.02l10.12.03m5.06 0l10.12.03m5.06 0l10.12.04m5.06 0l10.12.03m5.06 0l10.12.03m5.06.02h5.06" stroke="#333" fill="none"/><path d="M-2571.1 1934.18l14.28-4.6-.02 9.27z" stroke="#333" fill="#333"/><path d="M-2252.24 1934.43v.95h-.5v-.95z" stroke="#333" stroke-width=".05" fill="#333"/><path d="M-2324.5 1906.44a6 6 0 0 1 6-6h55.58a6 6 0 0 1 6 6v16.83a6 6 0 0 1-6 6h-55.58a6 6 0 0 1-6-6z" fill="none"/><use xlink:href="#u" transform="matrix(1,0,0,1,-2319.496169320648,1905.440981283381) translate(0 15.158637152777779)"/><path d="M-2325.5 1914.86h-34.13" stroke="#1071e5" stroke-width="2" fill="none"/><path d="M-2324.5 1915.83h-1.02v-1.95h1.02z" stroke="#1071e5" stroke-width=".05" fill="#1071e5"/><path d="M-2373.62 1914.86l13-7.5v15z" stroke="#1071e5" stroke-width="2" fill="#1071e5"/><path d="M-2547.65 1906.44a6 6 0 0 1 6-6h160.03a6 6 0 0 1 6 6v16.83a6 6 0 0 1-6 6h-160.03a6 6 0 0 1-6-6z" fill="none"/><use xlink:href="#v" transform="matrix(1,0,0,1,-2542.654323325767,1905.440981283381) translate(0 15.158637152777779)"/><use xlink:href="#w" transform="matrix(1,0,0,1,-2542.654323325767,1905.440981283381) translate(34.460720486111114 15.158637152777779)"/><use xlink:href="#x" transform="matrix(1,0,0,1,-2542.654323325767,1905.440981283381) translate(61.318359375 15.158637152777779)"/><use xlink:href="#y" transform="matrix(1,0,0,1,-2542.654323325767,1905.440981283381) translate(75.55989583333333 15.158637152777779)"/><use xlink:href="#z" transform="matrix(1,0,0,1,-2542.654323325767,1905.440981283381) translate(114.85894097222221 15.158637152777779)"/><path d="M-2327.92 1942.8a6 6 0 0 1 6-6h145.68a6 6 0 0 1 6 6v35.66a6 6 0 0 1-6 6h-145.68a6 6 0 0 1-6-6z" fill="none"/><use xlink:href="#A" transform="matrix(1,0,0,1,-2322.9204810939045,1941.8063860438335) translate(0 24.65863715277778)"/><path d="M-2328.92 1960.63h-30.7" stroke="#1071e5" stroke-width="2" fill="none"/><path d="M-2327.92 1961.6h-1.03v-1.94h1.03z" stroke="#1071e5" stroke-width=".05" fill="#1071e5"/><path d="M-2373.62 1960.63l13-7.5v15z" stroke="#1071e5" stroke-width="2" fill="#1071e5"/><path d="M-2557.87 1952.22a6 6 0 0 1 6-6h170.25a6 6 0 0 1 6 6v16.83a6 6 0 0 1-6 6h-170.25a6 6 0 0 1-6-6z" fill="none"/><use xlink:href="#B" transform="matrix(1,0,0,1,-2552.874333608681,1951.2171933355003) translate(0 15.158637152777779)"/><use xlink:href="#C" transform="matrix(1,0,0,1,-2552.874333608681,1951.2171933355003) translate(31.399739583333336 15.158637152777779)"/><use xlink:href="#D" transform="matrix(1,0,0,1,-2552.874333608681,1951.2171933355003) translate(45.64127604166667 15.158637152777779)"/><use xlink:href="#E" transform="matrix(1,0,0,1,-2552.874333608681,1951.2171933355003) translate(90.55338541666667 15.158637152777779)"/><path d="M-2328.92 1960.63h-30.7" stroke="#1071e5" stroke-width="2" stroke-linejoin="round" fill="none"/><path d="M-2327.92 1961.6h-1.03v-1.94h1.03z" stroke="#1071e5" stroke-width=".05" fill="#1071e5"/><path d="M-2373.62 1960.63l13-7.5v15z" stroke="#1071e5" stroke-width="2" fill="#1071e5"/><path d="M-2251.24 2085.3a6 6 0 0 1 6-6h28.58a6 6 0 0 1 6 6v24.9a6 6 0 0 1-6 6h-28.58a6 6 0 0 1-6-6z" fill="none"/><use xlink:href="#F" transform="matrix(1,0,0,1,-2246.2389511389542,2084.2911612343864) translate(0 21.58376736111111)"/><path d="M-2557.87 2109.54a6 6 0 0 1 6-6h97.13a6 6 0 0 1 6 6v16.83a6 6 0 0 1-6 6h-97.13a6 6 0 0 1-6-6z" fill="none"/><use xlink:href="#G" transform="matrix(1,0,0,1,-2552.874333608681,2108.5392504323336) translate(0 15.158637152777779)"/><use xlink:href="#H" transform="matrix(1,0,0,1,-2552.874333608681,2108.5392504323336) translate(65.48828125000001 15.158637152777779)"/><path d="M-2399.2 2109.54a6 6 0 0 1 6-6h86.42a6 6 0 0 1 6 6v16.83a6 6 0 0 1-6 6h-86.4a6 6 0 0 1-6-6z" fill="none"/><use xlink:href="#I" transform="matrix(1,0,0,1,-2394.194229179373,2108.5392504323336) translate(0 15.158637152777779)"/><use xlink:href="#J" transform="matrix(1,0,0,1,-2394.194229179373,2108.5392504323336) translate(54.4064670138889 15.158637152777779)"/><path d="M-2447.74 2117.95h32.55" stroke="#1071e5" stroke-width="2" stroke-linejoin="round" fill="none"/><path d="M-2447.7 2118.93h-1.04v-1.95h1.03z" stroke="#1071e5" stroke-width=".05" fill="#1071e5"/><path d="M-2401.2 2117.95l-13 7.5v-15z" stroke="#1071e5" stroke-width="2" fill="#1071e5"/><path d="M-2534.34 2173a6 6 0 0 1 6-6h186.8a6 6 0 0 1 6 6v16.84a6 6 0 0 1-6 6h-186.8a6 6 0 0 1-6-6z" fill="none"/><use xlink:href="#K" transform="matrix(1,0,0,1,-2529.3407586485782,2172.012916162731) translate(0 15.158637152777779)"/><use xlink:href="#L" transform="matrix(1,0,0,1,-2529.3407586485782,2172.012916162731) translate(30.67816840277778 15.158637152777779)"/><use xlink:href="#x" transform="matrix(1,0,0,1,-2529.3407586485782,2172.012916162731) translate(92.53580729166669 15.158637152777779)"/><use xlink:href="#y" transform="matrix(1,0,0,1,-2529.3407586485782,2172.012916162731) translate(106.77734375000001 15.158637152777779)"/><use xlink:href="#z" transform="matrix(1,0,0,1,-2529.3407586485782,2172.012916162731) translate(146.0763888888889 15.158637152777779)"/><path d="M-2585.4 1849.9a6 6 0 0 0-6-6h-26.3a6 6 0 0 0-6 6v119.15a6 6 0 0 0 6 6h26.3a6 6 0 0 0 6-6z" fill="none"/><path d="M-2585.4 1975.05c-5.5 0-10-4.48-10-10v-45.58c0-5.52-4.46-10-10-10 5.54 0 10-4.48 10-10v-45.58c0-5.53 4.5-10 10-10" fill="none"/><path d="M-2585.4 1975.05c-5.5 0-10-4.48-10-10v-7.6m0-7.6v-15.2m0-7.58v-7.6c0-5.52-4.46-10-10-10 5.54 0 10-4.48 10-10v-7.6m0-7.6v-15.18m0-7.6v-7.6c0-5.53 4.5-10 10-10" stroke="#979ea8" stroke-width="2" fill="none"/><path d="M-2665.8 1901.06a6 6 0 0 1 6-6h40.08a6 6 0 0 1 6 6v16.83a6 6 0 0 1-6 6h-40.07a6 6 0 0 1-6-6z" fill="none"/><use xlink:href="#M" transform="matrix(1,0,0,1,-2660.790662440534,1900.054601311802) translate(0 15.158637152777779)"/><path d="M-2909.92 1877.6a6 6 0 0 1 6-6h214.4a6 6 0 0 1 6 6v16.84a6 6 0 0 1-6 6h-214.4a6 6 0 0 1-6-6z" fill="none"/><use xlink:href="#v" transform="matrix(1,0,0,1,-2904.9189933110124,1876.6093667000478) translate(0 15.158637152777779)"/><use xlink:href="#w" transform="matrix(1,0,0,1,-2904.9189933110124,1876.6093667000478) translate(34.460720486111114 15.158637152777779)"/><use xlink:href="#x" transform="matrix(1,0,0,1,-2904.9189933110124,1876.6093667000478) translate(61.318359375 15.158637152777779)"/><use xlink:href="#y" transform="matrix(1,0,0,1,-2904.9189933110124,1876.6093667000478) translate(75.55989583333333 15.158637152777779)"/><use xlink:href="#N" transform="matrix(1,0,0,1,-2904.9189933110124,1876.6093667000478) translate(114.85894097222221 15.158637152777779)"/><use xlink:href="#O" transform="matrix(1,0,0,1,-2904.9189933110124,1876.6093667000478) translate(161.25217013888889 15.158637152777779)"/><path d="M-2666.8 1909.47h-10.4m-10.4 0h-20.8m-10.4 0h-20.82m-10.4 0h-20.8m-10.42 0h-20.8m-10.4 0h-20.82m-10.4 0h-20.8m-10.4 0h-20.82m-10.4 0h-10.4" stroke="#1071e5" stroke-width="2" stroke-linejoin="round" fill="none"/><path d="M-2665.8 1910.44h-1.02v-1.95h1.03z" stroke="#1071e5" stroke-width=".05" fill="#1071e5"/><path d="M-2930.48 1909.47l13-7.5v15z" stroke="#1071e5" stroke-width="2" fill="#1071e5"/><path d="M-2585.4 2099.78a6 6 0 0 0-6-6h-26.3a6 6 0 0 0-6 6v119.16a6 6 0 0 0 6 6h26.3a6 6 0 0 0 6-6z" fill="none"/><path d="M-2585.4 2224.94c-5.5 0-10-4.47-10-10v-45.58c0-5.52-4.46-10-10-10 5.54 0 10-4.47 10-10v-45.58c0-5.52 4.5-10 10-10" fill="none"/><path d="M-2585.4 2224.94c-5.5 0-10-4.47-10-10v-7.6m0-7.6v-15.18m0-7.6v-7.6c0-5.52-4.46-10-10-10 5.54 0 10-4.47 10-10v-7.6m0-7.6V2119m0-7.6v-7.6c0-5.52 4.5-10 10-10" stroke="#979ea8" stroke-width="2" fill="none"/><path d="M-2680.8 2150.95a6 6 0 0 1 6-6h55.08a6 6 0 0 1 6 6v16.83a6 6 0 0 1-6 6h-55.1a6 6 0 0 1-6-6z" fill="none"/><g><use xlink:href="#P" transform="matrix(1,0,0,1,-2675.814533968312,2149.9480854612075) translate(0 15.158637152777779)"/><use xlink:href="#Q" transform="matrix(1,0,0,1,-2675.814533968312,2149.9480854612075) translate(37.59765625 15.158637152777779)"/></g><path d="M-2933.48 2122.2a6 6 0 0 1 6-6h247.97a6 6 0 0 1 6 6V2139a6 6 0 0 1-6 6h-247.98a6 6 0 0 1-6-6z" fill="none"/><g><use xlink:href="#K" transform="matrix(1,0,0,1,-2928.4773221470955,2121.1891820677192) translate(0 15.158637152777779)"/><use xlink:href="#R" transform="matrix(1,0,0,1,-2928.4773221470955,2121.1891820677192) translate(30.67816840277778 15.158637152777779)"/><use xlink:href="#x" transform="matrix(1,0,0,1,-2928.4773221470955,2121.1891820677192) translate(94.89040798611111 15.158637152777779)"/><use xlink:href="#y" transform="matrix(1,0,0,1,-2928.4773221470955,2121.1891820677192) translate(109.13194444444444 15.158637152777779)"/><use xlink:href="#N" transform="matrix(1,0,0,1,-2928.4773221470955,2121.1891820677192) translate(148.43098958333331 15.158637152777779)"/><use xlink:href="#S" transform="matrix(1,0,0,1,-2928.4773221470955,2121.1891820677192) translate(194.82421875 15.158637152777779)"/></g><path d="M-2681.82 2159.36h-9.78m-9.77 0h-19.56m-9.78 0h-19.56m-9.78 0h-19.56m-9.78 0h-19.55m-9.78 0h-19.56m-9.78 0h-19.56m-9.78 0h-19.55m-9.78 0h-9.8" stroke="#1071e5" stroke-width="2" stroke-linejoin="round" fill="none"/><path d="M-2680.8 2160.34h-1.04v-1.95h1.03z" stroke="#1071e5" stroke-width=".05" fill="#1071e5"/><path d="M-2930.48 2159.36l13-7.5v15z" stroke="#1071e5" stroke-width="2" fill="#1071e5"/><path d="M-2975.48 2056h-10.18m-10.17 0h-20.35m-10.17 0h-20.35m-10.18 0h-20.35m-10.17 0h-20.35m-10.17 0h-20.35m-10.18 0h-20.35m-10.17 0h-20.35m-10.17 0h-20.34m-10.18 0h-10.17" stroke="#1071e5" stroke-width="2" stroke-linejoin="round" fill="none"/><path d="M-2974.48 2057h-1.03v-1.96h1.02z" stroke="#1071e5" stroke-width=".05" fill="#1071e5"/><path d="M-3264.18 2056l13-7.5v15z" stroke="#1071e5" stroke-width="2" fill="#1071e5"/><g><use xlink:href="#T" transform="matrix(1,0,0,1,-3154.9856305240514,2060.0143810986547) translate(0 15.069444444444446)"/></g><path d="M-3173.56 2024.82a6 6 0 0 1 6-6h104.85a6 6 0 0 1 6 6v16.83a6 6 0 0 1-6 6h-104.86a6 6 0 0 1-6-6z" fill="none"/><g><use xlink:href="#U" transform="matrix(1,0,0,1,-3168.5621791294234,2023.8227670604765) translate(0 15.158637152777779)"/><use xlink:href="#V" transform="matrix(1,0,0,1,-3168.5621791294234,2023.8227670604765) translate(59.396701388888886 15.158637152777779)"/><use xlink:href="#W" transform="matrix(1,0,0,1,-3168.5621791294234,2023.8227670604765) translate(69.11892361111111 15.158637152777779)"/></g><path d="M-2827.36 1923.4a6 6 0 0 1 6-6h35.73a6 6 0 0 1 6 6v16.82a6 6 0 0 1-6 6h-35.73a6 6 0 0 1-6-6z" fill="none"/><g><use xlink:href="#X" transform="matrix(1,0,0,1,-2822.3645834318177,1922.385578752167) translate(0 15.158637152777779)"/></g><path d="M-2831 2173a6 6 0 0 1 6-6h35.72a6 6 0 0 1 6 6v16.84a6 6 0 0 1-6 6H-2825a6 6 0 0 1-6-6z" fill="none"/><g><use xlink:href="#X" transform="matrix(1,0,0,1,-2826.014317814648,2172.012916162731) translate(0 15.158637152777779)"/></g><defs><path d="M657 26c-323 0-524-166-541-416h195c15 169 171 246 346 246 202 0 356-106 356-265 5-203-294-238-475-293-239-73-380-191-380-389 0-252 224-419 512-419 294 0 499 171 508 396H992c-17-145-151-228-328-228-193 0-321 102-321 242 0 156 175 211 284 241l149 41c160 44 422 134 422 412 0 244-197 432-541 432" id="Y"/><path d="M158 0v-1118h180V0H158zm91-1301c-68 0-125-53-125-119s57-119 125-119c69 0 126 53 126 119s-57 119-126 119" id="Z"/><path d="M611 442c-248 0-391-105-460-228l146-94c47 65 117 165 314 165 178 0 307-82 307-266v-224h-17C863-141 792-18 576-18c-268 0-472-195-472-546 0-346 197-568 476-568 216 0 288 133 326 193h17v-179h175V29c0 289-215 413-487 413zm-5-620c203 0 314-146 314-390 0-237-108-403-314-403-213 0-319 180-319 403 0 230 109 390 319 390" id="aa"/><path d="M338-670V0H158v-1118h173l1 207c72-158 192-221 342-221 226 0 378 139 378 422V0H872v-695c0-172-96-275-252-275-161 0-282 109-282 300" id="ab"/><g id="a"><use transform="matrix(0.015190972222222222,0,0,0.015190972222222222,0,0)" xlink:href="#Y"/><use transform="matrix(0.015190972222222222,0,0,0.015190972222222222,19.9609375,0)" xlink:href="#Z"/><use transform="matrix(0.015190972222222222,0,0,0.015190972222222222,27.49565972222222,0)" xlink:href="#aa"/><use transform="matrix(0.015190972222222222,0,0,0.015190972222222222,46.57552083333333,0)" xlink:href="#ab"/></g><path d="M537 14c-226 0-379-139-379-422v-710h180v695c0 172 97 275 253 275 160 0 281-109 281-300v-670h181V0H879v-209C806-46 684 14 537 14" id="ac"/><path d="M158 418v-1536h174v179h20c37-59 106-193 324-193 279 0 474 222 474 576 0 356-194 580-473 580-213 0-288-135-325-197h-14v591H158zm492-555c209 0 317-186 317-421 0-232-105-413-317-413-206 0-314 166-314 413 0 249 111 421 314 421" id="ad"/><path d="M692-1560L212 224H46l480-1784h166" id="ae"/><g id="b"><use transform="matrix(0.015190972222222222,0,0,0.015190972222222222,0,0)" xlink:href="#ac"/><use transform="matrix(0.015190972222222222,0,0,0.015190972222222222,18.39626736111111,0)" xlink:href="#ad"/><use transform="matrix(0.015190972222222222,0,0,0.015190972222222222,37.44574652777778,0)" xlink:href="#ae"/></g><path d="M180 0v-1490h190v1322h690V0H180" id="af"/><path d="M613 24c-304 0-509-231-509-576 0-350 205-580 509-580 305 0 511 230 511 580 0 345-206 576-511 576zm0-161c226 0 329-195 329-415 0-222-103-419-329-419-223 0-326 196-326 419 0 220 103 415 326 415" id="ag"/><g id="c"><use transform="matrix(0.015190972222222222,0,0,0.015190972222222222,0,0)" xlink:href="#af"/><use transform="matrix(0.015190972222222222,0,0,0.015190972222222222,17.591145833333332,0)" xlink:href="#ag"/><use transform="matrix(0.015190972222222222,0,0,0.015190972222222222,36.24565972222222,0)" xlink:href="#aa"/><use transform="matrix(0.015190972222222222,0,0,0.015190972222222222,55.32552083333333,0)" xlink:href="#Z"/><use transform="matrix(0.015190972222222222,0,0,0.015190972222222222,62.86024305555556,0)" xlink:href="#ab"/></g><path d="M52 0l541-1490h220L1361 0h-200l-149-416H398L254 0H52zm404-582h497c-103-290-145-390-251-756-108 377-145 460-246 756" id="ah"/><path d="M598-1118v154H368v674c0 100 37 144 132 144 23 0 62-6 92-12L629-6c-37 13-88 20-134 20-193 0-307-107-307-290v-688H20v-154h168v-266h180v266h230" id="ai"/><path d="M338-670V0H158v-1490h180v566c73-149 190-208 336-208 226 0 379 139 379 422V0H872v-695c0-172-96-275-252-275-161 0-282 109-282 300" id="aj"/><path d="M783 20c-382 0-661-292-661-764 0-473 279-766 661-766 302 0 548 182 601 489h-190c-42-204-217-313-411-313-268 0-476 208-476 590 0 381 209 588 476 588 195 0 369-110 411-313h190c-52 303-296 489-601 489" id="ak"/><path d="M158 0v-1118h174v172h12c41-113 157-188 290-188 26 0 70 2 91 3v181c-11-2-60-10-108-10-161 0-279 109-279 260V0H158" id="al"/><path d="M338-1490V0H158v-1490h180" id="am"/><path d="M628 24c-324 0-524-230-524-574 0-343 198-582 503-582 237 0 487 146 487 559v75H286c9 234 145 362 343 362 132 0 231-58 273-172l174 48C1024-91 857 24 628 24zM287-650h624c-17-190-120-322-304-322-192 0-309 151-320 322" id="an"/><g id="d"><use transform="matrix(0.008072916666666667,0,0,0.008072916666666667,0,0)" xlink:href="#ah"/><use transform="matrix(0.008072916666666667,0,0,0.008072916666666667,11.407031250000001,0)" xlink:href="#ac"/><use transform="matrix(0.008072916666666667,0,0,0.008072916666666667,21.183333333333337,0)" xlink:href="#ai"/><use transform="matrix(0.008072916666666667,0,0,0.008072916666666667,26.592187500000005,0)" xlink:href="#aj"/><use transform="matrix(0.008072916666666667,0,0,0.008072916666666667,36.36848958333334,0)" xlink:href="#ak"/><use transform="matrix(0.008072916666666667,0,0,0.008072916666666667,48.44557291666668,0)" xlink:href="#ag"/><use transform="matrix(0.008072916666666667,0,0,0.008072916666666667,58.359114583333344,0)" xlink:href="#ab"/><use transform="matrix(0.008072916666666667,0,0,0.008072916666666667,68.12734375000001,0)" xlink:href="#ai"/><use transform="matrix(0.008072916666666667,0,0,0.008072916666666667,73.53619791666668,0)" xlink:href="#al"/><use transform="matrix(0.008072916666666667,0,0,0.008072916666666667,79.48593750000002,0)" xlink:href="#ag"/><use transform="matrix(0.008072916666666667,0,0,0.008072916666666667,89.39947916666668,0)" xlink:href="#am"/><use transform="matrix(0.008072916666666667,0,0,0.008072916666666667,93.40364583333334,0)" xlink:href="#am"/><use transform="matrix(0.008072916666666667,0,0,0.008072916666666667,97.4078125,0)" xlink:href="#an"/><use transform="matrix(0.008072916666666667,0,0,0.008072916666666667,107.046875,0)" xlink:href="#al"/></g><path d="M645 0H180v-1490h484c435 0 692 280 692 742 0 466-257 748-711 748zM370-168h263c363 0 539-218 539-580 0-358-176-574-521-574H370v1154" id="ao"/><path d="M471 26C259 26 90-98 90-318c0-256 228-303 435-329 202-27 287-16 287-108 0-139-79-219-234-219-161 0-248 86-283 164l-173-57c86-203 278-265 451-265 150 0 419 46 419 395V0H815v-152h-12C765-73 660 26 471 26zm31-159c199 0 310-134 310-271v-155c-30 35-226 55-295 64-131 17-246 59-246 186 0 116 97 176 231 176" id="ap"/><path d="M677 24c-213 0-288-135-325-197h-20V0H158v-1490h180v551h14c37-59 106-193 324-193 279 0 474 222 474 576 0 356-194 580-473 580zm-27-161c209 0 317-186 317-421 0-232-105-413-317-413-206 0-314 166-314 413 0 249 111 421 314 421" id="aq"/><path d="M538 24C308 24 148-78 108-271l171-41c32 123 123 178 257 178 156 0 256-77 256-169 0-77-54-128-164-154l-186-44c-203-48-300-148-300-305 0-192 176-326 414-326 230 0 351 112 402 269l-163 42c-31-80-94-158-238-158-133 0-233 69-233 162 0 83 57 129 188 160l169 40c203 48 298 149 298 302 0 196-179 339-441 339" id="ar"/><g id="e"><use transform="matrix(0.008072916666666667,0,0,0.008072916666666667,0,0)" xlink:href="#ao"/><use transform="matrix(0.008072916666666667,0,0,0.008072916666666667,11.931770833333335,0)" xlink:href="#ap"/><use transform="matrix(0.008072916666666667,0,0,0.008072916666666667,21.215625000000003,0)" xlink:href="#ai"/><use transform="matrix(0.008072916666666667,0,0,0.008072916666666667,26.70520833333334,0)" xlink:href="#ap"/><use transform="matrix(0.008072916666666667,0,0,0.008072916666666667,35.9890625,0)" xlink:href="#aq"/><use transform="matrix(0.008072916666666667,0,0,0.008072916666666667,46.27395833333334,0)" xlink:href="#ap"/><use transform="matrix(0.008072916666666667,0,0,0.008072916666666667,55.55781250000001,0)" xlink:href="#ar"/><use transform="matrix(0.008072916666666667,0,0,0.008072916666666667,64.28463541666667,0)" xlink:href="#an"/></g><path d="M763 24c-353 0-583-224-583-531v-983h190v968c0 214 149 370 393 370 243 0 391-156 391-370v-968h190v983c0 307-230 531-581 531" id="as"/><g id="f"><use transform="matrix(0.008072916666666667,0,0,0.008072916666666667,0,0)" xlink:href="#as"/><use transform="matrix(0.008072916666666667,0,0,0.008072916666666667,12.303125000000001,0)" xlink:href="#ar"/><use transform="matrix(0.008072916666666667,0,0,0.008072916666666667,21.02994791666667,0)" xlink:href="#an"/><use transform="matrix(0.008072916666666667,0,0,0.008072916666666667,30.669010416666673,0)" xlink:href="#al"/></g><path d="M370-1490V0H180v-1490h190" id="at"/><g id="g"><use transform="matrix(0.008072916666666667,0,0,0.008072916666666667,0,0)" xlink:href="#as"/><use transform="matrix(0.008072916666666667,0,0,0.008072916666666667,12.303125000000001,0)" xlink:href="#at"/></g><path d="M135 0v-1490h581c339 0 533 210 533 503 0 295-197 500-540 500H440V0H135zm305-733h220c186 0 274-104 274-254s-88-251-275-251H440v505" id="au"/><path d="M789 20C394 20 94-260 94-744c0-487 300-766 695-766s695 279 695 766c0 485-300 764-695 764zm0-271c231 0 385-174 385-493 0-321-154-495-385-495s-385 175-385 495c0 319 154 493 385 493" id="av"/><path d="M681 22C323 22 94-145 85-462h297c10 151 131 226 296 226 163 0 271-77 271-190 0-102-95-149-257-189l-164-41c-252-61-403-188-403-405 0-269 236-449 560-449 330 0 546 183 551 445H941c-11-119-106-188-259-188-156 0-244 72-244 172-3 156 226 185 373 221 250 61 445 186 445 436 0 271-213 446-575 446" id="aw"/><path d="M75-1237v-253h1217v253H837V0H531v-1237H75" id="ax"/><g id="h"><use transform="matrix(0.007595486111111112,0,0,0.007595486111111112,0,0)" xlink:href="#au"/><use transform="matrix(0.007595486111111112,0,0,0.007595486111111112,10.079210069444445,0)" xlink:href="#av"/><use transform="matrix(0.007595486111111112,0,0,0.007595486111111112,22.06488715277778,0)" xlink:href="#aw"/><use transform="matrix(0.007595486111111112,0,0,0.007595486111111112,32.25043402777778,0)" xlink:href="#ax"/></g><path d="M768-1560L288 224H28l480-1784h260" id="ay"/><path d="M572 22C302 22 117-98 78-306l279-48c29 105 101 156 224 156 114 0 185-48 185-115 0-118-228-130-337-155-215-49-322-150-322-317 0-215 187-347 470-347 265 0 424 116 466 298l-266 47c-24-76-87-130-196-130-98 0-174 46-174 113 0 56 38 95 144 117l201 40c216 44 320 143 320 302 0 220-207 367-500 367" id="az"/><path d="M128 0v-1118h300V0H128zm150-1264c-91 0-165-68-165-154 0-85 74-154 165-154 90 0 165 69 165 154 0 86-75 154-165 154" id="aA"/><path d="M625 442c-280 0-454-114-503-274l258-72c28 63 97 128 243 128 153 0 246-69 246-216v-206h-23C805-108 717-16 536-16 284-16 81-191 81-561c0-378 208-571 456-571 188 0 280 113 321 202h13v-188h295V-9c0 303-226 451-541 451zm5-686c153 0 240-119 240-319 0-198-86-329-240-329-158 0-241 137-241 329 0 195 85 319 241 319" id="aB"/><path d="M428-647V0H128v-1118h283l4 231c63-156 176-245 348-245 232 0 384 159 384 421V0H847v-659c0-139-76-222-202-222-128 0-217 86-217 234" id="aC"/><path d="M513 14c-232 0-385-159-385-421v-711h300v659c0 139 76 222 202 222 127 0 217-86 217-234v-647h301V0H864l-4-232C797-74 683 14 513 14" id="aD"/><path d="M128 418v-1536h295v188h14c41-89 129-202 319-202 248 0 453 193 453 575 0 372-197 576-455 576-183 0-275-108-317-198h-9v597H128zm534-640c156 0 240-139 240-336 0-196-83-334-240-334-154 0-241 131-241 334 0 202 88 336 241 336" id="aE"/><path d="M975 0v231H0V0h975" id="aF"/><path d="M428-1490V0H128v-1490h300" id="aG"/><path d="M628 22C291 22 81-210 81-554c0-346 210-578 547-578 336 0 547 232 547 578 0 344-211 576-547 576zm0-236c160 0 242-146 242-341 0-197-82-341-242-341S387-753 387-555c0 195 81 341 241 341" id="aH"/><g id="i"><use transform="matrix(0.007595486111111112,0,0,0.007595486111111112,0,0)" xlink:href="#ay"/><use transform="matrix(0.007595486111111112,0,0,0.007595486111111112,6.038411458333334,0)" xlink:href="#az"/><use transform="matrix(0.007595486111111112,0,0,0.007595486111111112,14.750434027777779,0)" xlink:href="#aA"/><use transform="matrix(0.007595486111111112,0,0,0.007595486111111112,18.965928819444446,0)" xlink:href="#aB"/><use transform="matrix(0.007595486111111112,0,0,0.007595486111111112,28.794487847222225,0)" xlink:href="#aC"/><use transform="matrix(0.007595486111111112,0,0,0.007595486111111112,38.47873263888889,0)" xlink:href="#aD"/><use transform="matrix(0.007595486111111112,0,0,0.007595486111111112,48.16297743055556,0)" xlink:href="#aE"/><use transform="matrix(0.007595486111111112,0,0,0.007595486111111112,57.96875,0)" xlink:href="#aF"/><use transform="matrix(0.007595486111111112,0,0,0.007595486111111112,65.8984375,0)" xlink:href="#aG"/><use transform="matrix(0.007595486111111112,0,0,0.007595486111111112,70.11393229166667,0)" xlink:href="#aH"/><use transform="matrix(0.007595486111111112,0,0,0.007595486111111112,79.65386284722223,0)" xlink:href="#aB"/><use transform="matrix(0.007595486111111112,0,0,0.007595486111111112,89.482421875,0)" xlink:href="#aA"/><use transform="matrix(0.007595486111111112,0,0,0.007595486111111112,93.69791666666667,0)" xlink:href="#aC"/></g><path d="M786 20C389 20 94-260 94-744c0-487 299-766 692-766 339 0 597 194 641 529h-309c-28-162-156-258-326-258-233 0-388 179-388 495 0 323 157 493 387 493 170 0 298-97 328-259h309c-34 277-266 530-642 530" id="aI"/><path d="M628 22C291 22 81-210 81-554c0-346 210-578 547-578 265 0 455 142 497 372l-279 52c-25-116-99-188-215-188-160 0-244 139-244 341 0 200 84 341 244 341 116 0 193-74 217-195l279 51C1085-123 896 22 628 22" id="aJ"/><path d="M128 0v-1490h300v802h17l366-430h347L740-633 1179 0H826L514-456l-86 97V0H128" id="aK"/><g id="j"><use transform="matrix(0.008072916666666667,0,0,0.008072916666666667,0,0)" xlink:href="#aI"/><use transform="matrix(0.008072916666666667,0,0,0.008072916666666667,12.230468750000002,0)" xlink:href="#aG"/><use transform="matrix(0.008072916666666667,0,0,0.008072916666666667,16.710937500000007,0)" xlink:href="#aA"/><use transform="matrix(0.008072916666666667,0,0,0.008072916666666667,21.191406250000004,0)" xlink:href="#aJ"/><use transform="matrix(0.008072916666666667,0,0,0.008072916666666667,30.919270833333336,0)" xlink:href="#aK"/></g><path d="M135 0v-1490h305v1237h643V0H135" id="aL"/><g id="k"><use transform="matrix(0.008072916666666667,0,0,0.008072916666666667,0,0)" xlink:href="#aL"/><use transform="matrix(0.008072916666666667,0,0,0.008072916666666667,9.348437500000001,0)" xlink:href="#aH"/><use transform="matrix(0.008072916666666667,0,0,0.008072916666666667,19.488020833333334,0)" xlink:href="#aB"/><use transform="matrix(0.008072916666666667,0,0,0.008072916666666667,29.934375000000003,0)" xlink:href="#aA"/><use transform="matrix(0.008072916666666667,0,0,0.008072916666666667,34.41484375,0)" xlink:href="#aC"/><use transform="matrix(0.008072916666666667,0,0,0.008072916666666667,44.7078125,0)" xlink:href="#ay"/></g><g id="l"><use transform="matrix(0.008072916666666667,0,0,0.008072916666666667,0,0)" xlink:href="#aw"/><use transform="matrix(0.008072916666666667,0,0,0.008072916666666667,10.82578125,0)" xlink:href="#aA"/><use transform="matrix(0.008072916666666667,0,0,0.008072916666666667,15.306250000000002,0)" xlink:href="#aB"/><use transform="matrix(0.008072916666666667,0,0,0.008072916666666667,25.75260416666667,0)" xlink:href="#aC"/></g><g id="m"><use transform="matrix(0.008072916666666667,0,0,0.008072916666666667,0,0)" xlink:href="#aD"/><use transform="matrix(0.008072916666666667,0,0,0.008072916666666667,10.292968750000002,0)" xlink:href="#aE"/></g><path d="M428-647V0H128v-1490h294v586c65-146 175-228 341-228 232 0 385 159 385 421V0H847v-659c0-139-76-222-202-222-128 0-217 86-217 234" id="aM"/><path d="M633 22C291 22 81-200 81-553c0-345 210-579 537-579 292 0 525 185 525 567v84H378c7 183 109 277 260 277 105 0 184-46 216-132l272 51C1071-99 893 22 633 22zM380-669h474c-15-146-94-237-233-237-143 0-229 99-241 237" id="aN"/><g id="n"><use transform="matrix(0.007595486111111112,0,0,0.007595486111111112,0,0)" xlink:href="#aI"/><use transform="matrix(0.007595486111111112,0,0,0.007595486111111112,11.507161458333334,0)" xlink:href="#aM"/><use transform="matrix(0.007595486111111112,0,0,0.007595486111111112,21.19140625,0)" xlink:href="#aN"/><use transform="matrix(0.007595486111111112,0,0,0.007595486111111112,30.457899305555557,0)" xlink:href="#aJ"/><use transform="matrix(0.007595486111111112,0,0,0.007595486111111112,39.61046006944444,0)" xlink:href="#aK"/></g><path d="M750-1118v229H516V0H217v-889H20v-229h197v-86c0-238 156-356 363-356 94 0 178 20 215 31l-54 226c-25-7-61-15-100-15-123-3-131 84-125 200h234" id="aO"/><g id="o"><use transform="matrix(0.007595486111111112,0,0,0.007595486111111112,0,0)" xlink:href="#aA"/><use transform="matrix(0.007595486111111112,0,0,0.007595486111111112,4.215494791666667,0)" xlink:href="#aO"/></g><path d="M128 0v-1118h290v195h12c54-169 184-238 367-200v268c-27-8-86-15-130-15-138 0-239 95-239 234V0H128" id="aP"/><g id="p"><use transform="matrix(0.007595486111111112,0,0,0.007595486111111112,0,0)" xlink:href="#aD"/><use transform="matrix(0.007595486111111112,0,0,0.007595486111111112,9.684244791666668,0)" xlink:href="#az"/><use transform="matrix(0.007595486111111112,0,0,0.007595486111111112,18.396267361111114,0)" xlink:href="#aN"/><use transform="matrix(0.007595486111111112,0,0,0.007595486111111112,27.66276041666667,0)" xlink:href="#aP"/></g><path d="M42 0l360-574-338-544h324c72 124 151 261 209 394 58-134 140-271 215-394h318L785-570 1146 0H824c-79-136-169-280-234-425C528-278 439-134 360 0H42" id="aQ"/><path d="M683-1118v229H474v562c0 71 29 104 102 104 23 0 73-7 95-13l43 225C647 9 580 16 520 16 296 16 174-96 174-301v-588H20v-229h154v-266h300v266h209" id="aR"/><g id="q"><use transform="matrix(0.007595486111111112,0,0,0.007595486111111112,0,0)" xlink:href="#aN"/><use transform="matrix(0.007595486111111112,0,0,0.007595486111111112,8.955078125000002,0)" xlink:href="#aQ"/><use transform="matrix(0.007595486111111112,0,0,0.007595486111111112,17.978515625000004,0)" xlink:href="#aA"/><use transform="matrix(0.007595486111111112,0,0,0.007595486111111112,22.19401041666667,0)" xlink:href="#az"/><use transform="matrix(0.007595486111111112,0,0,0.007595486111111112,30.906032986111114,0)" xlink:href="#aR"/><use transform="matrix(0.007595486111111112,0,0,0.007595486111111112,36.48871527777778,0)" xlink:href="#az"/></g><path fill="#008a0e" d="M600 0v-610L52-1490h220l295 481c50 82 90 150 130 243 40-96 80-164 128-243l294-481h219L790-610V0H600" id="aS"/><path fill="#008a0e" d="M628 24c-324 0-524-230-524-574 0-343 198-582 503-582 237 0 487 146 487 559v75H286c9 234 145 362 343 362 132 0 231-58 273-172l174 48C1024-91 857 24 628 24zM287-650h624c-17-190-120-322-304-322-192 0-309 151-320 322" id="aT"/><path fill="#008a0e" d="M538 24C308 24 148-78 108-271l171-41c32 123 123 178 257 178 156 0 256-77 256-169 0-77-54-128-164-154l-186-44c-203-48-300-148-300-305 0-192 176-326 414-326 230 0 351 112 402 269l-163 42c-31-80-94-158-238-158-133 0-233 69-233 162 0 83 57 129 188 160l169 40c203 48 298 149 298 302 0 196-179 339-441 339" id="aU"/><g id="r"><use transform="matrix(0.010850694444444444,0,0,0.010850694444444444,0,0)" xlink:href="#aS"/><use transform="matrix(0.010850694444444444,0,0,0.010850694444444444,13.37890625,0)" xlink:href="#aT"/><use transform="matrix(0.010850694444444444,0,0,0.010850694444444444,26.334635416666664,0)" xlink:href="#aU"/></g><path d="M440 22C227 22 68-92 68-313c0-250 202-322 422-343 195-21 271-24 271-105 0-95-63-149-175-149-116 0-187 57-211 129l-275-46c57-194 237-305 487-305 240 0 474 108 474 379V0H777v-155h-10C713-51 605 22 440 22zm85-211c140 0 238-93 238-211v-121c-37 26-156 42-222 51-111 16-185 59-185 149 0 87 70 132 169 132" id="aV"/><path d="M361 0L31-1118h315c68 295 127 523 188 845 63-317 128-551 199-845h276c71 296 131 525 196 846 57-321 119-552 186-846h319L1378 0h-305c-73-261-148-486-204-771C813-484 740-261 666 0H361" id="aW"/><path d="M537 19C279 19 81-185 81-557c0-382 206-575 454-575 190 0 278 113 318 202h10v-560h300V0H868v-179h-15C812-89 719 19 537 19zm92-241c153 0 240-134 240-336 0-203-86-334-240-334-158 0-240 138-240 334 0 197 84 336 240 336" id="aX"/><g id="s"><use transform="matrix(0.007595486111111112,0,0,0.007595486111111112,0,0)" xlink:href="#aE"/><use transform="matrix(0.007595486111111112,0,0,0.007595486111111112,9.957682291666666,0)" xlink:href="#aV"/><use transform="matrix(0.007595486111111112,0,0,0.007595486111111112,18.98871527777778,0)" xlink:href="#az"/><use transform="matrix(0.007595486111111112,0,0,0.007595486111111112,27.70073784722222,0)" xlink:href="#az"/><use transform="matrix(0.007595486111111112,0,0,0.007595486111111112,36.412760416666664,0)" xlink:href="#aW"/><use transform="matrix(0.007595486111111112,0,0,0.007595486111111112,49.423828125,0)" xlink:href="#aH"/><use transform="matrix(0.007595486111111112,0,0,0.007595486111111112,58.96375868055556,0)" xlink:href="#aP"/><use transform="matrix(0.007595486111111112,0,0,0.007595486111111112,64.91861979166667,0)" xlink:href="#aX"/></g><path d="M169-607c0-330 107-732 258-974h279c-145 311-231 674-231 974 0 262 67 512 231 886H427C258-1 169-307 169-607" id="aY"/><path d="M67 279c166-379 230-627 230-886 0-300-86-663-230-974h278c151 241 258 644 258 974 0 302-90 608-258 886H67" id="aZ"/><g id="t"><use transform="matrix(0.007595486111111112,0,0,0.007595486111111112,0,0)" xlink:href="#aY"/><use transform="matrix(0.007595486111111112,0,0,0.007595486111111112,6.144748263888889,0)" xlink:href="#aM"/><use transform="matrix(0.007595486111111112,0,0,0.007595486111111112,15.828993055555557,0)" xlink:href="#aV"/><use transform="matrix(0.007595486111111112,0,0,0.007595486111111112,24.86002604166667,0)" xlink:href="#az"/><use transform="matrix(0.007595486111111112,0,0,0.007595486111111112,33.572048611111114,0)" xlink:href="#aM"/><use transform="matrix(0.007595486111111112,0,0,0.007595486111111112,43.256293402777786,0)" xlink:href="#aN"/><use transform="matrix(0.007595486111111112,0,0,0.007595486111111112,52.52278645833334,0)" xlink:href="#aX"/><use transform="matrix(0.007595486111111112,0,0,0.007595486111111112,62.60959201388889,0)" xlink:href="#aZ"/></g><path fill="#008a0e" d="M786 20C389 20 94-260 94-744c0-487 299-766 692-766 339 0 597 194 641 529h-309c-28-162-156-258-326-258-233 0-388 179-388 495 0 323 157 493 387 493 170 0 298-97 328-259h309c-34 277-266 530-642 530" id="ba"/><path fill="#008a0e" d="M628 22C291 22 81-210 81-554c0-346 210-578 547-578 336 0 547 232 547 578 0 344-211 576-547 576zm0-236c160 0 242-146 242-341 0-197-82-341-242-341S387-753 387-555c0 195 81 341 241 341" id="bb"/><path fill="#008a0e" d="M128 0v-1118h290v195h12c54-169 184-238 367-200v268c-27-8-86-15-130-15-138 0-239 95-239 234V0H128" id="bc"/><path fill="#008a0e" d="M633 22C291 22 81-200 81-553c0-345 210-579 537-579 292 0 525 185 525 567v84H378c7 183 109 277 260 277 105 0 184-46 216-132l272 51C1071-99 893 22 633 22zM380-669h474c-15-146-94-237-233-237-143 0-229 99-241 237" id="bd"/><path fill="#008a0e" d="M628 22C291 22 81-210 81-554c0-346 210-578 547-578 265 0 455 142 497 372l-279 52c-25-116-99-188-215-188-160 0-244 139-244 341 0 200 84 341 244 341 116 0 193-74 217-195l279 51C1085-123 896 22 628 22" id="be"/><path fill="#008a0e" d="M683-1118v229H474v562c0 71 29 104 102 104 23 0 73-7 95-13l43 225C647 9 580 16 520 16 296 16 174-96 174-301v-588H20v-229h154v-266h300v266h209" id="bf"/><g id="u"><use transform="matrix(0.007595486111111112,0,0,0.007595486111111112,0,0)" xlink:href="#ba"/><use transform="matrix(0.007595486111111112,0,0,0.007595486111111112,11.507161458333334,0)" xlink:href="#bb"/><use transform="matrix(0.007595486111111112,0,0,0.007595486111111112,21.047092013888893,0)" xlink:href="#bc"/><use transform="matrix(0.007595486111111112,0,0,0.007595486111111112,27.49565972222223,0)" xlink:href="#bc"/><use transform="matrix(0.007595486111111112,0,0,0.007595486111111112,33.450520833333336,0)" xlink:href="#bd"/><use transform="matrix(0.007595486111111112,0,0,0.007595486111111112,42.71701388888889,0)" xlink:href="#be"/><use transform="matrix(0.007595486111111112,0,0,0.007595486111111112,51.869574652777786,0)" xlink:href="#bf"/></g><path fill="#008a0e" d="M124 0v-220l528-495c135-132 210-216 210-336 0-133-98-215-231-215-139 0-229 88-229 233H110c0-290 214-477 523-477 315 0 525 182 525 440 0 167-80 305-385 586L548-262v11h630V0H124" id="bg"/><path fill="#008a0e" d="M690 20C314 20 94-261 94-744c0-482 221-766 596-766 376 0 597 284 597 766 0 483-219 764-597 764zm0-253c184 0 286-184 286-511 0-328-102-514-286-514-183 0-285 187-285 514s101 511 285 511" id="bh"/><g id="v"><use transform="matrix(0.007595486111111112,0,0,0.007595486111111112,0,0)" xlink:href="#bg"/><use transform="matrix(0.007595486111111112,0,0,0.007595486111111112,9.798177083333334,0)" xlink:href="#bh"/><use transform="matrix(0.007595486111111112,0,0,0.007595486111111112,20.28754340277778,0)" xlink:href="#bh"/></g><path fill="#008a0e" d="M789 20C394 20 94-260 94-744c0-487 300-766 695-766s695 279 695 766c0 485-300 764-695 764zm0-271c231 0 385-174 385-493 0-321-154-495-385-495s-385 175-385 495c0 319 154 493 385 493" id="bi"/><path fill="#008a0e" d="M135 0v-1490h305c1 251 0 501-5 746 157-254 405-512 598-746h373L849-845 1422 0h-361L638-644 440-426V0H135" id="bj"/><g id="w"><use transform="matrix(0.007595486111111112,0,0,0.007595486111111112,0,0)" xlink:href="#bi"/><use transform="matrix(0.007595486111111112,0,0,0.007595486111111112,11.985677083333334,0)" xlink:href="#bj"/></g><path fill="#008a0e" d="M568-82v-393H183v-240h385v-393h254v393h386v240H822v393H568" id="bk"/><use transform="matrix(0.007595486111111112,0,0,0.007595486111111112,0,0)" xlink:href="#bk" id="x"/><path fill="#008a0e" d="M567 20C257 20 68-148 68-448v-87h305v92c0 143 75 217 194 217s193-74 193-218v-1046h302v1041c0 301-188 469-495 469" id="bl"/><path fill="#008a0e" d="M449 0L49-1490h333c89 395 194 758 253 1185 65-426 176-790 269-1185h317c93 394 201 758 268 1181 60-425 164-788 253-1181h334L1675 0h-348c-90-376-204-711-266-1118C1004-714 886-373 798 0H449" id="bm"/><path fill="#008a0e" d="M75-1237v-253h1217v253H837V0H531v-1237H75" id="bn"/><g id="y"><use transform="matrix(0.007595486111111112,0,0,0.007595486111111112,0,0)" xlink:href="#bl"/><use transform="matrix(0.007595486111111112,0,0,0.007595486111111112,9.091796875000002,0)" xlink:href="#bm"/><use transform="matrix(0.007595486111111112,0,0,0.007595486111111112,25.232204861111114,0)" xlink:href="#bn"/></g><path fill="#008a0e" d="M128 0v-1490h300v802h17l366-430h347L740-633 1179 0H826L514-456l-86 97V0H128" id="bo"/><path fill="#008a0e" d="M428-647V0H128v-1118h283l4 231c63-156 176-245 348-245 232 0 384 159 384 421V0H847v-659c0-139-76-222-202-222-128 0-217 86-217 234" id="bp"/><g id="z"><use transform="matrix(0.007595486111111112,0,0,0.007595486111111112,0,0)" xlink:href="#bf"/><use transform="matrix(0.007595486111111112,0,0,0.007595486111111112,5.544704861111112,0)" xlink:href="#bb"/><use transform="matrix(0.007595486111111112,0,0,0.007595486111111112,15.084635416666668,0)" xlink:href="#bo"/><use transform="matrix(0.007595486111111112,0,0,0.007595486111111112,23.758680555555557,0)" xlink:href="#bd"/><use transform="matrix(0.007595486111111112,0,0,0.007595486111111112,33.025173611111114,0)" xlink:href="#bp"/></g><path fill="#e81313" d="M440-1490V0H135v-1490h305" id="bq"/><path fill="#e81313" d="M428-647V0H128v-1118h283l4 231c63-156 176-245 348-245 232 0 384 159 384 421V0H847v-659c0-139-76-222-202-222-128 0-217 86-217 234" id="br"/><path fill="#e81313" d="M628 22C291 22 81-210 81-554c0-346 210-578 547-578 265 0 455 142 497 372l-279 52c-25-116-99-188-215-188-160 0-244 139-244 341 0 200 84 341 244 341 116 0 193-74 217-195l279 51C1085-123 896 22 628 22" id="bs"/><path fill="#e81313" d="M628 22C291 22 81-210 81-554c0-346 210-578 547-578 336 0 547 232 547 578 0 344-211 576-547 576zm0-236c160 0 242-146 242-341 0-197-82-341-242-341S387-753 387-555c0 195 81 341 241 341" id="bt"/><path fill="#e81313" d="M128 0v-1118h290v195h12c54-169 184-238 367-200v268c-27-8-86-15-130-15-138 0-239 95-239 234V0H128" id="bu"/><path fill="#e81313" d="M633 22C291 22 81-200 81-553c0-345 210-579 537-579 292 0 525 185 525 567v84H378c7 183 109 277 260 277 105 0 184-46 216-132l272 51C1071-99 893 22 633 22zM380-669h474c-15-146-94-237-233-237-143 0-229 99-241 237" id="bv"/><path fill="#e81313" d="M683-1118v229H474v562c0 71 29 104 102 104 23 0 73-7 95-13l43 225C647 9 580 16 520 16 296 16 174-96 174-301v-588H20v-229h154v-266h300v266h209" id="bw"/><g id="A"><use transform="matrix(0.007595486111111112,0,0,0.007595486111111112,0,0)" xlink:href="#bq"/><use transform="matrix(0.007595486111111112,0,0,0.007595486111111112,4.367404513888889,0)" xlink:href="#br"/><use transform="matrix(0.007595486111111112,0,0,0.007595486111111112,14.051649305555557,0)" xlink:href="#bs"/><use transform="matrix(0.007595486111111112,0,0,0.007595486111111112,23.204210069444446,0)" xlink:href="#bt"/><use transform="matrix(0.007595486111111112,0,0,0.007595486111111112,32.744140625,0)" xlink:href="#bu"/><use transform="matrix(0.007595486111111112,0,0,0.007595486111111112,39.19270833333333,0)" xlink:href="#bu"/><use transform="matrix(0.007595486111111112,0,0,0.007595486111111112,45.147569444444436,0)" xlink:href="#bv"/><use transform="matrix(0.007595486111111112,0,0,0.007595486111111112,54.41406249999999,0)" xlink:href="#bs"/><use transform="matrix(0.007595486111111112,0,0,0.007595486111111112,63.56662326388888,0)" xlink:href="#bw"/></g><path fill="#e81313" d="M101-265v-241l623-984h383v979h186v246h-186V0H814v-265H101zm719-246v-643h-12L409-523v12h411" id="bx"/><path fill="#e81313" d="M690 20C314 20 94-261 94-744c0-482 221-766 596-766 376 0 597 284 597 766 0 483-219 764-597 764zm0-253c184 0 286-184 286-511 0-328-102-514-286-514-183 0-285 187-285 514s101 511 285 511" id="by"/><path fill="#e81313" d="M749-1490V0H444v-1221h-10L93-980v-279l329-231h327" id="bz"/><g id="B"><use transform="matrix(0.007595486111111112,0,0,0.007595486111111112,0,0)" xlink:href="#bx"/><use transform="matrix(0.007595486111111112,0,0,0.007595486111111112,10.51974826388889,0)" xlink:href="#by"/><use transform="matrix(0.007595486111111112,0,0,0.007595486111111112,21.009114583333336,0)" xlink:href="#bz"/></g><path fill="#e81313" d="M568-82v-393H183v-240h385v-393h254v393h386v240H822v393H568" id="bA"/><use transform="matrix(0.007595486111111112,0,0,0.007595486111111112,0,0)" xlink:href="#bA" id="C"/><g id="D"><use transform="matrix(0.007595486111111112,0,0,0.007595486111111112,0,0)" xlink:href="#bv"/><use transform="matrix(0.007595486111111112,0,0,0.007595486111111112,9.266493055555557,0)" xlink:href="#bu"/><use transform="matrix(0.007595486111111112,0,0,0.007595486111111112,15.715060763888891,0)" xlink:href="#bu"/><use transform="matrix(0.007595486111111112,0,0,0.007595486111111112,21.669921875,0)" xlink:href="#bt"/><use transform="matrix(0.007595486111111112,0,0,0.007595486111111112,31.209852430555557,0)" xlink:href="#bu"/></g><path fill="#e81313" d="M128 0v-1118h278l12 217c60-163 185-234 319-234 143 0 236 81 288 251 63-172 205-251 359-251 205 0 357 138 357 381V0h-301v-697c0-126-76-187-177-187-114 0-184 79-184 196V0H789v-705c0-109-72-179-174-179-106 0-187 74-187 208V0H128" id="bB"/><path fill="#e81313" d="M572 22C302 22 117-98 78-306l279-48c29 105 101 156 224 156 114 0 185-48 185-115 0-118-228-130-337-155-215-49-322-150-322-317 0-215 187-347 470-347 265 0 424 116 466 298l-266 47c-24-76-87-130-196-130-98 0-174 46-174 113 0 56 38 95 144 117l201 40c216 44 320 143 320 302 0 220-207 367-500 367" id="bC"/><path fill="#e81313" d="M440 22C227 22 68-92 68-313c0-250 202-322 422-343 195-21 271-24 271-105 0-95-63-149-175-149-116 0-187 57-211 129l-275-46c57-194 237-305 487-305 240 0 474 108 474 379V0H777v-155h-10C713-51 605 22 440 22zm85-211c140 0 238-93 238-211v-121c-37 26-156 42-222 51-111 16-185 59-185 149 0 87 70 132 169 132" id="bD"/><path fill="#e81313" d="M625 442c-280 0-454-114-503-274l258-72c28 63 97 128 243 128 153 0 246-69 246-216v-206h-23C805-108 717-16 536-16 284-16 81-191 81-561c0-378 208-571 456-571 188 0 280 113 321 202h13v-188h295V-9c0 303-226 451-541 451zm5-686c153 0 240-119 240-319 0-198-86-329-240-329-158 0-241 137-241 329 0 195 85 319 241 319" id="bE"/><g id="E"><use transform="matrix(0.007595486111111112,0,0,0.007595486111111112,0,0)" xlink:href="#bB"/><use transform="matrix(0.007595486111111112,0,0,0.007595486111111112,14.195963541666668,0)" xlink:href="#bv"/><use transform="matrix(0.007595486111111112,0,0,0.007595486111111112,23.462456597222225,0)" xlink:href="#bC"/><use transform="matrix(0.007595486111111112,0,0,0.007595486111111112,32.17447916666667,0)" xlink:href="#bC"/><use transform="matrix(0.007595486111111112,0,0,0.007595486111111112,40.886501736111114,0)" xlink:href="#bD"/><use transform="matrix(0.007595486111111112,0,0,0.007595486111111112,49.91753472222223,0)" xlink:href="#bE"/><use transform="matrix(0.007595486111111112,0,0,0.007595486111111112,59.74609375000001,0)" xlink:href="#bv"/></g><path fill="#e81313" d="M135 0v-1490h340l471 754c59 97 122 210 187 365-32-387-14-721-19-1119h312V0h-341C855-382 627-689 427-1113c32 420 16 695 20 1113H135" id="bF"/><g id="F"><use transform="matrix(0.010850694444444444,0,0,0.010850694444444444,0,0)" xlink:href="#bF"/><use transform="matrix(0.010850694444444444,0,0,0.010850694444444444,16.93793402777778,0)" xlink:href="#bt"/></g><path d="M571 0L49-1490h339c138 427 271 775 384 1244 111-471 237-815 371-1244h337L970 0H571" id="bG"/><g id="G"><use transform="matrix(0.007595486111111112,0,0,0.007595486111111112,0,0)" xlink:href="#bG"/><use transform="matrix(0.007595486111111112,0,0,0.007595486111111112,10.694444444444445,0)" xlink:href="#aV"/><use transform="matrix(0.007595486111111112,0,0,0.007595486111111112,19.725477430555557,0)" xlink:href="#aG"/><use transform="matrix(0.007595486111111112,0,0,0.007595486111111112,23.940972222222225,0)" xlink:href="#aA"/><use transform="matrix(0.007595486111111112,0,0,0.007595486111111112,28.156467013888893,0)" xlink:href="#aX"/><use transform="matrix(0.007595486111111112,0,0,0.007595486111111112,37.962239583333336,0)" xlink:href="#aV"/><use transform="matrix(0.007595486111111112,0,0,0.007595486111111112,46.99327256944445,0)" xlink:href="#aR"/><use transform="matrix(0.007595486111111112,0,0,0.007595486111111112,52.537977430555564,0)" xlink:href="#aN"/></g><g id="H"><use transform="matrix(0.007595486111111112,0,0,0.007595486111111112,0,0)" xlink:href="#aX"/><use transform="matrix(0.007595486111111112,0,0,0.007595486111111112,9.805772569444445,0)" xlink:href="#aV"/><use transform="matrix(0.007595486111111112,0,0,0.007595486111111112,18.836805555555557,0)" xlink:href="#aR"/><use transform="matrix(0.007595486111111112,0,0,0.007595486111111112,24.609375,0)" xlink:href="#aV"/></g><g id="I"><use transform="matrix(0.007595486111111112,0,0,0.007595486111111112,0,0)" xlink:href="#aI"/><use transform="matrix(0.007595486111111112,0,0,0.007595486111111112,11.507161458333334,0)" xlink:href="#aP"/><use transform="matrix(0.007595486111111112,0,0,0.007595486111111112,17.462022569444446,0)" xlink:href="#aN"/><use transform="matrix(0.007595486111111112,0,0,0.007595486111111112,26.880425347222225,0)" xlink:href="#aV"/><use transform="matrix(0.007595486111111112,0,0,0.007595486111111112,35.911458333333336,0)" xlink:href="#aR"/><use transform="matrix(0.007595486111111112,0,0,0.007595486111111112,41.45616319444445,0)" xlink:href="#aN"/></g><g id="J"><use transform="matrix(0.007595486111111112,0,0,0.007595486111111112,0,0)" xlink:href="#aD"/><use transform="matrix(0.007595486111111112,0,0,0.007595486111111112,9.684244791666668,0)" xlink:href="#az"/><use transform="matrix(0.007595486111111112,0,0,0.007595486111111112,18.396267361111114,0)" xlink:href="#aN"/><use transform="matrix(0.007595486111111112,0,0,0.007595486111111112,27.66276041666667,0)" xlink:href="#aP"/></g><path fill="#008a0e" d="M749-1490V0H444v-1221h-10L93-980v-279l329-231h327" id="bH"/><g id="K"><use transform="matrix(0.007595486111111112,0,0,0.007595486111111112,0,0)" xlink:href="#bg"/><use transform="matrix(0.007595486111111112,0,0,0.007595486111111112,9.798177083333334,0)" xlink:href="#bh"/><use transform="matrix(0.007595486111111112,0,0,0.007595486111111112,20.28754340277778,0)" xlink:href="#bH"/></g><path fill="#008a0e" d="M440 22C227 22 68-92 68-313c0-250 202-322 422-343 195-21 271-24 271-105 0-95-63-149-175-149-116 0-187 57-211 129l-275-46c57-194 237-305 487-305 240 0 474 108 474 379V0H777v-155h-10C713-51 605 22 440 22zm85-211c140 0 238-93 238-211v-121c-37 26-156 42-222 51-111 16-185 59-185 149 0 87 70 132 169 132" id="bI"/><path fill="#008a0e" d="M537 19C279 19 81-185 81-557c0-382 206-575 454-575 190 0 278 113 318 202h10v-560h300V0H868v-179h-15C812-89 719 19 537 19zm92-241c153 0 240-134 240-336 0-203-86-334-240-334-158 0-240 138-240 334 0 197 84 336 240 336" id="bJ"/><g id="L"><use transform="matrix(0.007595486111111112,0,0,0.007595486111111112,0,0)" xlink:href="#be"/><use transform="matrix(0.007595486111111112,0,0,0.007595486111111112,9.15256076388889,0)" xlink:href="#bc"/><use transform="matrix(0.007595486111111112,0,0,0.007595486111111112,15.107421875,0)" xlink:href="#bd"/><use transform="matrix(0.007595486111111112,0,0,0.007595486111111112,24.52582465277778,0)" xlink:href="#bI"/><use transform="matrix(0.007595486111111112,0,0,0.007595486111111112,33.55685763888889,0)" xlink:href="#bf"/><use transform="matrix(0.007595486111111112,0,0,0.007595486111111112,39.10156250000001,0)" xlink:href="#bd"/><use transform="matrix(0.007595486111111112,0,0,0.007595486111111112,48.368055555555564,0)" xlink:href="#bJ"/></g><g id="M"><use transform="matrix(0.007595486111111112,0,0,0.007595486111111112,0,0)" xlink:href="#aL"/><use transform="matrix(0.007595486111111112,0,0,0.007595486111111112,8.795572916666668,0)" xlink:href="#aH"/><use transform="matrix(0.007595486111111112,0,0,0.007595486111111112,18.335503472222225,0)" xlink:href="#aB"/><use transform="matrix(0.007595486111111112,0,0,0.007595486111111112,28.164062500000004,0)" xlink:href="#aA"/><use transform="matrix(0.007595486111111112,0,0,0.007595486111111112,32.37955729166667,0)" xlink:href="#aC"/></g><g id="N"><use transform="matrix(0.007595486111111112,0,0,0.007595486111111112,0,0)" xlink:href="#bf"/><use transform="matrix(0.007595486111111112,0,0,0.007595486111111112,5.544704861111112,0)" xlink:href="#bb"/><use transform="matrix(0.007595486111111112,0,0,0.007595486111111112,15.084635416666668,0)" xlink:href="#bo"/><use transform="matrix(0.007595486111111112,0,0,0.007595486111111112,23.758680555555557,0)" xlink:href="#bd"/><use transform="matrix(0.007595486111111112,0,0,0.007595486111111112,33.025173611111114,0)" xlink:href="#bp"/></g><path fill="#008a0e" d="M169-607c0-330 107-732 258-974h279c-145 311-231 674-231 974 0 262 67 512 231 886H427C258-1 169-307 169-607" id="bK"/><path fill="#008a0e" d="M681 22C323 22 94-145 85-462h297c10 151 131 226 296 226 163 0 271-77 271-190 0-102-95-149-257-189l-164-41c-252-61-403-188-403-405 0-269 236-449 560-449 330 0 546 183 551 445H941c-11-119-106-188-259-188-156 0-244 72-244 172-3 156 226 185 373 221 250 61 445 186 445 436 0 271-213 446-575 446" id="bL"/><path fill="#008a0e" d="M135 0v-1490h340l471 754c59 97 122 210 187 365-32-387-14-721-19-1119h312V0h-341C855-382 627-689 427-1113c32 420 16 695 20 1113H135" id="bM"/><path fill="#008a0e" d="M67 279c166-379 230-627 230-886 0-300-86-663-230-974h278c151 241 258 644 258 974 0 302-90 608-258 886H67" id="bN"/><g id="O"><use transform="matrix(0.007595486111111112,0,0,0.007595486111111112,0,0)" xlink:href="#bK"/><use transform="matrix(0.007595486111111112,0,0,0.007595486111111112,5.863715277777779,0)" xlink:href="#bl"/><use transform="matrix(0.007595486111111112,0,0,0.007595486111111112,14.95551215277778,0)" xlink:href="#bL"/><use transform="matrix(0.007595486111111112,0,0,0.007595486111111112,25.141059027777782,0)" xlink:href="#bi"/><use transform="matrix(0.007595486111111112,0,0,0.007595486111111112,37.126736111111114,0)" xlink:href="#bM"/><use transform="matrix(0.007595486111111112,0,0,0.007595486111111112,49.26432291666667,0)" xlink:href="#bN"/></g><g id="P"><use transform="matrix(0.007595486111111112,0,0,0.007595486111111112,0,0)" xlink:href="#aw"/><use transform="matrix(0.007595486111111112,0,0,0.007595486111111112,10.185546875000002,0)" xlink:href="#aA"/><use transform="matrix(0.007595486111111112,0,0,0.007595486111111112,14.401041666666668,0)" xlink:href="#aB"/><use transform="matrix(0.007595486111111112,0,0,0.007595486111111112,24.229600694444446,0)" xlink:href="#aC"/></g><g id="Q"><use transform="matrix(0.007595486111111112,0,0,0.007595486111111112,0,0)" xlink:href="#aD"/><use transform="matrix(0.007595486111111112,0,0,0.007595486111111112,9.684244791666668,0)" xlink:href="#aE"/></g><g id="R"><use transform="matrix(0.007595486111111112,0,0,0.007595486111111112,0,0)" xlink:href="#ba"/><use transform="matrix(0.007595486111111112,0,0,0.007595486111111112,11.507161458333334,0)" xlink:href="#bc"/><use transform="matrix(0.007595486111111112,0,0,0.007595486111111112,17.462022569444446,0)" xlink:href="#bd"/><use transform="matrix(0.007595486111111112,0,0,0.007595486111111112,26.880425347222225,0)" xlink:href="#bI"/><use transform="matrix(0.007595486111111112,0,0,0.007595486111111112,35.911458333333336,0)" xlink:href="#bf"/><use transform="matrix(0.007595486111111112,0,0,0.007595486111111112,41.45616319444445,0)" xlink:href="#bd"/><use transform="matrix(0.007595486111111112,0,0,0.007595486111111112,50.72265625000001,0)" xlink:href="#bJ"/></g><g id="S"><use transform="matrix(0.007595486111111112,0,0,0.007595486111111112,0,0)" xlink:href="#bK"/><use transform="matrix(0.007595486111111112,0,0,0.007595486111111112,5.863715277777779,0)" xlink:href="#bl"/><use transform="matrix(0.007595486111111112,0,0,0.007595486111111112,14.95551215277778,0)" xlink:href="#bL"/><use transform="matrix(0.007595486111111112,0,0,0.007595486111111112,25.141059027777782,0)" xlink:href="#bi"/><use transform="matrix(0.007595486111111112,0,0,0.007595486111111112,37.126736111111114,0)" xlink:href="#bM"/><use transform="matrix(0.007595486111111112,0,0,0.007595486111111112,49.26432291666667,0)" xlink:href="#bN"/></g><path fill="#333" d="M135 0v-1490h468l242 684c30 94 76 293 111 455 34-161 80-360 110-455l238-684h470V0h-307c0-447-3-765 11-1227-122 503-246 788-395 1227H826C676-435 552-717 427-1215c15 453 11 775 11 1215H135" id="bO"/><path fill="#333" d="M633 22C291 22 81-200 81-553c0-345 210-579 537-579 292 0 525 185 525 567v84H378c7 183 109 277 260 277 105 0 184-46 216-132l272 51C1071-99 893 22 633 22zM380-669h474c-15-146-94-237-233-237-143 0-229 99-241 237" id="bP"/><path fill="#333" d="M572 22C302 22 117-98 78-306l279-48c29 105 101 156 224 156 114 0 185-48 185-115 0-118-228-130-337-155-215-49-322-150-322-317 0-215 187-347 470-347 265 0 424 116 466 298l-266 47c-24-76-87-130-196-130-98 0-174 46-174 113 0 56 38 95 144 117l201 40c216 44 320 143 320 302 0 220-207 367-500 367" id="bQ"/><path fill="#333" d="M440 22C227 22 68-92 68-313c0-250 202-322 422-343 195-21 271-24 271-105 0-95-63-149-175-149-116 0-187 57-211 129l-275-46c57-194 237-305 487-305 240 0 474 108 474 379V0H777v-155h-10C713-51 605 22 440 22zm85-211c140 0 238-93 238-211v-121c-37 26-156 42-222 51-111 16-185 59-185 149 0 87 70 132 169 132" id="bR"/><path fill="#333" d="M625 442c-280 0-454-114-503-274l258-72c28 63 97 128 243 128 153 0 246-69 246-216v-206h-23C805-108 717-16 536-16 284-16 81-191 81-561c0-378 208-571 456-571 188 0 280 113 321 202h13v-188h295V-9c0 303-226 451-541 451zm5-686c153 0 240-119 240-319 0-198-86-329-240-329-158 0-241 137-241 329 0 195 85 319 241 319" id="bS"/><g id="T"><use transform="matrix(0.007595486111111112,0,0,0.007595486111111112,0,0)" xlink:href="#bO"/><use transform="matrix(0.007595486111111112,0,0,0.007595486111111112,14.492187500000002,0)" xlink:href="#bP"/><use transform="matrix(0.007595486111111112,0,0,0.007595486111111112,23.758680555555557,0)" xlink:href="#bQ"/><use transform="matrix(0.007595486111111112,0,0,0.007595486111111112,32.470703125,0)" xlink:href="#bQ"/><use transform="matrix(0.007595486111111112,0,0,0.007595486111111112,41.18272569444444,0)" xlink:href="#bR"/><use transform="matrix(0.007595486111111112,0,0,0.007595486111111112,50.21375868055556,0)" xlink:href="#bS"/><use transform="matrix(0.007595486111111112,0,0,0.007595486111111112,60.042317708333336,0)" xlink:href="#bP"/></g><g id="U"><use transform="matrix(0.007595486111111112,0,0,0.007595486111111112,0,0)" xlink:href="#aw"/><use transform="matrix(0.007595486111111112,0,0,0.007595486111111112,10.185546875000002,0)" xlink:href="#aD"/><use transform="matrix(0.007595486111111112,0,0,0.007595486111111112,19.86979166666667,0)" xlink:href="#aJ"/><use transform="matrix(0.007595486111111112,0,0,0.007595486111111112,29.02235243055556,0)" xlink:href="#aN"/><use transform="matrix(0.007595486111111112,0,0,0.007595486111111112,38.288845486111114,0)" xlink:href="#az"/><use transform="matrix(0.007595486111111112,0,0,0.007595486111111112,47.00086805555556,0)" xlink:href="#az"/></g><use transform="matrix(0.007595486111111112,0,0,0.007595486111111112,0,0)" xlink:href="#ay" id="V"/><path d="M135 0v-1490h997v253H440v360h640v249H440v375h694V0H135" id="bT"/><g id="W"><use transform="matrix(0.007595486111111112,0,0,0.007595486111111112,0,0)" xlink:href="#bT"/><use transform="matrix(0.007595486111111112,0,0,0.007595486111111112,9.448784722222223,0)" xlink:href="#aP"/><use transform="matrix(0.007595486111111112,0,0,0.007595486111111112,15.897352430555557,0)" xlink:href="#aP"/><use transform="matrix(0.007595486111111112,0,0,0.007595486111111112,21.852213541666668,0)" xlink:href="#aH"/><use transform="matrix(0.007595486111111112,0,0,0.007595486111111112,31.392144097222225,0)" xlink:href="#aP"/></g><path fill="#e81313" d="M135 0v-1490h997v253H440v360h640v249H440v375h694V0H135" id="bU"/><g id="X"><use transform="matrix(0.007595486111111112,0,0,0.007595486111111112,0,0)" xlink:href="#bU"/><use transform="matrix(0.007595486111111112,0,0,0.007595486111111112,9.448784722222223,0)" xlink:href="#bu"/><use transform="matrix(0.007595486111111112,0,0,0.007595486111111112,15.897352430555557,0)" xlink:href="#bu"/><use transform="matrix(0.007595486111111112,0,0,0.007595486111111112,21.852213541666668,0)" xlink:href="#bt"/><use transform="matrix(0.007595486111111112,0,0,0.007595486111111112,31.392144097222225,0)" xlink:href="#bu"/></g></defs></g></svg>