<svg xmlns="http://www.w3.org/2000/svg" xmlns:xlink="http://www.w3.org/1999/xlink" xmlns:lucid="lucid" width="1173.24" height="1474"><g transform="translate(1868.4978995722338 -1358.2802735843986)" lucid:page-tab-id="0_0"><path d="M-6000-1500h9500v4500h-9500z" fill="#f2f3f5"/><path d="M-1867.5 1371.28a12 12 0 0 1 12-12h1147.24a12 12 0 0 1 12 12v1448a12 12 0 0 1-12 12H-1855.5a12 12 0 0 1-12-12z" stroke="#000" stroke-width="2" fill="#fff"/><path d="M-1867.5 1425.42h1171.24" stroke="#000" stroke-width="2" fill="none"/><use xlink:href="#a" transform="matrix(1,0,0,1,-1843.4978995695203,1375.2802735878233) translate(435.48198784722223 30.13888888888889)"/><use xlink:href="#b" transform="matrix(1,0,0,1,-1843.4978995695203,1375.2802735878233) translate(495.759765625 30.13888888888889)"/><use xlink:href="#c" transform="matrix(1,0,0,1,-1843.4978995695203,1375.2802735878233) translate(588.6373697916667 30.13888888888889)"/><path d="M-1721.87 1572.86a1.36 1.36 0 0 1 1.36 1.36v10.07m0 10.07v20.14m0 10.1v20.13m0 10.08v20.15m0 10.08v20.14m0 10.07v20.15m0 10.06v20.15m0 10.08v20.15m0 10.07v20.15m0 10.07v20.15m0 10.07v20.15m0 10.06v20.15m0 10.08v20.15m0 10.07v20.15m0 10.07v20.15m0 10.07v20.15m0 10.06v20.15m0 10.08v20.15m0 10.07v20.15m0 10.07v20.15m0 10.07v20.15m0 10.06v20.15m0 10.08v20.15m0 10.07v20.14m0 10.08v20.14m0 10.08v20.14m0 10.08V2370m0 10.08v10.07M-1721.85 1572.86h-3.52M-1720.5 2390.14v.5M-1472.02 1676.63l-.03 9.88m-.03 9.9l-.07 19.76m-.03 9.9l-.06 19.76m-.03 9.88l-.06 19.77m-.03 9.88l-.07 19.77m-.03 9.88l-.06 19.77m-.03 9.88l-.06 19.77m-.04 9.88l-.06 19.77m-.04 9.9l-.06 19.75m-.03 9.9l-.06 19.76m-.02 9.88l-.06 19.77m-.04 9.88l-.06 19.78m-.03 9.88l-.07 19.77m-.03 9.88l-.06 19.78m-.04 9.88l-.06 19.77m-.03 9.88l-.05 19.78m-.03 9.9l-.06 19.75m-.04 9.9l-.06 19.76m-.03 9.87l-.06 19.77m-.03 9.88l-.06 19.77m-.04 9.87l-.06 19.77m-.03 9.88l-.06 19.77m-.04 9.87l-.06 19.77m-.04 9.88l-.06 19.77m-.03 9.88l-.03 9.88" stroke="#333" fill="none"/><path d="M-1471.55 1676.64h-.95v-.5h.96z" stroke="#333" stroke-width=".05" fill="#333"/><path d="M-1474.26 2388.25v.5M-1184.3 1676.63v9.92m0 9.92v19.84m0 9.93v19.84m0 9.92v19.83m0 9.92v19.85m0 9.92v19.84m0 9.92v19.84m0 9.92v19.84m0 9.92v19.84m0 9.92v19.84m0 9.92v19.84m0 9.92v19.84m0 9.92v19.84m0 9.92v19.85m0 9.9v19.86m0 9.93v19.84m0 9.92v19.83m0 9.92v19.84m0 9.9v19.85m0 9.92V2252m0 9.93v19.84m0 9.92v19.83m0 9.92v19.85m0 9.9v19.86m0 9.92v9.92" stroke="#333" fill="none"/><path d="M-1183.82 1676.64h-.95v-.5h.95z" stroke="#333" stroke-width=".05" fill="#333"/><path d="M-1184.3 2390.88v.52" stroke="#333" fill="none"/><path d="M-1200.25 1796.76a8 8 0 0 1 8-8h24a8 8 0 0 1 8 8v289.6a8 8 0 0 1-8 8h-24a8 8 0 0 1-8-8zM-913.38 1862.37a8 8 0 0 1 8-8h24a8 8 0 0 1 8 8v158.4a8 8 0 0 1-8 8h-24a8 8 0 0 1-8-8zM-1487.1 1796.76a8 8 0 0 1 8-8h24a8 8 0 0 1 8 8v369.6a8 8 0 0 1-8 8h-24a8 8 0 0 1-8-8z" stroke="#b8f5ed" stroke-width="2" fill="#ced4db"/><path d="M-1260.08 1592.13a8 8 0 0 1 8-8h135.56a8 8 0 0 1 8 8v75a8 8 0 0 1-8 8h-135.56a8 8 0 0 1-8-8z" stroke="#febed9" stroke-width="2" fill="#6db1ff"/><use xlink:href="#d" transform="matrix(1,0,0,1,-1252.0800803404195,1592.1304009494984) translate(18.12955729166665 43.51432291666667)"/><path d="M-972.36 1592.44a8 8 0 0 1 8-8h135.56a8 8 0 0 1 8 8v75a8 8 0 0 1-8 8h-135.56a8 8 0 0 1-8-8z" stroke="#febed9" stroke-width="2" fill="#6db1ff"/><use xlink:href="#e" transform="matrix(1,0,0,1,-964.3601027425333,1592.4398863495612) translate(-1.4957031250000057 43.51432291666667)"/><path d="M-1707.17 1514.22c0 8.4-6.8 15.2-15.2 15.2-8.4 0-15.2-6.8-15.2-15.2 0-8.4 6.8-15.2 15.2-15.2 8.4 0 15.2 6.8 15.2 15.2z" stroke="#333" fill="#fff"/><path d="M-1722.37 1529.4v34.55a26.78 26.78 0 0 0 4.4 14.7l27.5 41.9m-31.9-48.6l-31.9 48.6m0-75.95h63.8" stroke="#333" fill="none"/><path d="M-1754.26 1507.03a8 8 0 0 1 8-8h47.8a8 8 0 0 1 8 8v127.53a8 8 0 0 1-8 8h-47.8a8 8 0 0 1-8-8z" fill="none"/><use xlink:href="#f" transform="matrix(1,0,0,1,-1834.2606618923608,1620.5590993873825) translate(90.25559895833334 17.014322916666668)"/><path d="M-1720 1859.25h215.5M-1720 1859.25h-.5" stroke="#333" fill="none"/><path d="M-1489.73 1859.25l-14.27 4.63v-9.27z" stroke="#333" fill="#333"/><use xlink:href="#g" transform="matrix(1,0,0,1,-1696.181959998159,1835.2438279411424) translate(0.0049999999999954525 16.01666666666667)"/><use xlink:href="#h" transform="matrix(1,0,0,1,-1696.181959998159,1835.2438279411424) translate(41.927656250000005 16.01666666666667)"/><use xlink:href="#i" transform="matrix(1,0,0,1,-1696.181959998159,1835.2438279411424) translate(83.91489583333335 16.01666666666667)"/><use xlink:href="#j" transform="matrix(1,0,0,1,-1696.181959998159,1835.2438279411424) translate(129.52687500000002 16.01666666666667)"/><path d="M-1547.8 1592.13a8 8 0 0 1 8-8h135.56a8 8 0 0 1 8 8v75a8 8 0 0 1-8 8h-135.56a8 8 0 0 1-8-8z" stroke="#febed9" stroke-width="2" fill="#6db1ff"/><use xlink:href="#k" transform="matrix(1,0,0,1,-1539.800057938306,1592.1304009494984) translate(59.62838541666667 43.51432291666667)"/><path d="M-1444.6 1876l107.38 1.55 118.48-1.37" stroke="#3a414a" stroke-width="3" stroke-linejoin="round" fill="none"/><path d="M-1444.55 1874.53l-.04 2.94-1.5-.02v-2.95z" stroke="#3a414a" stroke-width=".05" fill="#3a414a"/><path d="M-1204.25 1876l-12.9 7.66-.17-15z" stroke="#3a414a" stroke-width="3" fill="#3a414a"/><use xlink:href="#l" transform="matrix(1,0,0,1,-1446.7064422399449,1851.9546570880625) translate(0 17.22222222222222)"/><use xlink:href="#m" transform="matrix(1,0,0,1,-1446.7064422399449,1851.9546570880625) translate(40.217013888888886 17.22222222222222)"/><path d="M-1157.74 1895.94h225.86" stroke="#3a414a" stroke-width="3" stroke-linejoin="round" fill="none"/><path d="M-1157.7 1894.46v2.95h-1.55v-2.94z" stroke="#3a414a" stroke-width=".05" fill="#3a414a"/><path d="M-917.38 1895.94l-13 7.5v-15z" stroke="#3a414a" stroke-width="3" fill="#3a414a"/><use xlink:href="#n" transform="matrix(1,0,0,1,-1122.5476182522957,1870.4287662177435) translate(0 17.22222222222222)"/><path d="M-915.88 1979.46h-4.54m-6.04 0h-9.07m-6.05 0h-9.07m-6.05 0h-9.07m-6.04 0h-9.08m-6.05 0H-996m-6.05 0h-9.07m-6.04 0h-9.07m-6.05 0h-9.04m-6 0h-8.98m-6 0h-9m-6 0h-9m-5.98 0h-9m-6 0h-9m-6 0h-8.98m-6 0h-4.5" stroke="#3a414a" stroke-width="3" fill="none"/><path d="M-914.38 1980.94h-1.54V1978h1.54z" stroke="#3a414a" stroke-width=".05" fill="#3a414a"/><path d="M-1156.25 1979.46l13-7.5v15z" stroke="#3a414a" stroke-width="3" fill="#3a414a"/><use xlink:href="#o" transform="matrix(1,0,0,1,-1152.9301657984986,1990.9622665873358) translate(0 17.22222222222222)"/><use xlink:href="#p" transform="matrix(1,0,0,1,-1152.9301657984986,1990.9622665873358) translate(62.274305555555564 17.22222222222222)"/><use xlink:href="#q" transform="matrix(1,0,0,1,-1152.9301657984986,1990.9622665873358) translate(115.97222222222223 17.22222222222222)"/><use xlink:href="#r" transform="matrix(1,0,0,1,-1152.9301657984986,1990.9622665873358) translate(178.48958333333334 17.22222222222222)"/><path d="M-1202.75 2015.35h-4.53m-6.05 0h-9.07m-6.04 0h-9.08m-6.04 0h-9.07m-6.05 0h-9.07m-6.04 0h-9.06m-6.05 0h-9.08m-6.05 0h-9.07m-6.04 0h-9.04m-6 0h-9m-5.98 0h-9m-6 0h-9m-6 0h-8.98m-6 0h-9m-6 0h-9m-5.98 0h-4.5" stroke="#3a414a" stroke-width="3" fill="none"/><path d="M-1201.25 2016.83h-1.54v-2.95h1.55z" stroke="#3a414a" stroke-width=".05" fill="#3a414a"/><path d="M-1443.1 2015.35l12.98-7.5v15z" stroke="#3a414a" stroke-width="3" fill="#3a414a"/><use xlink:href="#s" transform="matrix(1,0,0,1,-1413.288303203442,2019.3510645218014) translate(0 17.22222222222222)"/><use xlink:href="#t" transform="matrix(1,0,0,1,-1413.288303203442,2019.3510645218014) translate(53.69791666666667 17.22222222222222)"/><use xlink:href="#u" transform="matrix(1,0,0,1,-1413.288303203442,2019.3510645218014) translate(116.21527777777779 17.22222222222222)"/><path d="M-1489.6 2069.12h-12.76m-12.74 0h-25.5m-12.73 0h-25.5m-12.73 0h-29.21m-16.45 0h-32.9m-16.46 0H-1703" stroke="#3a414a" stroke-width="3" fill="none"/><path d="M-1488.1 2070.6h-1.55v-2.96h1.54z" stroke="#3a414a" stroke-width=".05" fill="#3a414a"/><path d="M-1717.5 2069.12l13-7.5v15z" stroke="#3a414a" stroke-width="3" fill="#3a414a"/><g><use xlink:href="#v" transform="matrix(1,0,0,1,-1715.0329256717162,2080.6182087950256) translate(0 17.22222222222222)"/><use xlink:href="#w" transform="matrix(1,0,0,1,-1715.0329256717162,2080.6182087950256) translate(66.36284722222223 17.22222222222222)"/><use xlink:href="#q" transform="matrix(1,0,0,1,-1715.0329256717162,2080.6182087950256) translate(115.40798611111111 17.22222222222222)"/><use xlink:href="#x" transform="matrix(1,0,0,1,-1715.0329256717162,2080.6182087950256) translate(177.92534722222223 17.22222222222222)"/></g><path d="M-893.38 2031.26v15.05m0 15.06v30.1m0 15.04v30.1m0 15.04v30.1m0 15.04v30.1m0 15.05v30.1m0 15.04v30.1m0 15.04v15.06M-893.38 2031.3v-1.54M-893.38 2347.22v1.54M-893.38 1851.87v-14.5m0-14.47v-28.98m0-14.48v-14.5a.05.05 0 0 0-.05-.04.05.05 0 0 1-.06-.05v-14.48m0-14.5v-28.96m0-14.48v-14.48" stroke="#979ea8" stroke-width="3" fill="none"/><path d="M-891.9 1853.37h-2.96v-1.54h2.95zM-892 1677.98h-2.96v-1.54h2.95z" stroke="#979ea8" stroke-width=".05" fill="#979ea8"/><defs><path d="M789 20c-398 0-667-293-667-764 0-473 273-766 655-766 315 0 558 198 612 487h-196c-61-191-204-311-415-311-262 0-471 207-471 590 0 380 208 588 482 588 249 0 420-165 425-427H828v-166h572v163c0 370-256 606-611 606" id="y"/><path d="M628 24c-324 0-524-230-524-574 0-343 198-582 503-582 237 0 487 146 487 559v75H286c9 234 145 362 343 362 132 0 231-58 273-172l174 48C1024-91 857 24 628 24zM287-650h624c-17-190-120-322-304-322-192 0-309 151-320 322" id="z"/><path d="M598-1118v154H368v674c0 100 37 144 132 144 23 0 62-6 92-12L629-6c-37 13-88 20-134 20-193 0-307-107-307-290v-688H20v-154h168v-266h180v266h230" id="A"/><g id="a"><use transform="matrix(0.015190972222222222,0,0,0.015190972222222222,0,0)" xlink:href="#y"/><use transform="matrix(0.015190972222222222,0,0,0.015190972222222222,23.211805555555554,0)" xlink:href="#z"/><use transform="matrix(0.015190972222222222,0,0,0.015190972222222222,41.349826388888886,0)" xlink:href="#A"/></g><path d="M180 0v-1490h510c348 0 508 194 508 460 0 198-88 351-276 417L1256 0h-220L726-579c-117 2-238 0-356 1V0H180zm190-747h312c235 0 327-108 327-283 0-177-92-293-329-293H370v576" id="B"/><path d="M613 24c-304 0-509-231-509-576 0-350 205-580 509-580 305 0 511 230 511 580 0 345-206 576-511 576zm0-161c226 0 329-195 329-415 0-222-103-419-329-419-223 0-326 196-326 419 0 220 103 415 326 415" id="C"/><path d="M158 0v-1118h175l1 205c55-151 181-225 313-225 147 0 245 90 285 228 53-141 190-228 352-228 194 0 352 125 352 384V0h-181v-749c0-161-105-225-225-225-151 0-243 103-243 244V0H807v-767c0-124-93-207-219-207-131 0-250 92-250 270V0H158" id="D"/><g id="b"><use transform="matrix(0.015190972222222222,0,0,0.015190972222222222,0,0)" xlink:href="#B"/><use transform="matrix(0.015190972222222222,0,0,0.015190972222222222,19.56597222222222,0)" xlink:href="#C"/><use transform="matrix(0.015190972222222222,0,0,0.015190972222222222,38.220486111111114,0)" xlink:href="#C"/><use transform="matrix(0.015190972222222222,0,0,0.015190972222222222,56.875,0)" xlink:href="#D"/></g><path d="M645 0H180v-1490h484c435 0 692 280 692 742 0 466-257 748-711 748zM370-168h263c363 0 539-218 539-580 0-358-176-574-521-574H370v1154" id="E"/><path d="M471 26C259 26 90-98 90-318c0-256 228-303 435-329 202-27 287-16 287-108 0-139-79-219-234-219-161 0-248 86-283 164l-173-57c86-203 278-265 451-265 150 0 419 46 419 395V0H815v-152h-12C765-73 660 26 471 26zm31-159c199 0 310-134 310-271v-155c-30 35-226 55-295 64-131 17-246 59-246 186 0 116 97 176 231 176" id="F"/><path d="M158 0v-1118h180V0H158zm91-1301c-68 0-125-53-125-119s57-119 125-119c69 0 126 53 126 119s-57 119-126 119" id="G"/><path d="M338-1490V0H158v-1490h180" id="H"/><path d="M538 24C308 24 148-78 108-271l171-41c32 123 123 178 257 178 156 0 256-77 256-169 0-77-54-128-164-154l-186-44c-203-48-300-148-300-305 0-192 176-326 414-326 230 0 351 112 402 269l-163 42c-31-80-94-158-238-158-133 0-233 69-233 162 0 83 57 129 188 160l169 40c203 48 298 149 298 302 0 196-179 339-441 339" id="I"/><g id="c"><use transform="matrix(0.015190972222222222,0,0,0.015190972222222222,0,0)" xlink:href="#E"/><use transform="matrix(0.015190972222222222,0,0,0.015190972222222222,22.452256944444443,0)" xlink:href="#z"/><use transform="matrix(0.015190972222222222,0,0,0.015190972222222222,40.59027777777777,0)" xlink:href="#A"/><use transform="matrix(0.015190972222222222,0,0,0.015190972222222222,50.920138888888886,0)" xlink:href="#F"/><use transform="matrix(0.015190972222222222,0,0,0.015190972222222222,68.38975694444444,0)" xlink:href="#G"/><use transform="matrix(0.015190972222222222,0,0,0.015190972222222222,75.92447916666667,0)" xlink:href="#H"/><use transform="matrix(0.015190972222222222,0,0,0.015190972222222222,83.4592013888889,0)" xlink:href="#I"/></g><path d="M180 0v-1490h528c311 0 458 177 458 395 0 191-114 278-244 313v14c139 9 302 137 302 371 0 225-148 397-499 397H180zm190-168h350c232 0 321-102 321-231 0-149-120-277-311-277H370v508zm0-668h328c160 0 286-101 286-255 0-129-87-231-280-231H370v486" id="J"/><path d="M613 24c-304 0-509-231-509-576 0-350 205-580 509-580 216 0 392 114 453 309l-173 49c-33-115-133-197-280-197-223 0-326 196-326 419 0 220 103 415 326 415 150 0 252-85 285-206l172 49C1010-95 832 24 613 24" id="K"/><path d="M158 0v-1490h180v865h22l478-493h223L593-638 1096 0H865L456-523 338-412V0H158" id="L"/><path d="M338-670V0H158v-1118h173l1 207c72-158 192-221 342-221 226 0 378 139 378 422V0H872v-695c0-172-96-275-252-275-161 0-282 109-282 300" id="M"/><path d="M577 24c-279 0-473-224-473-580 0-354 195-576 474-576 218 0 287 134 324 193h14v-551h180V0H922v-173h-20C865-111 790 24 577 24zm27-161c203 0 314-172 314-421 0-247-108-413-314-413-212 0-317 181-317 413 0 235 108 421 317 421" id="N"/><path d="M692-1560L212 224H46l480-1784h166" id="O"/><path d="M52 0l541-1490h220L1361 0h-200l-149-416H398L254 0H52zm404-582h497c-103-290-145-390-251-756-108 377-145 460-246 756" id="P"/><path d="M180 0v-1490h510c348 0 508 209 508 474 0 266-160 477-507 477H370V0H180zm190-706h312c236 0 327-133 327-310 0-176-91-307-329-307H370v617" id="Q"/><path d="M370-1490V0H180v-1490h190" id="R"/><g id="d"><use transform="matrix(0.008072916666666667,0,0,0.008072916666666667,0,0)" xlink:href="#J"/><use transform="matrix(0.008072916666666667,0,0,0.008072916666666667,10.817708333333334,0)" xlink:href="#F"/><use transform="matrix(0.008072916666666667,0,0,0.008072916666666667,20.1015625,0)" xlink:href="#K"/><use transform="matrix(0.008072916666666667,0,0,0.008072916666666667,29.546875,0)" xlink:href="#L"/><use transform="matrix(0.008072916666666667,0,0,0.008072916666666667,38.24947916666667,0)" xlink:href="#z"/><use transform="matrix(0.008072916666666667,0,0,0.008072916666666667,47.88854166666667,0)" xlink:href="#M"/><use transform="matrix(0.008072916666666667,0,0,0.008072916666666667,57.65677083333334,0)" xlink:href="#N"/><use transform="matrix(0.008072916666666667,0,0,0.008072916666666667,67.78020833333335,0)" xlink:href="#O"/><use transform="matrix(0.008072916666666667,0,0,0.008072916666666667,73.33437500000002,0)" xlink:href="#P"/><use transform="matrix(0.008072916666666667,0,0,0.008072916666666667,84.74140625000003,0)" xlink:href="#Q"/><use transform="matrix(0.008072916666666667,0,0,0.008072916666666667,95.30078125000003,0)" xlink:href="#R"/></g><path d="M677 24c-213 0-288-135-325-197h-20V0H158v-1490h180v551h14c37-59 106-193 324-193 279 0 474 222 474 576 0 356-194 580-473 580zm-27-161c209 0 317-186 317-421 0-232-105-413-317-413-206 0-314 166-314 413 0 249 111 421 314 421" id="S"/><path d="M657 26c-323 0-524-166-541-416h195c15 169 171 246 346 246 202 0 356-106 356-265 5-203-294-238-475-293-239-73-380-191-380-389 0-252 224-419 512-419 294 0 499 171 508 396H992c-17-145-151-228-328-228-193 0-321 102-321 242 0 156 175 211 284 241l149 41c160 44 422 134 422 412 0 244-197 432-541 432" id="T"/><path d="M158 0v-1118h174v172h12c41-113 157-188 290-188 26 0 70 2 91 3v181c-11-2-60-10-108-10-161 0-279 109-279 260V0H158" id="U"/><path d="M481 0L54-1118h197c107 314 236 620 325 951 87-331 217-637 324-951h197L670 0H481" id="V"/><g id="e"><use transform="matrix(0.008072916666666667,0,0,0.008072916666666667,0,0)" xlink:href="#E"/><use transform="matrix(0.008072916666666667,0,0,0.008072916666666667,11.931770833333335,0)" xlink:href="#F"/><use transform="matrix(0.008072916666666667,0,0,0.008072916666666667,21.215625000000003,0)" xlink:href="#A"/><use transform="matrix(0.008072916666666667,0,0,0.008072916666666667,26.70520833333334,0)" xlink:href="#F"/><use transform="matrix(0.008072916666666667,0,0,0.008072916666666667,35.9890625,0)" xlink:href="#S"/><use transform="matrix(0.008072916666666667,0,0,0.008072916666666667,46.27395833333334,0)" xlink:href="#F"/><use transform="matrix(0.008072916666666667,0,0,0.008072916666666667,55.55781250000001,0)" xlink:href="#I"/><use transform="matrix(0.008072916666666667,0,0,0.008072916666666667,64.28463541666667,0)" xlink:href="#z"/><use transform="matrix(0.008072916666666667,0,0,0.008072916666666667,73.92369791666667,0)" xlink:href="#O"/><use transform="matrix(0.008072916666666667,0,0,0.008072916666666667,79.88151041666667,0)" xlink:href="#T"/><use transform="matrix(0.008072916666666667,0,0,0.008072916666666667,90.48932291666668,0)" xlink:href="#z"/><use transform="matrix(0.008072916666666667,0,0,0.008072916666666667,100.12838541666667,0)" xlink:href="#U"/><use transform="matrix(0.008072916666666667,0,0,0.008072916666666667,106.61093750000002,0)" xlink:href="#V"/><use transform="matrix(0.008072916666666667,0,0,0.008072916666666667,115.90286458333335,0)" xlink:href="#G"/><use transform="matrix(0.008072916666666667,0,0,0.008072916666666667,119.90703125000002,0)" xlink:href="#K"/><use transform="matrix(0.008072916666666667,0,0,0.008072916666666667,129.35234375000002,0)" xlink:href="#z"/></g><path d="M763 24c-353 0-583-224-583-531v-983h190v968c0 214 149 370 393 370 243 0 391-156 391-370v-968h190v983c0 307-230 531-581 531" id="W"/><path d="M180 0v-1490h908v168H370v486h669v168H370v500h727V0H180" id="X"/><g id="f"><use transform="matrix(0.008072916666666667,0,0,0.008072916666666667,0,0)" xlink:href="#W"/><use transform="matrix(0.008072916666666667,0,0,0.008072916666666667,12.303125000000001,0)" xlink:href="#T"/><use transform="matrix(0.008072916666666667,0,0,0.008072916666666667,22.910937500000003,0)" xlink:href="#X"/><use transform="matrix(0.008072916666666667,0,0,0.008072916666666667,32.84869791666667,0)" xlink:href="#B"/></g><path d="M628 22C291 22 81-210 81-554c0-346 210-578 547-578 265 0 455 142 497 372l-279 52c-25-116-99-188-215-188-160 0-244 139-244 341 0 200 84 341 244 341 116 0 193-74 217-195l279 51C1085-123 896 22 628 22" id="Y"/><path d="M428-1490V0H128v-1490h300" id="Z"/><path d="M128 0v-1118h300V0H128zm150-1264c-91 0-165-68-165-154 0-85 74-154 165-154 90 0 165 69 165 154 0 86-75 154-165 154" id="aa"/><path d="M128 0v-1490h300v802h17l366-430h347L740-633 1179 0H826L514-456l-86 97V0H128" id="ab"/><g id="g"><use transform="matrix(0.008072916666666667,0,0,0.008072916666666667,0,0)" xlink:href="#Y"/><use transform="matrix(0.008072916666666667,0,0,0.008072916666666667,9.727864583333334,0)" xlink:href="#Z"/><use transform="matrix(0.008072916666666667,0,0,0.008072916666666667,14.208333333333337,0)" xlink:href="#aa"/><use transform="matrix(0.008072916666666667,0,0,0.008072916666666667,18.688802083333336,0)" xlink:href="#Y"/><use transform="matrix(0.008072916666666667,0,0,0.008072916666666667,28.416666666666675,0)" xlink:href="#ab"/></g><path d="M443 0L31-1118h319c90 293 199 572 268 885 66-313 175-593 264-885h315L784 0H443" id="ac"/><path d="M633 22C291 22 81-200 81-553c0-345 210-579 537-579 292 0 525 185 525 567v84H378c7 183 109 277 260 277 105 0 184-46 216-132l272 51C1071-99 893 22 633 22zM380-669h474c-15-146-94-237-233-237-143 0-229 99-241 237" id="ad"/><path d="M361 0L31-1118h315c68 295 127 523 188 845 63-317 128-551 199-845h276c71 296 131 525 196 846 57-321 119-552 186-846h319L1378 0h-305c-73-261-148-486-204-771C813-484 740-261 666 0H361" id="ae"/><g id="h"><use transform="matrix(0.008072916666666667,0,0,0.008072916666666667,0,0)" xlink:href="#ac"/><use transform="matrix(0.008072916666666667,0,0,0.008072916666666667,9.913541666666667,0)" xlink:href="#aa"/><use transform="matrix(0.008072916666666667,0,0,0.008072916666666667,14.394010416666667,0)" xlink:href="#ad"/><use transform="matrix(0.008072916666666667,0,0,0.008072916666666667,24.016927083333336,0)" xlink:href="#ae"/></g><path d="M128 0v-1118h290v195h12c54-169 184-238 367-200v268c-27-8-86-15-130-15-138 0-239 95-239 234V0H128" id="af"/><path d="M628 22C291 22 81-210 81-554c0-346 210-578 547-578 336 0 547 232 547 578 0 344-211 576-547 576zm0-236c160 0 242-146 242-341 0-197-82-341-242-341S387-753 387-555c0 195 81 341 241 341" id="ag"/><path d="M128 0v-1118h278l12 217c60-163 185-234 319-234 143 0 236 81 288 251 63-172 205-251 359-251 205 0 357 138 357 381V0h-301v-697c0-126-76-187-177-187-114 0-184 79-184 196V0H789v-705c0-109-72-179-174-179-106 0-187 74-187 208V0H128" id="ah"/><g id="i"><use transform="matrix(0.008072916666666667,0,0,0.008072916666666667,0,0)" xlink:href="#af"/><use transform="matrix(0.008072916666666667,0,0,0.008072916666666667,6.3291666666666675,0)" xlink:href="#ag"/><use transform="matrix(0.008072916666666667,0,0,0.008072916666666667,16.46875,0)" xlink:href="#ag"/><use transform="matrix(0.008072916666666667,0,0,0.008072916666666667,26.608333333333334,0)" xlink:href="#ah"/></g><path d="M537 19C279 19 81-185 81-557c0-382 206-575 454-575 190 0 278 113 318 202h10v-560h300V0H868v-179h-15C812-89 719 19 537 19zm92-241c153 0 240-134 240-336 0-203-86-334-240-334-158 0-240 138-240 334 0 197 84 336 240 336" id="ai"/><path d="M683-1118v229H474v562c0 71 29 104 102 104 23 0 73-7 95-13l43 225C647 9 580 16 520 16 296 16 174-96 174-301v-588H20v-229h154v-266h300v266h209" id="aj"/><path d="M440 22C227 22 68-92 68-313c0-250 202-322 422-343 195-21 271-24 271-105 0-95-63-149-175-149-116 0-187 57-211 129l-275-46c57-194 237-305 487-305 240 0 474 108 474 379V0H777v-155h-10C713-51 605 22 440 22zm85-211c140 0 238-93 238-211v-121c-37 26-156 42-222 51-111 16-185 59-185 149 0 87 70 132 169 132" id="ak"/><path d="M572 22C302 22 117-98 78-306l279-48c29 105 101 156 224 156 114 0 185-48 185-115 0-118-228-130-337-155-215-49-322-150-322-317 0-215 187-347 470-347 265 0 424 116 466 298l-266 47c-24-76-87-130-196-130-98 0-174 46-174 113 0 56 38 95 144 117l201 40c216 44 320 143 320 302 0 220-207 367-500 367" id="al"/><g id="j"><use transform="matrix(0.008072916666666667,0,0,0.008072916666666667,0,0)" xlink:href="#ai"/><use transform="matrix(0.008072916666666667,0,0,0.008072916666666667,10.422135416666668,0)" xlink:href="#ad"/><use transform="matrix(0.008072916666666667,0,0,0.008072916666666667,20.271093750000002,0)" xlink:href="#aj"/><use transform="matrix(0.008072916666666667,0,0,0.008072916666666667,26.40651041666667,0)" xlink:href="#ak"/><use transform="matrix(0.008072916666666667,0,0,0.008072916666666667,36.005208333333336,0)" xlink:href="#aa"/><use transform="matrix(0.008072916666666667,0,0,0.008072916666666667,40.485677083333336,0)" xlink:href="#Z"/><use transform="matrix(0.008072916666666667,0,0,0.008072916666666667,44.966145833333336,0)" xlink:href="#al"/></g><g id="k"><use transform="matrix(0.008072916666666667,0,0,0.008072916666666667,0,0)" xlink:href="#W"/><use transform="matrix(0.008072916666666667,0,0,0.008072916666666667,12.303125000000001,0)" xlink:href="#R"/></g><path fill="#333" d="M795 20C377 20 94-272 94-743c0-483 302-767 694-767 335 0 593 206 635 500h-310c-42-142-154-229-320-229-230 0-389 177-389 493s154 495 393 495c212 0 340-120 345-311H818v-232h620v186c0 391-269 628-643 628" id="am"/><path fill="#333" d="M135 0v-1490h997v253H440v360h640v249H440v375h694V0H135" id="an"/><path fill="#333" d="M75-1237v-253h1217v253H837V0H531v-1237H75" id="ao"/><g id="l"><use transform="matrix(0.008680555555555556,0,0,0.008680555555555556,0,0)" xlink:href="#am"/><use transform="matrix(0.008680555555555556,0,0,0.008680555555555556,13.34201388888889,0)" xlink:href="#an"/><use transform="matrix(0.008680555555555556,0,0,0.008680555555555556,24.140625,0)" xlink:href="#ao"/></g><path fill="#333" d="M768-1560L288 224H28l480-1784h260" id="ap"/><path fill="#333" d="M440 22C227 22 68-92 68-313c0-250 202-322 422-343 195-21 271-24 271-105 0-95-63-149-175-149-116 0-187 57-211 129l-275-46c57-194 237-305 487-305 240 0 474 108 474 379V0H777v-155h-10C713-51 605 22 440 22zm85-211c140 0 238-93 238-211v-121c-37 26-156 42-222 51-111 16-185 59-185 149 0 87 70 132 169 132" id="aq"/><path fill="#333" d="M128 418v-1536h295v188h14c41-89 129-202 319-202 248 0 453 193 453 575 0 372-197 576-455 576-183 0-275-108-317-198h-9v597H128zm534-640c156 0 240-139 240-336 0-196-83-334-240-334-154 0-241 131-241 334 0 202 88 336 241 336" id="ar"/><path fill="#333" d="M128 0v-1118h300V0H128zm150-1264c-91 0-165-68-165-154 0-85 74-154 165-154 90 0 165 69 165 154 0 86-75 154-165 154" id="as"/><path fill="#333" d="M128 0v-1118h290v195h12c54-169 184-238 367-200v268c-27-8-86-15-130-15-138 0-239 95-239 234V0H128" id="at"/><path fill="#333" d="M628 22C291 22 81-210 81-554c0-346 210-578 547-578 336 0 547 232 547 578 0 344-211 576-547 576zm0-236c160 0 242-146 242-341 0-197-82-341-242-341S387-753 387-555c0 195 81 341 241 341" id="au"/><path fill="#333" d="M128 0v-1118h278l12 217c60-163 185-234 319-234 143 0 236 81 288 251 63-172 205-251 359-251 205 0 357 138 357 381V0h-301v-697c0-126-76-187-177-187-114 0-184 79-184 196V0H789v-705c0-109-72-179-174-179-106 0-187 74-187 208V0H128" id="av"/><path fill="#333" d="M572 22C302 22 117-98 78-306l279-48c29 105 101 156 224 156 114 0 185-48 185-115 0-118-228-130-337-155-215-49-322-150-322-317 0-215 187-347 470-347 265 0 424 116 466 298l-266 47c-24-76-87-130-196-130-98 0-174 46-174 113 0 56 38 95 144 117l201 40c216 44 320 143 320 302 0 220-207 367-500 367" id="aw"/><path fill="#333" d="M859 279c-294 0-496-54-496-407v-174c2-150-62-215-223-213v-272c161 2 223-62 223-212v-175c0-352 202-407 496-407v227c-173 0-218 65-218 209 0 269 49 401-235 483v22c283 85 235 214 235 483 0 143 45 210 218 210v226" id="ax"/><path fill="#333" d="M440-1490V0H135v-1490h305" id="ay"/><path fill="#333" d="M537 19C279 19 81-185 81-557c0-382 206-575 454-575 190 0 278 113 318 202h10v-560h300V0H868v-179h-15C812-89 719 19 537 19zm92-241c153 0 240-134 240-336 0-203-86-334-240-334-158 0-240 138-240 334 0 197 84 336 240 336" id="az"/><path fill="#333" d="M102 279V53c173 0 218-67 218-210 0-268-48-399 234-482v-23c-283-84-234-214-234-483 0-143-45-209-218-209v-227c293 0 495 55 495 407v175c0 150 58 213 223 213v270c-166 1-223 65-223 214v174c0 353-202 407-495 407" id="aA"/><g id="m"><use transform="matrix(0.008680555555555556,0,0,0.008680555555555556,0,0)" xlink:href="#ap"/><use transform="matrix(0.008680555555555556,0,0,0.008680555555555556,6.901041666666667,0)" xlink:href="#aq"/><use transform="matrix(0.008680555555555556,0,0,0.008680555555555556,17.22222222222222,0)" xlink:href="#ar"/><use transform="matrix(0.008680555555555556,0,0,0.008680555555555556,28.428819444444443,0)" xlink:href="#as"/><use transform="matrix(0.008680555555555556,0,0,0.008680555555555556,33.24652777777778,0)" xlink:href="#ap"/><use transform="matrix(0.008680555555555556,0,0,0.008680555555555556,40.14756944444444,0)" xlink:href="#at"/><use transform="matrix(0.008680555555555556,0,0,0.008680555555555556,46.953125,0)" xlink:href="#au"/><use transform="matrix(0.008680555555555556,0,0,0.008680555555555556,57.85590277777778,0)" xlink:href="#au"/><use transform="matrix(0.008680555555555556,0,0,0.008680555555555556,68.75868055555556,0)" xlink:href="#av"/><use transform="matrix(0.008680555555555556,0,0,0.008680555555555556,84.98263888888889,0)" xlink:href="#aw"/><use transform="matrix(0.008680555555555556,0,0,0.008680555555555556,94.93923611111111,0)" xlink:href="#ap"/><use transform="matrix(0.008680555555555556,0,0,0.008680555555555556,101.84027777777779,0)" xlink:href="#ax"/><use transform="matrix(0.008680555555555556,0,0,0.008680555555555556,110.49479166666667,0)" xlink:href="#at"/><use transform="matrix(0.008680555555555556,0,0,0.008680555555555556,117.30034722222223,0)" xlink:href="#au"/><use transform="matrix(0.008680555555555556,0,0,0.008680555555555556,128.203125,0)" xlink:href="#au"/><use transform="matrix(0.008680555555555556,0,0,0.008680555555555556,139.10590277777777,0)" xlink:href="#av"/><use transform="matrix(0.008680555555555556,0,0,0.008680555555555556,155.32986111111111,0)" xlink:href="#ay"/><use transform="matrix(0.008680555555555556,0,0,0.008680555555555556,160.32118055555557,0)" xlink:href="#az"/><use transform="matrix(0.008680555555555556,0,0,0.008680555555555556,171.84895833333334,0)" xlink:href="#aA"/></g><path fill="#333" d="M633 22C291 22 81-200 81-553c0-345 210-579 537-579 292 0 525 185 525 567v84H378c7 183 109 277 260 277 105 0 184-46 216-132l272 51C1071-99 893 22 633 22zM380-669h474c-15-146-94-237-233-237-143 0-229 99-241 237" id="aB"/><path fill="#333" d="M683-1118v229H474v562c0 71 29 104 102 104 23 0 73-7 95-13l43 225C647 9 580 16 520 16 296 16 174-96 174-301v-588H20v-229h154v-266h300v266h209" id="aC"/><path fill="#333" d="M135 0v-1490h581c339 0 533 192 533 485 0 204-94 351-264 424L1302 0H964L680-532H440V0H135zm305-779h220c186 0 274-77 274-226 0-150-88-233-275-233H440v459" id="aD"/><path fill="#333" d="M659 0H135v-1490h529c448 0 721 280 721 744 0 466-273 746-726 746zM440-263h204c287 0 437-148 437-483 0-333-150-481-435-481H440v964" id="aE"/><path fill="#333" d="M428-1490V0H128v-1490h300" id="aF"/><path fill="#333" d="M169-607c0-330 107-732 258-974h279c-145 311-231 674-231 974 0 262 67 512 231 886H427C258-1 169-307 169-607" id="aG"/><path fill="#333" d="M67 279c166-379 230-627 230-886 0-300-86-663-230-974h278c151 241 258 644 258 974 0 302-90 608-258 886H67" id="aH"/><g id="n"><use transform="matrix(0.008680555555555556,0,0,0.008680555555555556,0,0)" xlink:href="#am"/><use transform="matrix(0.008680555555555556,0,0,0.008680555555555556,13.34201388888889,0)" xlink:href="#aB"/><use transform="matrix(0.008680555555555556,0,0,0.008680555555555556,23.932291666666668,0)" xlink:href="#aC"/><use transform="matrix(0.008680555555555556,0,0,0.008680555555555556,30.48611111111111,0)" xlink:href="#aD"/><use transform="matrix(0.008680555555555556,0,0,0.008680555555555556,41.94444444444444,0)" xlink:href="#au"/><use transform="matrix(0.008680555555555556,0,0,0.008680555555555556,52.847222222222236,0)" xlink:href="#au"/><use transform="matrix(0.008680555555555556,0,0,0.008680555555555556,63.750000000000014,0)" xlink:href="#av"/><use transform="matrix(0.008680555555555556,0,0,0.008680555555555556,79.97395833333334,0)" xlink:href="#aE"/><use transform="matrix(0.008680555555555556,0,0,0.008680555555555556,92.81250000000001,0)" xlink:href="#aB"/><use transform="matrix(0.008680555555555556,0,0,0.008680555555555556,103.4027777777778,0)" xlink:href="#aC"/><use transform="matrix(0.008680555555555556,0,0,0.008680555555555556,110.00000000000001,0)" xlink:href="#aq"/><use transform="matrix(0.008680555555555556,0,0,0.008680555555555556,120.32118055555559,0)" xlink:href="#as"/><use transform="matrix(0.008680555555555556,0,0,0.008680555555555556,125.13888888888891,0)" xlink:href="#aF"/><use transform="matrix(0.008680555555555556,0,0,0.008680555555555556,129.95659722222226,0)" xlink:href="#aw"/><use transform="matrix(0.008680555555555556,0,0,0.008680555555555556,139.91319444444449,0)" xlink:href="#aG"/><use transform="matrix(0.008680555555555556,0,0,0.008680555555555556,146.9357638888889,0)" xlink:href="#ay"/><use transform="matrix(0.008680555555555556,0,0,0.008680555555555556,151.92708333333337,0)" xlink:href="#aE"/><use transform="matrix(0.008680555555555556,0,0,0.008680555555555556,164.76562500000003,0)" xlink:href="#aH"/></g><path fill="#333" d="M513 14c-232 0-385-159-385-421v-711h300v659c0 139 76 222 202 222 127 0 217-86 217-234v-647h301V0H864l-4-232C797-74 683 14 513 14" id="aI"/><path fill="#333" d="M428-647V0H128v-1118h283l4 231c63-156 176-245 348-245 232 0 384 159 384 421V0H847v-659c0-139-76-222-202-222-128 0-217 86-217 234" id="aJ"/><g id="o"><use transform="matrix(0.008680555555555556,0,0,0.008680555555555556,0,0)" xlink:href="#aD"/><use transform="matrix(0.008680555555555556,0,0,0.008680555555555556,11.458333333333334,0)" xlink:href="#aB"/><use transform="matrix(0.008680555555555556,0,0,0.008680555555555556,22.048611111111114,0)" xlink:href="#aC"/><use transform="matrix(0.008680555555555556,0,0,0.008680555555555556,28.559027777777782,0)" xlink:href="#aI"/><use transform="matrix(0.008680555555555556,0,0,0.008680555555555556,39.626736111111114,0)" xlink:href="#at"/><use transform="matrix(0.008680555555555556,0,0,0.008680555555555556,46.996527777777786,0)" xlink:href="#aJ"/></g><g id="p"><use transform="matrix(0.008680555555555556,0,0,0.008680555555555556,0,0)" xlink:href="#aD"/><use transform="matrix(0.008680555555555556,0,0,0.008680555555555556,11.458333333333334,0)" xlink:href="#au"/><use transform="matrix(0.008680555555555556,0,0,0.008680555555555556,22.361111111111118,0)" xlink:href="#au"/><use transform="matrix(0.008680555555555556,0,0,0.008680555555555556,33.26388888888889,0)" xlink:href="#av"/></g><g id="q"><use transform="matrix(0.008680555555555556,0,0,0.008680555555555556,0,0)" xlink:href="#az"/><use transform="matrix(0.008680555555555556,0,0,0.008680555555555556,11.206597222222223,0)" xlink:href="#aB"/><use transform="matrix(0.008680555555555556,0,0,0.008680555555555556,21.796875,0)" xlink:href="#aC"/><use transform="matrix(0.008680555555555556,0,0,0.008680555555555556,28.394097222222225,0)" xlink:href="#aq"/><use transform="matrix(0.008680555555555556,0,0,0.008680555555555556,38.71527777777778,0)" xlink:href="#as"/><use transform="matrix(0.008680555555555556,0,0,0.008680555555555556,43.532986111111114,0)" xlink:href="#aF"/><use transform="matrix(0.008680555555555556,0,0,0.008680555555555556,48.35069444444445,0)" xlink:href="#aw"/></g><g id="r"><use transform="matrix(0.008680555555555556,0,0,0.008680555555555556,0,0)" xlink:href="#av"/><use transform="matrix(0.008680555555555556,0,0,0.008680555555555556,16.223958333333336,0)" xlink:href="#au"/><use transform="matrix(0.008680555555555556,0,0,0.008680555555555556,27.12673611111111,0)" xlink:href="#az"/><use transform="matrix(0.008680555555555556,0,0,0.008680555555555556,38.333333333333336,0)" xlink:href="#aB"/><use transform="matrix(0.008680555555555556,0,0,0.008680555555555556,48.923611111111114,0)" xlink:href="#aF"/></g><g id="s"><use transform="matrix(0.008680555555555556,0,0,0.008680555555555556,0,0)" xlink:href="#aD"/><use transform="matrix(0.008680555555555556,0,0,0.008680555555555556,11.458333333333334,0)" xlink:href="#au"/><use transform="matrix(0.008680555555555556,0,0,0.008680555555555556,22.361111111111118,0)" xlink:href="#au"/><use transform="matrix(0.008680555555555556,0,0,0.008680555555555556,33.26388888888889,0)" xlink:href="#av"/></g><g id="t"><use transform="matrix(0.008680555555555556,0,0,0.008680555555555556,0,0)" xlink:href="#az"/><use transform="matrix(0.008680555555555556,0,0,0.008680555555555556,11.206597222222223,0)" xlink:href="#aB"/><use transform="matrix(0.008680555555555556,0,0,0.008680555555555556,21.796875,0)" xlink:href="#aC"/><use transform="matrix(0.008680555555555556,0,0,0.008680555555555556,28.394097222222225,0)" xlink:href="#aq"/><use transform="matrix(0.008680555555555556,0,0,0.008680555555555556,38.71527777777778,0)" xlink:href="#as"/><use transform="matrix(0.008680555555555556,0,0,0.008680555555555556,43.532986111111114,0)" xlink:href="#aF"/><use transform="matrix(0.008680555555555556,0,0,0.008680555555555556,48.35069444444445,0)" xlink:href="#aw"/></g><path fill="#333" d="M567 20C257 20 68-148 68-448v-87h305v92c0 143 75 217 194 217s193-74 193-218v-1046h302v1041c0 301-188 469-495 469" id="aK"/><path fill="#333" d="M681 22C323 22 94-145 85-462h297c10 151 131 226 296 226 163 0 271-77 271-190 0-102-95-149-257-189l-164-41c-252-61-403-188-403-405 0-269 236-449 560-449 330 0 546 183 551 445H941c-11-119-106-188-259-188-156 0-244 72-244 172-3 156 226 185 373 221 250 61 445 186 445 436 0 271-213 446-575 446" id="aL"/><path fill="#333" d="M789 20C394 20 94-260 94-744c0-487 300-766 695-766s695 279 695 766c0 485-300 764-695 764zm0-271c231 0 385-174 385-493 0-321-154-495-385-495s-385 175-385 495c0 319 154 493 385 493" id="aM"/><path fill="#333" d="M135 0v-1490h340l471 754c59 97 122 210 187 365-32-387-14-721-19-1119h312V0h-341C855-382 627-689 427-1113c32 420 16 695 20 1113H135" id="aN"/><g id="u"><use transform="matrix(0.008680555555555556,0,0,0.008680555555555556,0,0)" xlink:href="#aG"/><use transform="matrix(0.008680555555555556,0,0,0.008680555555555556,6.701388888888889,0)" xlink:href="#aK"/><use transform="matrix(0.008680555555555556,0,0,0.008680555555555556,17.09201388888889,0)" xlink:href="#aL"/><use transform="matrix(0.008680555555555556,0,0,0.008680555555555556,28.73263888888889,0)" xlink:href="#aM"/><use transform="matrix(0.008680555555555556,0,0,0.008680555555555556,42.43055555555556,0)" xlink:href="#aN"/><use transform="matrix(0.008680555555555556,0,0,0.008680555555555556,56.302083333333336,0)" xlink:href="#aH"/></g><g id="v"><use transform="matrix(0.008680555555555556,0,0,0.008680555555555556,0,0)" xlink:href="#aD"/><use transform="matrix(0.008680555555555556,0,0,0.008680555555555556,11.458333333333334,0)" xlink:href="#aB"/><use transform="matrix(0.008680555555555556,0,0,0.008680555555555556,22.048611111111114,0)" xlink:href="#aJ"/><use transform="matrix(0.008680555555555556,0,0,0.008680555555555556,33.11631944444445,0)" xlink:href="#az"/><use transform="matrix(0.008680555555555556,0,0,0.008680555555555556,44.32291666666667,0)" xlink:href="#aB"/><use transform="matrix(0.008680555555555556,0,0,0.008680555555555556,54.91319444444445,0)" xlink:href="#at"/></g><g id="w"><use transform="matrix(0.008680555555555556,0,0,0.008680555555555556,0,0)" xlink:href="#at"/><use transform="matrix(0.008680555555555556,0,0,0.008680555555555556,6.805555555555556,0)" xlink:href="#au"/><use transform="matrix(0.008680555555555556,0,0,0.008680555555555556,17.708333333333336,0)" xlink:href="#au"/><use transform="matrix(0.008680555555555556,0,0,0.008680555555555556,28.61111111111111,0)" xlink:href="#av"/></g><path fill="#333" d="M625 442c-280 0-454-114-503-274l258-72c28 63 97 128 243 128 153 0 246-69 246-216v-206h-23C805-108 717-16 536-16 284-16 81-191 81-561c0-378 208-571 456-571 188 0 280 113 321 202h13v-188h295V-9c0 303-226 451-541 451zm5-686c153 0 240-119 240-319 0-198-86-329-240-329-158 0-241 137-241 329 0 195 85 319 241 319" id="aO"/><g id="x"><use transform="matrix(0.008680555555555556,0,0,0.008680555555555556,0,0)" xlink:href="#ar"/><use transform="matrix(0.008680555555555556,0,0,0.008680555555555556,11.380208333333334,0)" xlink:href="#aq"/><use transform="matrix(0.008680555555555556,0,0,0.008680555555555556,21.70138888888889,0)" xlink:href="#aO"/><use transform="matrix(0.008680555555555556,0,0,0.008680555555555556,32.93402777777778,0)" xlink:href="#aB"/></g></defs></g></svg>