<svg xmlns="http://www.w3.org/2000/svg" xmlns:xlink="http://www.w3.org/1999/xlink" xmlns:lucid="lucid" width="1757.04" height="1468.53"><g transform="translate(557.7843337700835 -1358.2802735855537)" lucid:page-tab-id="0_0"><path d="M-6000-1500h9500v4500h-9500z" fill="#f2f3f5"/><path d="M-556.78 1371.28a12 12 0 0 1 12-12h1731.03a12 12 0 0 1 12 12V2813.8a12 12 0 0 1-12 12H-544.78a12 12 0 0 1-12-12z" stroke="#000" stroke-width="2" fill="#fff"/><path d="M-556.78 1425.42h1755.03" stroke="#000" stroke-width="2" fill="none"/><use xlink:href="#a" transform="matrix(1,0,0,1,-532.7843337673598,1375.2802735878233) translate(762.0946180555555 30.13888888888889)"/><use xlink:href="#b" transform="matrix(1,0,0,1,-532.7843337673598,1375.2802735878233) translate(865.1197916666666 30.13888888888889)"/><path d="M236.6 1741.23a6 6 0 0 1 6-6h103a6 6 0 0 1 6 6v8a14.48 14.48 0 0 1-4.25 10.24l-1.5 1.52a14.48 14.48 0 0 1-10.26 4.23h-93a6 6 0 0 1-6-6z" fill="#fff"/><path d="M351.6 1735.23v20l-10 10h-105" fill="none"/><path d="M351.6 1735.23v20l-10 10h-8.76m-8.75 0h-17.5m-8.76 0h-17.5m-8.75 0h-17.5m-8.76 0h-8.75" stroke="#979ea8" stroke-width="2" fill="none"/><path d="M236.6 1741.23a6 6 0 0 1 6-6h798.66a6 6 0 0 1 6 6v799.1a6 6 0 0 1-6 6H242.6a6 6 0 0 1-6-6z" fill="none"/><path d="M262.3 1735.23h19.74m9.85 0h19.72m9.86 0h19.7m9.88 0h19.7m9.88 0h19.72m9.86 0h19.72m9.86 0h19.72m9.86 0h19.72m9.86 0h19.72m9.86 0h19.72m9.86 0h19.72m9.86 0h19.72m9.86 0H637m9.86 0h19.72m9.86 0h19.72m9.86 0h19.72m9.86 0h19.72m9.86 0h19.72m9.86 0h19.72m9.86 0h19.72m9.86 0h19.72m9.86 0h19.72m9.86 0h19.72m9.86 0h19.72m9.86 0h19.72m9.86 0h19.72m9.86 0h9.86a6 6 0 0 1 6 6v9.87m0 9.86v19.73m0 9.86v19.73m0 9.86v19.73m0 9.85v19.73m0 9.87v19.73m0 9.87v19.73m0 9.86v19.73m0 9.87v19.73m0 9.87v19.73m0 9.86v19.73m0 9.87v19.73m0 9.87v19.73m0 9.86v19.73m0 9.87v19.73m0 9.87v19.73m0 9.86v19.74m0 9.87v19.74m0 9.87v19.74m0 9.86v19.73m0 9.87v19.73m0 9.87v19.73m0 9.86v19.72m0 9.87v19.72m0 9.87v19.72m0 9.86V2491m0 9.88v19.73m0 9.88v9.86a6 6 0 0 1-6 6h-9.86m-9.86 0h-19.72m-9.86 0h-19.72m-9.86 0h-19.72m-9.86 0h-19.72m-9.86 0H883.5m-9.86 0h-19.72m-9.86 0h-19.72m-9.86 0h-19.72m-9.86 0h-19.72m-9.86 0H735.6m-9.86 0h-19.72m-9.86 0h-19.72m-9.86 0h-19.72m-9.86 0h-19.72m-9.86 0H587.7m-9.86 0h-19.72m-9.86 0h-19.72m-9.86 0h-19.72m-9.86 0h-19.72m-9.86 0H439.8m-9.86 0h-19.72m-9.86 0h-19.73m-9.86 0h-19.7m-9.88 0h-19.72m-9.87 0h-19.7m-9.86 0H262.3m-9.85 0h-9.86a6 6 0 0 1-6-6v-9.86m0-9.87v-19.72m0-9.87v-19.72m0-9.86v-19.73m0-9.88v-19.73m0-9.88v-19.73m0-9.87v-19.73m0-9.87v-19.73m0-9.87v-19.73m0-9.86v-19.73m0-9.86v-19.73m0-9.86v-19.73m0-9.85v-19.73m0-9.87v-19.73m0-9.87v-19.73m0-9.86v-19.74m0-9.86v-19.73m0-9.87v-19.73m0-9.86v-19.74m0-9.86v-19.73m0-9.87v-19.73m0-9.86v-19.74m0-9.86v-19.73m0-9.87v-19.73m0-9.86v-19.75m0-9.86v-19.74m0-9.87v-19.74m0-9.86v-9.87a6 6 0 0 1 6-6h9.85" stroke="#979ea8" stroke-width="2" fill="none"/><use xlink:href="#c" transform="matrix(1,0,0,1,244.59419115505216,1735.2300138949583) translate(0 25.1875)"/><path d="M-396.28 1689.63a1.83 1.83 0 0 1 1.83 1.83v10.03m0 10.02v20.05m0 10.03v20.06m0 10.02v20.06m0 10.02v20.06m0 10.03v20.05m0 10.03v20.05m0 10.03v20.06m0 10.03v20.04m0 10.03v20.06m0 10.02v20.06m0 10.03v20.06m0 10.02v20.05m0 10.03v20.05m0 10.03v20.05m0 10.03v20.06m0 10.02v20.06m0 10.02v20.06m0 10.03v20.06m0 10.03v20.04m0 10.03v20.05m0 10.03v20.05m0 10.03v20.05m0 10.03v20.07m0 10.02v20.05m0 10.03v20.05m0 10.03v20.05m0 10.04v10.03M-396.27 1689.63h-3.5M-394.45 2503.65v.5M-82.82 1684.56v10.05m0 10.06v20.1m0 10.06v20.1m0 10.06v20.1m0 10.05v20.1m0 10.06v20.1m0 10.04v20.1m0 10.06v20.1m0 10.06v20.1m0 10.05v20.12m0 10.05v20.1m0 10.05v20.1m0 10.06v20.1m0 10.06v20.1m0 10.05v20.1m0 10.05v20.1m0 10.06v20.1m0 10.06v20.1m0 10.06v20.1m0 10.05v20.1m0 10.06v20.1m0 10.05v20.1m0 10.06v20.1m0 10.06v20.1m0 10.05v20.1m0 10.06v20.1m0 10.07v20.1m0 10.05v20.1m0 10.06v20.1m0 10.05v20.1m0 10.06v20.1m0 10.04v20.1m0 10.06v20.1m0 10.06v20.1m0 10.05v10.06" stroke="#333" fill="none"/><path d="M-82.35 1684.57h-.95v-.5h.95z" stroke="#333" stroke-width=".05" fill="#333"/><path d="M-82.82 2709.85v.5" stroke="#333" fill="none"/><path d="M258 1819.45a8 8 0 0 1 8-8h24a8 8 0 0 1 8 8v682.36a8 8 0 0 1-8 8h-24a8 8 0 0 1-8-8z" stroke="#b8f5ed" stroke-width="2" fill="#ced4db"/><path d="M638.85 1684.56v10.1m0 10.13v20.2m0 10.12v20.23m0 10.1v20.23m0 10.12v20.22m0 10.1v20.24m0 10.1v20.24m0 10.1v20.23m0 10.12v20.22m0 10.1v20.24m0 10.12v20.23m0 10.1v20.23m0 10.1v20.24m0 10.1v20.24m0 10.1v20.23m0 10.1v20.23m0 10.1v20.24m0 10.1v20.24m0 10.12v20.22m0 10.12v20.22m0 10.1v20.24m0 10.1v20.23m0 10.12v20.22m0 10.1v20.23m0 10.1v20.24m0 10.1v20.23m0 10.12v20.22m0 10.1v10.13" stroke="#333" fill="none"/><path d="M639.32 1684.57h-.95v-.5h.95z" stroke="#333" stroke-width=".05" fill="#333"/><path d="M638.85 2503.65v.5" stroke="#333" fill="none"/><path d="M618.85 1943.34a8 8 0 0 1 8-8h24a8 8 0 0 1 8 8v358.47a8 8 0 0 1-8 8h-24a8 8 0 0 1-8-8z" stroke="#b8f5ed" stroke-width="2" fill="#ced4db"/><path d="M299.5 1964.6h301.96" stroke="#333" fill="none"/><path d="M299.52 1965.1h-.5v-.96h.5z" stroke="#333" stroke-width=".05" fill="#333"/><path d="M616.23 1964.6l-14.27 4.65v-9.28z" stroke="#333" fill="#333"/><path d="M-102.82 1781.9a8 8 0 0 1 8-8h24a8 8 0 0 1 8 8v719.9a8 8 0 0 1-8 8h-24a8 8 0 0 1-8-8z" stroke="#b8f5ed" stroke-width="2" fill="#ced4db"/><path d="M182.97 1570.06a8 8 0 0 1 8-8h174.08a8 8 0 0 1 8 8v105a8 8 0 0 1-8 8H190.97a8 8 0 0 1-8-8z" stroke="#febed9" stroke-width="2" fill="#6db1ff"/><use xlink:href="#d" transform="matrix(1,0,0,1,190.9750469551192,1570.060301524574) translate(38.06549479166665 58.51432291666667)"/><path d="M543.8 1570.06a8 8 0 0 1 8-8H725.9a8 8 0 0 1 8 8v105a8 8 0 0 1-8 8H551.8a8 8 0 0 1-8-8z" stroke="#febed9" stroke-width="2" fill="#6db1ff"/><use xlink:href="#e" transform="matrix(1,0,0,1,551.8090452833395,1570.060301524574) translate(37.43580729166666 58.51432291666667)"/><use xlink:href="#f" transform="matrix(1,0,0,1,551.8090452833395,1570.060301524574) translate(78.45429687500001 58.51432291666667)"/><path d="M-377.03 1613.65c0 10.9-8.85 19.75-19.75 19.75s-19.75-8.85-19.75-19.75 8.84-19.75 19.75-19.75c10.9 0 19.75 8.84 19.75 19.75z" stroke="#333" fill="#fff"/><path d="M-396.78 1633.4v47.3a27.6 27.6 0 0 0 4.27 14.76l35.72 56.44m-40-63.2l-40 63.2m0-98.75h80" stroke="#333" fill="none"/><path d="M-436.78 1601.9a8 8 0 0 1 8-8h64a8 8 0 0 1 8 8v164a8 8 0 0 1-8 8h-64a8 8 0 0 1-8-8z" fill="none"/><use xlink:href="#g" transform="matrix(1,0,0,1,-516.7843337673598,1751.8973280328325) translate(101.55338541666666 17.014322916666668)"/><path d="M-393.95 1859.83h273.74M-393.94 1859.83h-.5" stroke="#333" fill="none"/><path d="M-105.44 1859.83l-14.27 4.64v-9.27z" stroke="#333" fill="#333"/><use xlink:href="#h" transform="matrix(1,0,0,1,-322.15179365810695,1863.8343930624274) translate(0.0049999999999954525 16.01666666666667)"/><use xlink:href="#i" transform="matrix(1,0,0,1,-322.15179365810695,1863.8343930624274) translate(43.25968749999999 16.01666666666667)"/><use xlink:href="#j" transform="matrix(1,0,0,1,-322.15179365810695,1863.8343930624274) translate(96.201875 16.01666666666667)"/><path d="M427.46 2025.52H407v-.95h20.46zm-30.7 0h-20.48v-.95h20.47zm-30.7 0h-20.5v-.95h20.5zm-30.72 0h-20.47v-.95h20.47zm-30.7 0H294.4v-.95h10.23zm152.7 0H437.7v-.95H457.32zm160 0h-9.4v-.95h9.4zm-18.82 0H579.7v-.95h18.82zm-28.23 0h-14.95v-.95h14.94z" stroke="#333" stroke-width=".05" fill="#333"/><path d="M617.85 2025.52h-.52v-.95h.52z" fill="#333"/><path stroke="#333" stroke-width=".05" fill="#333"/><path d="M293.9 2029.68l-14.27-4.63 14.27-4.64z" fill="#333"/><path d="M294.37 2030.34l-16.28-5.3 16.27-5.28zm-13.2-5.3l12.25 4v-7.97z" stroke="#333" stroke-width=".05" fill="#333"/><use xlink:href="#k" transform="matrix(1,0,0,1,462.21053402706417,2014.2928725192614) translate(0 17.22222222222222)"/><use xlink:href="#l" transform="matrix(1,0,0,1,462.21053402706417,2014.2928725192614) translate(39.61805555555556 17.22222222222222)"/><use xlink:href="#m" transform="matrix(1,0,0,1,462.21053402706417,2014.2928725192614) translate(50.72916666666667 17.22222222222222)"/><path d="M-61.32 1926.23h301.95" stroke="#333" fill="none"/><path d="M-61.3 1926.7h-.52v-.95h.5z" stroke="#333" stroke-width=".05" fill="#333"/><path d="M255.4 1926.23l-14.27 4.63v-9.27z" stroke="#333" fill="#333"/><use xlink:href="#n" transform="matrix(1,0,0,1,-41.41837012089748,1902.2223305297418) translate(0.0049999999999954525 16.01666666666667)"/><use xlink:href="#o" transform="matrix(1,0,0,1,-41.41837012089748,1902.2223305297418) translate(31.553958333333334 16.01666666666667)"/><path d="M-177.86 1570.06a8 8 0 0 1 8-8H4.22a8 8 0 0 1 8 8v105a8 8 0 0 1-8 8h-174.08a8 8 0 0 1-8-8z" stroke="#febed9" stroke-width="2" fill="#6db1ff"/><use xlink:href="#p" transform="matrix(1,0,0,1,-169.85895137310106,1570.060301524574) translate(79.12838541666666 58.51432291666667)"/><path d="M338.43 1941.34a6 6 0 0 1 6-6h223.3a6 6 0 0 1 6 6v27.77a6 6 0 0 1-6 6h-223.3a6 6 0 0 1-6-6z" fill="none"/><use xlink:href="#q" transform="matrix(1,0,0,1,338.4296651841529,1935.342283081215) translate(-2.9163411458333712 15.069444444444446)"/><use xlink:href="#r" transform="matrix(1,0,0,1,338.4296651841529,1935.342283081215) translate(118 37.65538194444445)"/><path d="M945.8 1683.6v9.76m0 9.75v19.52m0 9.75v19.5m0 9.75v19.5m0 9.75v19.5m0 9.76v19.5m0 9.75v19.5m0 9.75v19.5m0 9.76v19.5m0 9.74v19.5m0 9.76v19.5m0 9.75v19.5m0 9.75v19.5m0 9.76v19.5m0 9.75V2102.92m0 9.76v19.5m0 9.76v19.5m0 9.75v19.5m0 9.76v19.5m0 9.75v19.5m0 9.75v19.5m0 9.76v19.5m0 9.74v19.5m0 9.75v19.5m0 9.75v19.5m0 9.75v19.5m0 9.76v19.5m0 9.75v19.5m0 9.76v9.75" stroke="#333" fill="none"/><path d="M946.3 1683.62h-.96v-.5h.95z" stroke="#333" stroke-width=".05" fill="#333"/><path d="M945.8 2502.7v.5" stroke="#333" fill="none"/><path d="M925.8 2077.8a8 8 0 0 1 8-8h24a8 8 0 0 1 8 8v184a8 8 0 0 1-8 8h-24a8 8 0 0 1-8-8z" stroke="#b8f5ed" stroke-width="2" fill="#ced4db"/><path d="M850.77 1569.1a8 8 0 0 1 8-8h174.08a8 8 0 0 1 8 8v105a8 8 0 0 1-8 8H858.78a8 8 0 0 1-8-8z" stroke="#febed9" stroke-width="2" fill="#6db1ff"/><use xlink:href="#s" transform="matrix(1,0,0,1,858.7747727069953,1569.1097638353215) translate(39.227994791666674 58.51432291666667)"/><path d="M193.3 2021.34a6 6 0 0 1 6-6h228a6 6 0 0 1 6 6v48a6 6 0 0 1-6 6h-228a6 6 0 0 1-6-6z" fill="none"/><use xlink:href="#t" transform="matrix(1,0,0,1,193.28874222765853,2015.3422830812149) translate(74.63330078125 39.4580078125)"/><use xlink:href="#u" transform="matrix(1,0,0,1,193.28874222765853,2015.3422830812149) translate(107.34912109375 39.4580078125)"/><path d="M300.5 2136.4H907.33" stroke="#000" stroke-width="3" fill="none"/><path d="M300.55 2137.87H299v-2.95h1.55z" stroke="#000" stroke-width=".05"/><path d="M921.8 2136.4l-12.98 7.5v-15z" stroke="#000" stroke-width="3"/><use xlink:href="#v" transform="matrix(1,0,0,1,522.5635585061525,2110.888027353374) translate(0 17.22222222222222)"/><path d="M923.3 2195.34H908.5m-14.83 0H864m-14.83 0H819.5m-14.82 0h-29.65m-14.83 0h-29.66m-14.83 0h-29.65m-14.82 0h-29.66m-14.83 0H597.86m-14.07 0h-28.14m-14.06 0h-28.14m-14.06 0h-28.14m-14.06 0h-28.14m-14.07 0h-28.13m-14.07 0h-28.13m-14.07 0H316.5" stroke="#979ea8" stroke-width="3" fill="none"/><path d="M924.8 2196.82h-1.53v-2.95h1.54z" stroke="#979ea8" stroke-width=".05" fill="#979ea8"/><path d="M302 2195.34l13-7.5v15z" stroke="#979ea8" stroke-width="3" fill="#979ea8"/><use xlink:href="#w" transform="matrix(1,0,0,1,575.6887740458271,2199.3422493084304) translate(0 17.22222222222222)"/><path d="M255.5 2237.3h-13.15m-13.16 0h-26.33m-13.16 0h-26.3m-13.16 0H123.9m-13.15 0H81.83m-15.77 0H34.52m-15.77 0H-12.8m-15.76 0h-15.77" stroke="#979ea8" stroke-width="3" fill="none"/><path d="M257 2238.78h-1.53v-2.95H257z" stroke="#979ea8" stroke-width=".05" fill="#979ea8"/><path d="M-58.82 2237.3l13-7.5v15z" stroke="#979ea8" stroke-width="3" fill="#979ea8"/><use xlink:href="#x" transform="matrix(1,0,0,1,67.2788388260229,2241.304277662248) translate(0 17.22222222222222)"/><use xlink:href="#y" transform="matrix(1,0,0,1,67.2788388260229,2241.304277662248) translate(39.41840277777778 17.22222222222222)"/><path d="M-105.32 2280.76h-15.98m-15.98 0h-31.96m-15.98 0h-31.96m-15.98 0h-30.18m-14.2 0h-28.4m-14.2 0h-28.42m-14.2 0h-14.2" stroke="#979ea8" stroke-width="3" fill="none"/><path d="M-103.82 2282.23h-1.54v-2.95h1.54z" stroke="#979ea8" stroke-width=".05" fill="#979ea8"/><path d="M-391.45 2280.76l13-7.5v15z" stroke="#979ea8" stroke-width="3" fill="#979ea8"/><use xlink:href="#z" transform="matrix(1,0,0,1,-341.1241168543828,2284.7545416016023) translate(0 17.22222222222222)"/><use xlink:href="#A" transform="matrix(1,0,0,1,-341.1241168543828,2284.7545416016023) translate(71.18055555555556 17.22222222222222)"/><path d="M203.22 2292.4a6 6 0 0 1 6-6h188a6 6 0 0 1 6 6v48a6 6 0 0 1-6 6h-188a6 6 0 0 1-6-6z" fill="none"/><use xlink:href="#B" transform="matrix(1,0,0,1,203.21566623264016,2286.4113490128784) translate(65.64013671875 39.4580078125)"/><path d="M255.5 2379.32h-13.15m-13.16 0h-26.33m-13.16 0h-26.3m-13.16 0H123.9m-13.14 0H81.83m-15.77 0H34.52m-15.77 0H-12.8m-15.76 0h-15.77" stroke="#979ea8" stroke-width="3" fill="none"/><path d="M257 2380.8h-1.53v-2.96H257z" stroke="#979ea8" stroke-width=".05" fill="#979ea8"/><path d="M-58.82 2379.32l13-7.5v15z" stroke="#979ea8" stroke-width="3" fill="#979ea8"/><g><use xlink:href="#C" transform="matrix(1,0,0,1,33.528862075817216,2383.3177985204798) translate(0 17.22222222222222)"/><use xlink:href="#D" transform="matrix(1,0,0,1,33.528862075817216,2383.3177985204798) translate(39.69618055555556 17.22222222222222)"/></g><path d="M-105.32 2425.95h-15.98m-15.98 0h-31.96m-15.98 0h-31.96m-15.98 0h-30.18m-14.2 0h-28.4m-14.2 0h-28.42m-14.2 0h-14.2" stroke="#979ea8" stroke-width="3" fill="none"/><path d="M-103.82 2427.43h-1.54v-2.95h1.54z" stroke="#979ea8" stroke-width=".05" fill="#979ea8"/><path d="M-391.45 2425.95l13-7.5v15z" stroke="#979ea8" stroke-width="3" fill="#979ea8"/><g><use xlink:href="#E" transform="matrix(1,0,0,1,-312.40448482760587,2429.9550813242377) translate(0 17.22222222222222)"/><use xlink:href="#F" transform="matrix(1,0,0,1,-312.40448482760587,2429.9550813242377) translate(47.32638888888889 17.22222222222222)"/></g><path d="M278 1686.3v10.06m0 10.05v20.1m0 10.07v20.1m0 10.05v20.1m0 10.06v20.1m0 10.05v20.1m0 10.06v20.1m0 10.05v20.1m0 10.05v20.1m0 10.06v20.1m0 10.05v20.12m0 10.05v20.1m0 10.06v20.1m0 10.05v20.1m0 10.06v20.1m0 10.05v20.1m0 10.05v20.1m0 10.06v20.1m0 10.06v20.1m0 10.06v20.1m0 10.05v20.1m0 10.06v20.1m0 10.06v20.1m0 10.04v20.1m0 10.06v20.1m0 10.05v20.1m0 10.06v20.1m0 10.07v20.1m0 10.05v20.1m0 10.06v20.1m0 10.05v20.1m0 10.06v20.1m0 10.05v20.1m0 10.05v20.1m0 10.06v10.05M278 1686.32v-.5M278 2711.6v3.5" stroke="#333" fill="none"/><path d="M233.35 2685.48a8 8 0 0 1 8-8h73.33a8 8 0 0 1 8 8v64a8 8 0 0 1-8 8h-73.33a8 8 0 0 1-8-8z" fill="none"/><path d="M242.28 2685.48l71.46 64m0-64l-71.46 64" stroke="#5d646f" stroke-width="8" fill="none"/><defs><path d="M645 0H180v-1490h484c435 0 692 280 692 742 0 466-257 748-711 748zM370-168h263c363 0 539-218 539-580 0-358-176-574-521-574H370v1154" id="G"/><path d="M628 24c-324 0-524-230-524-574 0-343 198-582 503-582 237 0 487 146 487 559v75H286c9 234 145 362 343 362 132 0 231-58 273-172l174 48C1024-91 857 24 628 24zM287-650h624c-17-190-120-322-304-322-192 0-309 151-320 322" id="H"/><path d="M338-1490V0H158v-1490h180" id="I"/><path d="M598-1118v154H368v674c0 100 37 144 132 144 23 0 62-6 92-12L629-6c-37 13-88 20-134 20-193 0-307-107-307-290v-688H20v-154h168v-266h180v266h230" id="J"/><g id="a"><use transform="matrix(0.015190972222222222,0,0,0.015190972222222222,0,0)" xlink:href="#G"/><use transform="matrix(0.015190972222222222,0,0,0.015190972222222222,22.452256944444443,0)" xlink:href="#H"/><use transform="matrix(0.015190972222222222,0,0,0.015190972222222222,40.59027777777777,0)" xlink:href="#I"/><use transform="matrix(0.015190972222222222,0,0,0.015190972222222222,48.12499999999999,0)" xlink:href="#H"/><use transform="matrix(0.015190972222222222,0,0,0.015190972222222222,66.26302083333333,0)" xlink:href="#J"/><use transform="matrix(0.015190972222222222,0,0,0.015190972222222222,76.13715277777777,0)" xlink:href="#H"/></g><path d="M180 0v-1490h510c348 0 508 209 508 474 0 266-160 477-507 477H370V0H180zm190-706h312c236 0 327-133 327-310 0-176-91-307-329-307H370v617" id="K"/><path d="M471 26C259 26 90-98 90-318c0-256 228-303 435-329 202-27 287-16 287-108 0-139-79-219-234-219-161 0-248 86-283 164l-173-57c86-203 278-265 451-265 150 0 419 46 419 395V0H815v-152h-12C765-73 660 26 471 26zm31-159c199 0 310-134 310-271v-155c-30 35-226 55-295 64-131 17-246 59-246 186 0 116 97 176 231 176" id="L"/><path d="M613 24c-304 0-509-231-509-576 0-350 205-580 509-580 216 0 392 114 453 309l-173 49c-33-115-133-197-280-197-223 0-326 196-326 419 0 220 103 415 326 415 150 0 252-85 285-206l172 49C1010-95 832 24 613 24" id="M"/><g id="b"><use transform="matrix(0.015190972222222222,0,0,0.015190972222222222,0,0)" xlink:href="#K"/><use transform="matrix(0.015190972222222222,0,0,0.015190972222222222,19.869791666666668,0)" xlink:href="#I"/><use transform="matrix(0.015190972222222222,0,0,0.015190972222222222,27.40451388888889,0)" xlink:href="#L"/><use transform="matrix(0.015190972222222222,0,0,0.015190972222222222,44.87413194444444,0)" xlink:href="#M"/><use transform="matrix(0.015190972222222222,0,0,0.015190972222222222,62.64756944444444,0)" xlink:href="#H"/></g><g id="c"><use transform="matrix(0.0126953125,0,0,0.0126953125,0,0)" xlink:href="#L"/><use transform="matrix(0.0126953125,0,0,0.0126953125,14.599609375,0)" xlink:href="#I"/><use transform="matrix(0.0126953125,0,0,0.0126953125,21.27734375,0)" xlink:href="#J"/></g><path d="M180 0v-1490h528c311 0 458 177 458 395 0 191-114 278-244 313v14c139 9 302 137 302 371 0 225-148 397-499 397H180zm190-168h350c232 0 321-102 321-231 0-149-120-277-311-277H370v508zm0-668h328c160 0 286-101 286-255 0-129-87-231-280-231H370v486" id="N"/><path d="M158 0v-1490h180v865h22l478-493h223L593-638 1096 0H865L456-523 338-412V0H158" id="O"/><path d="M338-670V0H158v-1118h173l1 207c72-158 192-221 342-221 226 0 378 139 378 422V0H872v-695c0-172-96-275-252-275-161 0-282 109-282 300" id="P"/><path d="M577 24c-279 0-473-224-473-580 0-354 195-576 474-576 218 0 287 134 324 193h14v-551h180V0H922v-173h-20C865-111 790 24 577 24zm27-161c203 0 314-172 314-421 0-247-108-413-314-413-212 0-317 181-317 413 0 235 108 421 317 421" id="Q"/><path d="M692-1560L212 224H46l480-1784h166" id="R"/><path d="M52 0l541-1490h220L1361 0h-200l-149-416H398L254 0H52zm404-582h497c-103-290-145-390-251-756-108 377-145 460-246 756" id="S"/><path d="M158 418v-1536h174v179h20c37-59 106-193 324-193 279 0 474 222 474 576 0 356-194 580-473 580-213 0-288-135-325-197h-14v591H158zm492-555c209 0 317-186 317-421 0-232-105-413-317-413-206 0-314 166-314 413 0 249 111 421 314 421" id="T"/><path d="M158 0v-1118h180V0H158zm91-1301c-68 0-125-53-125-119s57-119 125-119c69 0 126 53 126 119s-57 119-126 119" id="U"/><g id="d"><use transform="matrix(0.008072916666666667,0,0,0.008072916666666667,0,0)" xlink:href="#N"/><use transform="matrix(0.008072916666666667,0,0,0.008072916666666667,10.817708333333334,0)" xlink:href="#L"/><use transform="matrix(0.008072916666666667,0,0,0.008072916666666667,20.1015625,0)" xlink:href="#M"/><use transform="matrix(0.008072916666666667,0,0,0.008072916666666667,29.546875,0)" xlink:href="#O"/><use transform="matrix(0.008072916666666667,0,0,0.008072916666666667,38.24947916666667,0)" xlink:href="#H"/><use transform="matrix(0.008072916666666667,0,0,0.008072916666666667,47.88854166666667,0)" xlink:href="#P"/><use transform="matrix(0.008072916666666667,0,0,0.008072916666666667,57.65677083333334,0)" xlink:href="#Q"/><use transform="matrix(0.008072916666666667,0,0,0.008072916666666667,67.78020833333335,0)" xlink:href="#R"/><use transform="matrix(0.008072916666666667,0,0,0.008072916666666667,73.33437500000002,0)" xlink:href="#S"/><use transform="matrix(0.008072916666666667,0,0,0.008072916666666667,84.74140625000003,0)" xlink:href="#T"/><use transform="matrix(0.008072916666666667,0,0,0.008072916666666667,94.86484375000003,0)" xlink:href="#U"/></g><path d="M537 14c-226 0-379-139-379-422v-710h180v695c0 172 97 275 253 275 160 0 281-109 281-300v-670h181V0H879v-209C806-46 684 14 537 14" id="V"/><path d="M338-670V0H158v-1490h180v566c73-149 190-208 336-208 226 0 379 139 379 422V0H872v-695c0-172-96-275-252-275-161 0-282 109-282 300" id="W"/><g id="e"><use transform="matrix(0.008072916666666667,0,0,0.008072916666666667,0,0)" xlink:href="#S"/><use transform="matrix(0.008072916666666667,0,0,0.008072916666666667,11.407031250000001,0)" xlink:href="#V"/><use transform="matrix(0.008072916666666667,0,0,0.008072916666666667,21.183333333333337,0)" xlink:href="#J"/><use transform="matrix(0.008072916666666667,0,0,0.008072916666666667,26.592187500000005,0)" xlink:href="#W"/></g><path d="M657 26c-323 0-524-166-541-416h195c15 169 171 246 346 246 202 0 356-106 356-265 5-203-294-238-475-293-239-73-380-191-380-389 0-252 224-419 512-419 294 0 499 171 508 396H992c-17-145-151-228-328-228-193 0-321 102-321 242 0 156 175 211 284 241l149 41c160 44 422 134 422 412 0 244-197 432-541 432" id="X"/><path d="M158 0v-1118h174v172h12c41-113 157-188 290-188 26 0 70 2 91 3v181c-11-2-60-10-108-10-161 0-279 109-279 260V0H158" id="Y"/><path d="M481 0L54-1118h197c107 314 236 620 325 951 87-331 217-637 324-951h197L670 0H481" id="Z"/><g id="f"><use transform="matrix(0.008072916666666667,0,0,0.008072916666666667,0,0)" xlink:href="#X"/><use transform="matrix(0.008072916666666667,0,0,0.008072916666666667,10.607812500000001,0)" xlink:href="#H"/><use transform="matrix(0.008072916666666667,0,0,0.008072916666666667,20.246875000000003,0)" xlink:href="#Y"/><use transform="matrix(0.008072916666666667,0,0,0.008072916666666667,26.729427083333334,0)" xlink:href="#Z"/><use transform="matrix(0.008072916666666667,0,0,0.008072916666666667,36.02135416666667,0)" xlink:href="#U"/><use transform="matrix(0.008072916666666667,0,0,0.008072916666666667,40.02552083333334,0)" xlink:href="#M"/><use transform="matrix(0.008072916666666667,0,0,0.008072916666666667,49.47083333333334,0)" xlink:href="#H"/></g><path d="M763 24c-353 0-583-224-583-531v-983h190v968c0 214 149 370 393 370 243 0 391-156 391-370v-968h190v983c0 307-230 531-581 531" id="aa"/><path d="M538 24C308 24 148-78 108-271l171-41c32 123 123 178 257 178 156 0 256-77 256-169 0-77-54-128-164-154l-186-44c-203-48-300-148-300-305 0-192 176-326 414-326 230 0 351 112 402 269l-163 42c-31-80-94-158-238-158-133 0-233 69-233 162 0 83 57 129 188 160l169 40c203 48 298 149 298 302 0 196-179 339-441 339" id="ab"/><g id="g"><use transform="matrix(0.008072916666666667,0,0,0.008072916666666667,0,0)" xlink:href="#aa"/><use transform="matrix(0.008072916666666667,0,0,0.008072916666666667,12.303125000000001,0)" xlink:href="#ab"/><use transform="matrix(0.008072916666666667,0,0,0.008072916666666667,21.02994791666667,0)" xlink:href="#H"/><use transform="matrix(0.008072916666666667,0,0,0.008072916666666667,30.669010416666673,0)" xlink:href="#Y"/></g><path d="M783 20c-382 0-661-292-661-764 0-473 279-766 661-766 302 0 548 182 601 489h-190c-42-204-217-313-411-313-268 0-476 208-476 590 0 381 209 588 476 588 195 0 369-110 411-313h190c-52 303-296 489-601 489" id="ac"/><g id="h"><use transform="matrix(0.008072916666666667,0,0,0.008072916666666667,0,0)" xlink:href="#ac"/><use transform="matrix(0.008072916666666667,0,0,0.008072916666666667,12.077083333333334,0)" xlink:href="#I"/><use transform="matrix(0.008072916666666667,0,0,0.008072916666666667,16.08125,0)" xlink:href="#U"/><use transform="matrix(0.008072916666666667,0,0,0.008072916666666667,20.085416666666667,0)" xlink:href="#M"/><use transform="matrix(0.008072916666666667,0,0,0.008072916666666667,29.530729166666667,0)" xlink:href="#O"/></g><g id="i"><use transform="matrix(0.008072916666666667,0,0,0.008072916666666667,0,0)" xlink:href="#Q"/><use transform="matrix(0.008072916666666667,0,0,0.008072916666666667,10.123437500000001,0)" xlink:href="#H"/><use transform="matrix(0.008072916666666667,0,0,0.008072916666666667,19.762500000000003,0)" xlink:href="#I"/><use transform="matrix(0.008072916666666667,0,0,0.008072916666666667,23.76666666666667,0)" xlink:href="#H"/><use transform="matrix(0.008072916666666667,0,0,0.008072916666666667,33.405729166666674,0)" xlink:href="#J"/><use transform="matrix(0.008072916666666667,0,0,0.008072916666666667,38.653125,0)" xlink:href="#H"/></g><path d="M677 24c-213 0-288-135-325-197h-20V0H158v-1490h180v551h14c37-59 106-193 324-193 279 0 474 222 474 576 0 356-194 580-473 580zm-27-161c209 0 317-186 317-421 0-232-105-413-317-413-206 0-314 166-314 413 0 249 111 421 314 421" id="ad"/><path d="M613 24c-304 0-509-231-509-576 0-350 205-580 509-580 305 0 511 230 511 580 0 345-206 576-511 576zm0-161c226 0 329-195 329-415 0-222-103-419-329-419-223 0-326 196-326 419 0 220 103 415 326 415" id="ae"/><g id="j"><use transform="matrix(0.008072916666666667,0,0,0.008072916666666667,0,0)" xlink:href="#ad"/><use transform="matrix(0.008072916666666667,0,0,0.008072916666666667,10.123437500000001,0)" xlink:href="#V"/><use transform="matrix(0.008072916666666667,0,0,0.008072916666666667,19.899739583333336,0)" xlink:href="#J"/><use transform="matrix(0.008072916666666667,0,0,0.008072916666666667,24.90494791666667,0)" xlink:href="#J"/><use transform="matrix(0.008072916666666667,0,0,0.008072916666666667,30.152343750000007,0)" xlink:href="#ae"/><use transform="matrix(0.008072916666666667,0,0,0.008072916666666667,40.06588541666667,0)" xlink:href="#P"/></g><path fill="#333" d="M683-1118v229H474v562c0 71 29 104 102 104 23 0 73-7 95-13l43 225C647 9 580 16 520 16 296 16 174-96 174-301v-588H20v-229h154v-266h300v266h209" id="af"/><path fill="#333" d="M128 0v-1118h290v195h12c54-169 184-238 367-200v268c-27-8-86-15-130-15-138 0-239 95-239 234V0H128" id="ag"/><path fill="#333" d="M513 14c-232 0-385-159-385-421v-711h300v659c0 139 76 222 202 222 127 0 217-86 217-234v-647h301V0H864l-4-232C797-74 683 14 513 14" id="ah"/><path fill="#333" d="M633 22C291 22 81-200 81-553c0-345 210-579 537-579 292 0 525 185 525 567v84H378c7 183 109 277 260 277 105 0 184-46 216-132l272 51C1071-99 893 22 633 22zM380-669h474c-15-146-94-237-233-237-143 0-229 99-241 237" id="ai"/><g id="k"><use transform="matrix(0.008680555555555556,0,0,0.008680555555555556,0,0)" xlink:href="#af"/><use transform="matrix(0.008680555555555556,0,0,0.008680555555555556,6.510416666666667,0)" xlink:href="#ag"/><use transform="matrix(0.008680555555555556,0,0,0.008680555555555556,13.75,0)" xlink:href="#ah"/><use transform="matrix(0.008680555555555556,0,0,0.008680555555555556,24.817708333333336,0)" xlink:href="#ai"/></g><path fill="#333" d="M768-1560L288 224H28l480-1784h260" id="aj"/><use transform="matrix(0.008680555555555556,0,0,0.008680555555555556,0,0)" xlink:href="#aj" id="l"/><path fill="#333" d="M750-1118v229H516V0H217v-889H20v-229h197v-86c0-238 156-356 363-356 94 0 178 20 215 31l-54 226c-25-7-61-15-100-15-123-3-131 84-125 200h234" id="ak"/><path fill="#333" d="M440 22C227 22 68-92 68-313c0-250 202-322 422-343 195-21 271-24 271-105 0-95-63-149-175-149-116 0-187 57-211 129l-275-46c57-194 237-305 487-305 240 0 474 108 474 379V0H777v-155h-10C713-51 605 22 440 22zm85-211c140 0 238-93 238-211v-121c-37 26-156 42-222 51-111 16-185 59-185 149 0 87 70 132 169 132" id="al"/><path fill="#333" d="M428-1490V0H128v-1490h300" id="am"/><path fill="#333" d="M572 22C302 22 117-98 78-306l279-48c29 105 101 156 224 156 114 0 185-48 185-115 0-118-228-130-337-155-215-49-322-150-322-317 0-215 187-347 470-347 265 0 424 116 466 298l-266 47c-24-76-87-130-196-130-98 0-174 46-174 113 0 56 38 95 144 117l201 40c216 44 320 143 320 302 0 220-207 367-500 367" id="an"/><g id="m"><use transform="matrix(0.008680555555555556,0,0,0.008680555555555556,0,0)" xlink:href="#ak"/><use transform="matrix(0.008680555555555556,0,0,0.008680555555555556,6.7274305555555545,0)" xlink:href="#al"/><use transform="matrix(0.008680555555555556,0,0,0.008680555555555556,17.04861111111111,0)" xlink:href="#am"/><use transform="matrix(0.008680555555555556,0,0,0.008680555555555556,21.866319444444443,0)" xlink:href="#an"/><use transform="matrix(0.008680555555555556,0,0,0.008680555555555556,31.822916666666664,0)" xlink:href="#ai"/></g><g id="n"><use transform="matrix(0.008072916666666667,0,0,0.008072916666666667,0,0)" xlink:href="#M"/><use transform="matrix(0.008072916666666667,0,0,0.008072916666666667,9.606770833333336,0)" xlink:href="#L"/><use transform="matrix(0.008072916666666667,0,0,0.008072916666666667,18.890625000000004,0)" xlink:href="#I"/><use transform="matrix(0.008072916666666667,0,0,0.008072916666666667,22.89479166666667,0)" xlink:href="#I"/></g><path d="M295 13c-75 0-135-60-135-135s60-135 135-135 135 60 135 135S370 13 295 13zm0-809c-75 0-135-60-135-135s60-135 135-135 135 60 135 135-60 135-135 135" id="ao"/><path d="M158 0v-1118h175l1 205c55-151 181-225 313-225 147 0 245 90 285 228 53-141 190-228 352-228 194 0 352 125 352 384V0h-181v-749c0-161-105-225-225-225-151 0-243 103-243 244V0H807v-767c0-124-93-207-219-207-131 0-250 92-250 270V0H158" id="ap"/><path d="M750 279c-286 0-388-117-388-391v-228c1-158-59-222-218-220v-182c158 3 218-60 218-218v-230c0-273 102-391 388-391v151c-169-1-222 74-222 243v286c0 117-37 206-205 240v20c168 35 205 125 205 242v284c0 169 52 245 222 245v149" id="aq"/><path d="M123 279V130c170 0 222-76 222-245v-284c0-116 37-207 204-242v-20c-167-34-204-123-204-240v-286c0-168-52-243-222-243v-151c285 0 387 118 387 391v230c-1 158 57 219 219 219v180c-164 1-219 64-219 221v228c0 274-102 391-387 391" id="ar"/><g id="o"><use transform="matrix(0.008072916666666667,0,0,0.008072916666666667,0,0)" xlink:href="#T"/><use transform="matrix(0.008072916666666667,0,0,0.008072916666666667,10.123437500000001,0)" xlink:href="#ae"/><use transform="matrix(0.008072916666666667,0,0,0.008072916666666667,20.03697916666667,0)" xlink:href="#ab"/><use transform="matrix(0.008072916666666667,0,0,0.008072916666666667,28.76380208333334,0)" xlink:href="#J"/><use transform="matrix(0.008072916666666667,0,0,0.008072916666666667,34.17265625,0)" xlink:href="#ao"/><use transform="matrix(0.008072916666666667,0,0,0.008072916666666667,38.93567708333334,0)" xlink:href="#R"/><use transform="matrix(0.008072916666666667,0,0,0.008072916666666667,44.89348958333334,0)" xlink:href="#L"/><use transform="matrix(0.008072916666666667,0,0,0.008072916666666667,54.177343750000006,0)" xlink:href="#T"/><use transform="matrix(0.008072916666666667,0,0,0.008072916666666667,64.30078125,0)" xlink:href="#U"/><use transform="matrix(0.008072916666666667,0,0,0.008072916666666667,68.30494791666666,0)" xlink:href="#R"/><use transform="matrix(0.008072916666666667,0,0,0.008072916666666667,74.26276041666667,0)" xlink:href="#Y"/><use transform="matrix(0.008072916666666667,0,0,0.008072916666666667,80.2125,0)" xlink:href="#ae"/><use transform="matrix(0.008072916666666667,0,0,0.008072916666666667,90.12604166666668,0)" xlink:href="#ae"/><use transform="matrix(0.008072916666666667,0,0,0.008072916666666667,100.03958333333335,0)" xlink:href="#ap"/><use transform="matrix(0.008072916666666667,0,0,0.008072916666666667,114.52239583333335,0)" xlink:href="#R"/><use transform="matrix(0.008072916666666667,0,0,0.008072916666666667,120.48020833333335,0)" xlink:href="#aq"/><use transform="matrix(0.008072916666666667,0,0,0.008072916666666667,127.52786458333335,0)" xlink:href="#U"/><use transform="matrix(0.008072916666666667,0,0,0.008072916666666667,131.53203125000002,0)" xlink:href="#Q"/><use transform="matrix(0.008072916666666667,0,0,0.008072916666666667,141.65546875,0)" xlink:href="#ar"/><use transform="matrix(0.008072916666666667,0,0,0.008072916666666667,148.70312499999997,0)" xlink:href="#R"/><use transform="matrix(0.008072916666666667,0,0,0.008072916666666667,154.6609375,0)" xlink:href="#Q"/><use transform="matrix(0.008072916666666667,0,0,0.008072916666666667,164.78437499999998,0)" xlink:href="#H"/><use transform="matrix(0.008072916666666667,0,0,0.008072916666666667,174.42343749999998,0)" xlink:href="#I"/><use transform="matrix(0.008072916666666667,0,0,0.008072916666666667,178.4276041666666,0)" xlink:href="#H"/><use transform="matrix(0.008072916666666667,0,0,0.008072916666666667,188.06666666666663,0)" xlink:href="#J"/><use transform="matrix(0.008072916666666667,0,0,0.008072916666666667,193.31406249999995,0)" xlink:href="#H"/></g><path d="M370-1490V0H180v-1490h190" id="as"/><g id="p"><use transform="matrix(0.008072916666666667,0,0,0.008072916666666667,0,0)" xlink:href="#aa"/><use transform="matrix(0.008072916666666667,0,0,0.008072916666666667,12.303125000000001,0)" xlink:href="#as"/></g><path d="M126 0v-134l627-806v-11H146v-167h839v143L376-178v11h629V0H126" id="at"/><path d="M218-607c0-325 108-727 258-974h175c-155 315-250 682-250 974 0 265 78 531 250 886H476C306-10 218-315 218-607" id="au"/><path d="M128 359l88-567h206L266 359H128" id="av"/><path d="M96 279C273-86 346-350 346-607c0-292-95-659-250-974h175c150 246 258 650 258 974 0 297-91 602-258 886H96" id="aw"/><g id="q"><use transform="matrix(0.007595486111111112,0,0,0.007595486111111112,0,0)" xlink:href="#U"/><use transform="matrix(0.007595486111111112,0,0,0.007595486111111112,3.7673611111111116,0)" xlink:href="#ab"/><use transform="matrix(0.007595486111111112,0,0,0.007595486111111112,11.978081597222225,0)" xlink:href="#aa"/><use transform="matrix(0.007595486111111112,0,0,0.007595486111111112,23.553602430555557,0)" xlink:href="#ab"/><use transform="matrix(0.007595486111111112,0,0,0.007595486111111112,31.76432291666667,0)" xlink:href="#H"/><use transform="matrix(0.007595486111111112,0,0,0.007595486111111112,40.83333333333334,0)" xlink:href="#Y"/><use transform="matrix(0.007595486111111112,0,0,0.007595486111111112,46.07421875000001,0)" xlink:href="#S"/><use transform="matrix(0.007595486111111112,0,0,0.007595486111111112,56.80664062500001,0)" xlink:href="#V"/><use transform="matrix(0.007595486111111112,0,0,0.007595486111111112,66.00477430555557,0)" xlink:href="#J"/><use transform="matrix(0.007595486111111112,0,0,0.007595486111111112,71.09375000000001,0)" xlink:href="#W"/><use transform="matrix(0.007595486111111112,0,0,0.007595486111111112,80.29188368055557,0)" xlink:href="#ae"/><use transform="matrix(0.007595486111111112,0,0,0.007595486111111112,89.61914062500001,0)" xlink:href="#Y"/><use transform="matrix(0.007595486111111112,0,0,0.007595486111111112,95.71831597222224,0)" xlink:href="#U"/><use transform="matrix(0.007595486111111112,0,0,0.007595486111111112,99.48567708333336,0)" xlink:href="#at"/><use transform="matrix(0.007595486111111112,0,0,0.007595486111111112,107.8483072916667,0)" xlink:href="#H"/><use transform="matrix(0.007595486111111112,0,0,0.007595486111111112,116.91731770833337,0)" xlink:href="#Q"/><use transform="matrix(0.007595486111111112,0,0,0.007595486111111112,126.44205729166671,0)" xlink:href="#au"/><use transform="matrix(0.007595486111111112,0,0,0.007595486111111112,132.1158854166667,0)" xlink:href="#V"/><use transform="matrix(0.007595486111111112,0,0,0.007595486111111112,141.31401909722229,0)" xlink:href="#ab"/><use transform="matrix(0.007595486111111112,0,0,0.007595486111111112,149.5247395833334,0)" xlink:href="#H"/><use transform="matrix(0.007595486111111112,0,0,0.007595486111111112,158.59375000000006,0)" xlink:href="#Y"/><use transform="matrix(0.007595486111111112,0,0,0.007595486111111112,164.69292534722226,0)" xlink:href="#as"/><use transform="matrix(0.007595486111111112,0,0,0.007595486111111112,168.87044270833337,0)" xlink:href="#Q"/><use transform="matrix(0.007595486111111112,0,0,0.007595486111111112,178.3951822916667,0)" xlink:href="#av"/><use transform="matrix(0.007595486111111112,0,0,0.007595486111111112,182.87651909722226,0)" xlink:href="#Y"/><use transform="matrix(0.007595486111111112,0,0,0.007595486111111112,188.47439236111114,0)" xlink:href="#ae"/><use transform="matrix(0.007595486111111112,0,0,0.007595486111111112,197.8016493055556,0)" xlink:href="#ae"/><use transform="matrix(0.007595486111111112,0,0,0.007595486111111112,207.12890625000006,0)" xlink:href="#ap"/><use transform="matrix(0.007595486111111112,0,0,0.007595486111111112,220.7552083333334,0)" xlink:href="#as"/><use transform="matrix(0.007595486111111112,0,0,0.007595486111111112,224.9327256944445,0)" xlink:href="#G"/><use transform="matrix(0.007595486111111112,0,0,0.007595486111111112,236.15885416666674,0)" xlink:href="#aw"/></g><g id="s"><use transform="matrix(0.008072916666666667,0,0,0.008072916666666667,0,0)" xlink:href="#G"/><use transform="matrix(0.008072916666666667,0,0,0.008072916666666667,11.931770833333335,0)" xlink:href="#N"/><use transform="matrix(0.008072916666666667,0,0,0.008072916666666667,22.74947916666667,0)" xlink:href="#R"/><use transform="matrix(0.008072916666666667,0,0,0.008072916666666667,28.707291666666666,0)" xlink:href="#X"/><use transform="matrix(0.008072916666666667,0,0,0.008072916666666667,39.31510416666667,0)" xlink:href="#H"/><use transform="matrix(0.008072916666666667,0,0,0.008072916666666667,48.95416666666667,0)" xlink:href="#Y"/><use transform="matrix(0.008072916666666667,0,0,0.008072916666666667,55.436718750000004,0)" xlink:href="#Z"/><use transform="matrix(0.008072916666666667,0,0,0.008072916666666667,64.72864583333333,0)" xlink:href="#U"/><use transform="matrix(0.008072916666666667,0,0,0.008072916666666667,68.7328125,0)" xlink:href="#M"/><use transform="matrix(0.008072916666666667,0,0,0.008072916666666667,78.178125,0)" xlink:href="#H"/><use transform="matrix(0.008072916666666667,0,0,0.008072916666666667,87.81718749999999,0)" xlink:href="#ab"/></g><path d="M226 279v-1860h398v153H398V126h226v153H226" id="ax"/><path d="M678-1118v154H420V0H240v-964H20v-154h220v-149c0-194 155-293 318-293 85 0 141 18 168 30l-50 154c-19-6-47-17-97-17-111 0-159 58-159 166v109h258" id="ay"/><g id="t"><use transform="matrix(0.0126953125,0,0,0.0126953125,0,0)" xlink:href="#ax"/><use transform="matrix(0.0126953125,0,0,0.0126953125,9.4833984375,0)" xlink:href="#U"/><use transform="matrix(0.0126953125,0,0,0.0126953125,15.7802734375,0)" xlink:href="#ay"/></g><path d="M123 279V126h226v-1554H123v-153h398V279H123" id="az"/><g id="u"><use transform="matrix(0.0126953125,0,0,0.0126953125,0,0)" xlink:href="#J"/><use transform="matrix(0.0126953125,0,0,0.0126953125,8.505859375,0)" xlink:href="#Y"/><use transform="matrix(0.0126953125,0,0,0.0126953125,18.2939453125,0)" xlink:href="#V"/><use transform="matrix(0.0126953125,0,0,0.0126953125,33.66796875,0)" xlink:href="#H"/><use transform="matrix(0.0126953125,0,0,0.0126953125,48.5341796875,0)" xlink:href="#az"/></g><path fill="#333" d="M537 19C279 19 81-185 81-557c0-382 206-575 454-575 190 0 278 113 318 202h10v-560h300V0H868v-179h-15C812-89 719 19 537 19zm92-241c153 0 240-134 240-336 0-203-86-334-240-334-158 0-240 138-240 334 0 197 84 336 240 336" id="aA"/><path fill="#333" d="M135 0v-1490h581c339 0 533 192 533 485 0 204-94 351-264 424L1302 0H964L680-532H440V0H135zm305-779h220c186 0 274-77 274-226 0-150-88-233-275-233H440v459" id="aB"/><path fill="#333" d="M628 22C291 22 81-210 81-554c0-346 210-578 547-578 336 0 547 232 547 578 0 344-211 576-547 576zm0-236c160 0 242-146 242-341 0-197-82-341-242-341S387-753 387-555c0 195 81 341 241 341" id="aC"/><path fill="#333" d="M128 0v-1118h278l12 217c60-163 185-234 319-234 143 0 236 81 288 251 63-172 205-251 359-251 205 0 357 138 357 381V0h-301v-697c0-126-76-187-177-187-114 0-184 79-184 196V0H789v-705c0-109-72-179-174-179-106 0-187 74-187 208V0H128" id="aD"/><path fill="#333" d="M169-607c0-330 107-732 258-974h279c-145 311-231 674-231 974 0 262 67 512 231 886H427C258-1 169-307 169-607" id="aE"/><path fill="#333" d="M440-1490V0H135v-1490h305" id="aF"/><path fill="#333" d="M67 279c166-379 230-627 230-886 0-300-86-663-230-974h278c151 241 258 644 258 974 0 302-90 608-258 886H67" id="aG"/><g id="v"><use transform="matrix(0.008680555555555556,0,0,0.008680555555555556,0,0)" xlink:href="#aA"/><use transform="matrix(0.008680555555555556,0,0,0.008680555555555556,11.206597222222223,0)" xlink:href="#ai"/><use transform="matrix(0.008680555555555556,0,0,0.008680555555555556,21.796875,0)" xlink:href="#am"/><use transform="matrix(0.008680555555555556,0,0,0.008680555555555556,26.614583333333336,0)" xlink:href="#ai"/><use transform="matrix(0.008680555555555556,0,0,0.008680555555555556,37.204861111111114,0)" xlink:href="#af"/><use transform="matrix(0.008680555555555556,0,0,0.008680555555555556,43.54166666666666,0)" xlink:href="#ai"/><use transform="matrix(0.008680555555555556,0,0,0.008680555555555556,54.131944444444436,0)" xlink:href="#aB"/><use transform="matrix(0.008680555555555556,0,0,0.008680555555555556,65.59027777777779,0)" xlink:href="#aC"/><use transform="matrix(0.008680555555555556,0,0,0.008680555555555556,76.49305555555557,0)" xlink:href="#aC"/><use transform="matrix(0.008680555555555556,0,0,0.008680555555555556,87.39583333333334,0)" xlink:href="#aD"/><use transform="matrix(0.008680555555555556,0,0,0.008680555555555556,103.61979166666669,0)" xlink:href="#aE"/><use transform="matrix(0.008680555555555556,0,0,0.008680555555555556,110.64236111111113,0)" xlink:href="#ag"/><use transform="matrix(0.008680555555555556,0,0,0.008680555555555556,117.44791666666669,0)" xlink:href="#aC"/><use transform="matrix(0.008680555555555556,0,0,0.008680555555555556,128.35069444444446,0)" xlink:href="#aC"/><use transform="matrix(0.008680555555555556,0,0,0.008680555555555556,139.25347222222223,0)" xlink:href="#aD"/><use transform="matrix(0.008680555555555556,0,0,0.008680555555555556,155.47743055555557,0)" xlink:href="#aF"/><use transform="matrix(0.008680555555555556,0,0,0.008680555555555556,160.46875000000003,0)" xlink:href="#aA"/><use transform="matrix(0.008680555555555556,0,0,0.008680555555555556,171.99652777777777,0)" xlink:href="#aG"/></g><path fill="#333" d="M628 22C291 22 81-210 81-554c0-346 210-578 547-578 265 0 455 142 497 372l-279 52c-25-116-99-188-215-188-160 0-244 139-244 341 0 200 84 341 244 341 116 0 193-74 217-195l279 51C1085-123 896 22 628 22" id="aH"/><g id="w"><use transform="matrix(0.008680555555555556,0,0,0.008680555555555556,0,0)" xlink:href="#an"/><use transform="matrix(0.008680555555555556,0,0,0.008680555555555556,9.956597222222223,0)" xlink:href="#ah"/><use transform="matrix(0.008680555555555556,0,0,0.008680555555555556,21.024305555555557,0)" xlink:href="#aH"/><use transform="matrix(0.008680555555555556,0,0,0.008680555555555556,31.484375,0)" xlink:href="#aH"/><use transform="matrix(0.008680555555555556,0,0,0.008680555555555556,41.94444444444444,0)" xlink:href="#ai"/><use transform="matrix(0.008680555555555556,0,0,0.008680555555555556,52.53472222222222,0)" xlink:href="#an"/><use transform="matrix(0.008680555555555556,0,0,0.008680555555555556,62.49131944444444,0)" xlink:href="#an"/></g><path fill="#333" d="M124 0v-220l528-495c135-132 210-216 210-336 0-133-98-215-231-215-139 0-229 88-229 233H110c0-290 214-477 523-477 315 0 525 182 525 440 0 167-80 305-385 586L548-262v11h630V0H124" id="aI"/><path fill="#333" d="M690 20C314 20 94-261 94-744c0-482 221-766 596-766 376 0 597 284 597 766 0 483-219 764-597 764zm0-253c184 0 286-184 286-511 0-328-102-514-286-514-183 0-285 187-285 514s101 511 285 511" id="aJ"/><path fill="#333" d="M101-265v-241l623-984h383v979h186v246h-186V0H814v-265H101zm719-246v-643h-12L409-523v12h411" id="aK"/><g id="x"><use transform="matrix(0.008680555555555556,0,0,0.008680555555555556,0,0)" xlink:href="#aI"/><use transform="matrix(0.008680555555555556,0,0,0.008680555555555556,11.197916666666668,0)" xlink:href="#aJ"/><use transform="matrix(0.008680555555555556,0,0,0.008680555555555556,23.185763888888893,0)" xlink:href="#aK"/></g><path fill="#333" d="M128 0v-1490h300v802h17l366-430h347L740-633 1179 0H826L514-456l-86 97V0H128" id="aL"/><g id="y"><use transform="matrix(0.008680555555555556,0,0,0.008680555555555556,0,0)" xlink:href="#aC"/><use transform="matrix(0.008680555555555556,0,0,0.008680555555555556,10.902777777777779,0)" xlink:href="#aL"/></g><path fill="#333" d="M659 0H135v-1490h529c448 0 721 280 721 744 0 466-273 746-726 746zM440-263h204c287 0 437-148 437-483 0-333-150-481-435-481H440v964" id="aM"/><g id="z"><use transform="matrix(0.008680555555555556,0,0,0.008680555555555556,0,0)" xlink:href="#aM"/><use transform="matrix(0.008680555555555556,0,0,0.008680555555555556,12.838541666666668,0)" xlink:href="#ai"/><use transform="matrix(0.008680555555555556,0,0,0.008680555555555556,23.428819444444446,0)" xlink:href="#am"/><use transform="matrix(0.008680555555555556,0,0,0.008680555555555556,28.24652777777778,0)" xlink:href="#ai"/><use transform="matrix(0.008680555555555556,0,0,0.008680555555555556,38.83680555555556,0)" xlink:href="#af"/><use transform="matrix(0.008680555555555556,0,0,0.008680555555555556,45.17361111111111,0)" xlink:href="#ai"/><use transform="matrix(0.008680555555555556,0,0,0.008680555555555556,55.763888888888886,0)" xlink:href="#aA"/></g><path fill="#333" d="M681 22C323 22 94-145 85-462h297c10 151 131 226 296 226 163 0 271-77 271-190 0-102-95-149-257-189l-164-41c-252-61-403-188-403-405 0-269 236-449 560-449 330 0 546 183 551 445H941c-11-119-106-188-259-188-156 0-244 72-244 172-3 156 226 185 373 221 250 61 445 186 445 436 0 271-213 446-575 446" id="aN"/><path fill="#333" d="M120 396l69-226c123 42 245 23 254-107l8-60L31-1118h319c87 288 199 559 259 872 72-308 185-583 277-872h315L726 132c-68 181-186 294-410 294-79 0-153-13-196-30" id="aO"/><g id="A"><use transform="matrix(0.008680555555555556,0,0,0.008680555555555556,0,0)" xlink:href="#aN"/><use transform="matrix(0.008680555555555556,0,0,0.008680555555555556,11.640625,0)" xlink:href="#ah"/><use transform="matrix(0.008680555555555556,0,0,0.008680555555555556,22.708333333333336,0)" xlink:href="#aH"/><use transform="matrix(0.008680555555555556,0,0,0.008680555555555556,33.16840277777778,0)" xlink:href="#aH"/><use transform="matrix(0.008680555555555556,0,0,0.008680555555555556,43.62847222222222,0)" xlink:href="#ai"/><use transform="matrix(0.008680555555555556,0,0,0.008680555555555556,54.21875,0)" xlink:href="#an"/><use transform="matrix(0.008680555555555556,0,0,0.008680555555555556,64.17534722222223,0)" xlink:href="#an"/><use transform="matrix(0.008680555555555556,0,0,0.008680555555555556,74.13194444444446,0)" xlink:href="#ak"/><use transform="matrix(0.008680555555555556,0,0,0.008680555555555556,81.20659722222223,0)" xlink:href="#ah"/><use transform="matrix(0.008680555555555556,0,0,0.008680555555555556,92.27430555555556,0)" xlink:href="#am"/><use transform="matrix(0.008680555555555556,0,0,0.008680555555555556,97.0920138888889,0)" xlink:href="#am"/><use transform="matrix(0.008680555555555556,0,0,0.008680555555555556,102.0920138888889,0)" xlink:href="#aO"/></g><g id="B"><use transform="matrix(0.0126953125,0,0,0.0126953125,0,0)" xlink:href="#ax"/><use transform="matrix(0.0126953125,0,0,0.0126953125,9.19140625,0)" xlink:href="#H"/><use transform="matrix(0.0126953125,0,0,0.0126953125,24.349609375,0)" xlink:href="#I"/><use transform="matrix(0.0126953125,0,0,0.0126953125,30.646484375,0)" xlink:href="#ab"/><use transform="matrix(0.0126953125,0,0,0.0126953125,44.3701171875,0)" xlink:href="#H"/><use transform="matrix(0.0126953125,0,0,0.0126953125,59.236328125,0)" xlink:href="#az"/></g><path fill="#333" d="M659 20C335 20 103-159 99-418h307c5 112 113 185 254 185 147 0 250-83 250-204 0-123-105-209-278-209H494v-227h138c145 0 246-81 246-200 0-115-87-193-216-193-130 0-237 73-240 189H128c4-255 233-433 536-433 306 0 510 185 510 418 0 167-114 285-279 317v11c217 29 333 162 333 347 0 254-237 437-569 437" id="aP"/><g id="C"><use transform="matrix(0.008680555555555556,0,0,0.008680555555555556,0,0)" xlink:href="#aK"/><use transform="matrix(0.008680555555555556,0,0,0.008680555555555556,12.022569444444445,0)" xlink:href="#aJ"/><use transform="matrix(0.008680555555555556,0,0,0.008680555555555556,24.010416666666668,0)" xlink:href="#aP"/></g><path fill="#333" d="M135 0v-1490h980v253H440v416h609v249H440V0H135" id="aQ"/><path fill="#333" d="M754 19C571 19 479-89 437-179h-14V0H128v-1490h300v560h9c41-89 129-202 319-202 248 0 453 193 453 575 0 372-197 576-455 576zm-92-241c156 0 240-139 240-336 0-196-83-334-240-334-154 0-241 131-241 334 0 202 88 336 241 336" id="aR"/><path fill="#333" d="M128 0v-1118h300V0H128zm150-1264c-91 0-165-68-165-154 0-85 74-154 165-154 90 0 165 69 165 154 0 86-75 154-165 154" id="aS"/><path fill="#333" d="M428-647V0H128v-1118h283l4 231c63-156 176-245 348-245 232 0 384 159 384 421V0H847v-659c0-139-76-222-202-222-128 0-217 86-217 234" id="aT"/><g id="D"><use transform="matrix(0.008680555555555556,0,0,0.008680555555555556,0,0)" xlink:href="#aQ"/><use transform="matrix(0.008680555555555556,0,0,0.008680555555555556,9.921875,0)" xlink:href="#aC"/><use transform="matrix(0.008680555555555556,0,0,0.008680555555555556,20.82465277777778,0)" xlink:href="#ag"/><use transform="matrix(0.008680555555555556,0,0,0.008680555555555556,28.342013888888893,0)" xlink:href="#aR"/><use transform="matrix(0.008680555555555556,0,0,0.008680555555555556,39.548611111111114,0)" xlink:href="#aS"/><use transform="matrix(0.008680555555555556,0,0,0.008680555555555556,44.36631944444444,0)" xlink:href="#aA"/><use transform="matrix(0.008680555555555556,0,0,0.008680555555555556,55.57291666666667,0)" xlink:href="#aA"/><use transform="matrix(0.008680555555555556,0,0,0.008680555555555556,66.7795138888889,0)" xlink:href="#ai"/><use transform="matrix(0.008680555555555556,0,0,0.008680555555555556,77.36979166666669,0)" xlink:href="#aT"/></g><path fill="#333" d="M135 0v-1490h997v253H440v360h640v249H440v375h694V0H135" id="aU"/><g id="E"><use transform="matrix(0.008680555555555556,0,0,0.008680555555555556,0,0)" xlink:href="#aU"/><use transform="matrix(0.008680555555555556,0,0,0.008680555555555556,10.79861111111111,0)" xlink:href="#ag"/><use transform="matrix(0.008680555555555556,0,0,0.008680555555555556,18.16840277777778,0)" xlink:href="#ag"/><use transform="matrix(0.008680555555555556,0,0,0.008680555555555556,24.973958333333336,0)" xlink:href="#aC"/><use transform="matrix(0.008680555555555556,0,0,0.008680555555555556,35.876736111111114,0)" xlink:href="#ag"/></g><path fill="#333" d="M135 0v-1490h468l242 684c30 94 76 293 111 455 34-161 80-360 110-455l238-684h470V0h-307c0-447-3-765 11-1227-122 503-246 788-395 1227H826C676-435 552-717 427-1215c15 453 11 775 11 1215H135" id="aV"/><path fill="#333" d="M625 442c-280 0-454-114-503-274l258-72c28 63 97 128 243 128 153 0 246-69 246-216v-206h-23C805-108 717-16 536-16 284-16 81-191 81-561c0-378 208-571 456-571 188 0 280 113 321 202h13v-188h295V-9c0 303-226 451-541 451zm5-686c153 0 240-119 240-319 0-198-86-329-240-329-158 0-241 137-241 329 0 195 85 319 241 319" id="aW"/><g id="F"><use transform="matrix(0.008680555555555556,0,0,0.008680555555555556,0,0)" xlink:href="#aV"/><use transform="matrix(0.008680555555555556,0,0,0.008680555555555556,16.5625,0)" xlink:href="#ai"/><use transform="matrix(0.008680555555555556,0,0,0.008680555555555556,27.15277777777778,0)" xlink:href="#an"/><use transform="matrix(0.008680555555555556,0,0,0.008680555555555556,37.109375,0)" xlink:href="#an"/><use transform="matrix(0.008680555555555556,0,0,0.008680555555555556,47.06597222222222,0)" xlink:href="#al"/><use transform="matrix(0.008680555555555556,0,0,0.008680555555555556,57.38715277777778,0)" xlink:href="#aW"/><use transform="matrix(0.008680555555555556,0,0,0.008680555555555556,68.61979166666667,0)" xlink:href="#ai"/></g></defs></g></svg>